<?xml version="1.0" encoding="UTF-8" standalone="no"?>
<!-- Created with Inkscape (http://www.inkscape.org/) -->

<svg
   xmlns:dc="http://purl.org/dc/elements/1.1/"
   xmlns:cc="http://creativecommons.org/ns#"
   xmlns:rdf="http://www.w3.org/1999/02/22-rdf-syntax-ns#"
   xmlns:svg="http://www.w3.org/2000/svg"
   xmlns="http://www.w3.org/2000/svg"
   xmlns:sodipodi="http://sodipodi.sourceforge.net/DTD/sodipodi-0.dtd"
   xmlns:inkscape="http://www.inkscape.org/namespaces/inkscape"
   width="744.09448819"
   height="1052.3622047"
   id="svg12596"
   version="1.1"
   inkscape:version="0.48.5 r10040"
   sodipodi:docname="nightclear.svg"
   inkscape:export-filename="Z:\android\androidstudio\projects\What2wear\images\mine\nightclear.png"
   inkscape:export-xdpi="90"
   inkscape:export-ydpi="90">
  <defs
     id="defs12598">
    <filter
       inkscape:collect="always"
       id="filter13149"
       x="-0.50378093"
       width="2.0075619"
       y="-0.50902866"
       height="2.0180573">
      <feGaussianBlur
         inkscape:collect="always"
         stdDeviation="58.174702"
         id="feGaussianBlur13151" />
    </filter>
    <filter
       inkscape:collect="always"
       id="filter13165">
      <feGaussianBlur
         inkscape:collect="always"
         stdDeviation="2.3416149"
         id="feGaussianBlur13167" />
    </filter>
    <filter
       color-interpolation-filters="sRGB"
       inkscape:collect="always"
       id="filter13923"
       x="-0.059949383"
       width="1.1198988"
       y="-0.21567155"
       height="1.4313431">
      <feGaussianBlur
         inkscape:collect="always"
         stdDeviation="10.526826"
         id="feGaussianBlur13925" />
    </filter>
  </defs>
  <sodipodi:namedview
     id="base"
     pagecolor="#ffffff"
     bordercolor="#666666"
     borderopacity="1.0"
     inkscape:pageopacity="0.0"
     inkscape:pageshadow="2"
     inkscape:zoom="0.7"
     inkscape:cx="406.39219"
     inkscape:cy="485.34601"
     inkscape:document-units="px"
     inkscape:current-layer="layer12"
     showgrid="false"
     inkscape:window-width="1680"
     inkscape:window-height="988"
     inkscape:window-x="1592"
     inkscape:window-y="-8"
     inkscape:window-maximized="1" />
  <metadata
     id="metadata12601">
    <rdf:RDF>
      <cc:Work
         rdf:about="">
        <dc:format>image/svg+xml</dc:format>
        <dc:type
           rdf:resource="http://purl.org/dc/dcmitype/StillImage" />
        <dc:title></dc:title>
      </cc:Work>
    </rdf:RDF>
  </metadata>
  <g
     inkscape:groupmode="layer"
     id="layer12"
     inkscape:label="boty">
    <path
       sodipodi:type="arc"
       style="opacity:0.71238942;fill:#141414;fill-opacity:1;stroke:none;filter:url(#filter13923)"
       id="path13155"
       sodipodi:cx="335"
       sodipodi:cy="820.93359"
       sodipodi:rx="210.71428"
       sodipodi:ry="58.57143"
       d="m 545.71428,820.93359 a 210.71428,58.57143 0 1 1 -421.42856,0 210.71428,58.57143 0 1 1 421.42856,0 z"
       transform="matrix(0.6941005,0,0,1,126.98985,-219.99999)"
       inkscape:export-filename="Z:\android\androidstudio\projects\What2wear\images\mine\nightclear.png"
       inkscape:export-xdpi="90"
       inkscape:export-ydpi="90" />
  </g>
  <g
     inkscape:groupmode="layer"
     id="layer11"
     inkscape:label="bottom">
    <path
       sodipodi:type="arc"
       style="fill:#ffffff;fill-opacity:1;stroke:none;filter:url(#filter13149);opacity:0.57079646"
       id="path11739-7"
       sodipodi:cx="322.85715"
       sodipodi:cy="388.07648"
       sodipodi:rx="138.57143"
       sodipodi:ry="137.14285"
       d="m 461.42857,388.07648 a 138.57143,137.14285 0 1 1 -277.14285,0 138.57143,137.14285 0 1 1 277.14285,0 z"
       transform="matrix(0.74743354,0,0,0.70407988,118.40003,200.2682)"
       inkscape:export-filename="Z:\android\androidstudio\projects\What2wear\images\mine\nightclear.png"
       inkscape:export-xdpi="90"
       inkscape:export-ydpi="90" />
  </g>
  <g
     inkscape:label="Layer 1"
     inkscape:groupmode="layer"
     id="layer1">
    <path
       sodipodi:type="arc"
       style="fill:#fff8d9;fill-opacity:1;stroke:none"
       id="path11739"
       sodipodi:cx="322.85715"
       sodipodi:cy="388.07648"
       sodipodi:rx="138.57143"
       sodipodi:ry="137.14285"
       d="m 461.42857,388.07648 a 138.57143,137.14285 0 1 1 -277.14285,0 138.57143,137.14285 0 1 1 277.14285,0 z"
       transform="matrix(0.74743354,0,0,0.70407988,115.8286,207.69677)"
       inkscape:export-filename="Z:\android\androidstudio\projects\What2wear\images\mine\nightclear.png"
       inkscape:export-xdpi="90"
       inkscape:export-ydpi="90" />
    <path
       style="fill:none;stroke:#410000;stroke-width:3.6271646;stroke-linecap:round;stroke-linejoin:miter;stroke-miterlimit:4;stroke-opacity:1;stroke-dasharray:none"
       d="m 294.99909,505.12962 c 0,0 18.39178,18.55943 30.64478,22.53055 20.26081,6.56642 43.86813,6.13935 64.27929,0 13.10534,-3.94187 33.63451,-22.53055 33.63451,-22.53055"
       id="path5873"
       inkscape:connector-curvature="0"
       sodipodi:nodetypes="caac"
       inkscape:export-filename="Z:\android\androidstudio\projects\What2wear\images\mine\nightclear.png"
       inkscape:export-xdpi="90"
       inkscape:export-ydpi="90" />
    <path
       transform="matrix(0.74743354,0,0,0.70407988,90.949737,135.93676)"
       sodipodi:type="arc"
       style="fill:#ededed;fill-opacity:0.92021269;stroke:none"
       id="path5877"
       sodipodi:cx="308"
       sodipodi:cy="438.86218"
       sodipodi:rx="24"
       sodipodi:ry="22.5"
       d="m 332,438.86218 a 24,22.5 0 1 1 -48,0 24,22.5 0 1 1 48,0 z"
       inkscape:export-filename="Z:\android\androidstudio\projects\What2wear\images\mine\nightclear.png"
       inkscape:export-xdpi="90"
       inkscape:export-ydpi="90" />
    <path
       transform="matrix(0.74743354,0,0,0.70407988,170.17769,137.69696)"
       sodipodi:type="arc"
       style="fill:#ededed;fill-opacity:0.92021269;stroke:none"
       id="path5877-8"
       sodipodi:cx="308"
       sodipodi:cy="438.86218"
       sodipodi:rx="24"
       sodipodi:ry="22.5"
       d="m 332,438.86218 a 24,22.5 0 1 1 -48,0 24,22.5 0 1 1 48,0 z"
       inkscape:export-filename="Z:\android\androidstudio\projects\What2wear\images\mine\nightclear.png"
       inkscape:export-xdpi="90"
       inkscape:export-ydpi="90" />
    <path
       transform="matrix(0.74743354,0,0,0.70407988,170.17769,137.69696)"
       sodipodi:type="arc"
       style="fill:#000034;fill-opacity:0.92021269;stroke:none"
       id="path5879-6"
       sodipodi:cx="308.5"
       sodipodi:cy="438.86218"
       sodipodi:rx="10.5"
       sodipodi:ry="10.5"
       d="m 319,438.86218 a 10.5,10.5 0 1 1 -21,0 10.5,10.5 0 1 1 21,0 z"
       inkscape:export-filename="Z:\android\androidstudio\projects\What2wear\images\mine\nightclear.png"
       inkscape:export-xdpi="90"
       inkscape:export-ydpi="90" />
    <path
       transform="matrix(0.74743354,0,0,0.70407988,90.949737,135.93676)"
       sodipodi:type="arc"
       style="fill:#000034;fill-opacity:0.92021269;stroke:none"
       id="path5879"
       sodipodi:cx="308.5"
       sodipodi:cy="438.86218"
       sodipodi:rx="10.5"
       sodipodi:ry="10.5"
       d="m 319,438.86218 a 10.5,10.5 0 1 1 -21,0 10.5,10.5 0 1 1 21,0 z"
       inkscape:export-filename="Z:\android\androidstudio\projects\What2wear\images\mine\nightclear.png"
       inkscape:export-xdpi="90"
       inkscape:export-ydpi="90" />
    <path
       sodipodi:type="arc"
       style="fill:#1a1a1a;fill-opacity:0.92021269;stroke:#410000;stroke-width:2;stroke-linecap:round;stroke-miterlimit:4;stroke-opacity:1;stroke-dasharray:none"
       id="path12407"
       sodipodi:cx="120.71429"
       sodipodi:cy="354.50504"
       sodipodi:rx="9.2857141"
       sodipodi:ry="5"
       d="m 130,354.50504 a 9.2857141,5 0 1 1 -18.57143,0 9.2857141,5 0 1 1 18.57143,0 z"
       transform="matrix(0.74743354,0,0,0.70407988,265.52885,237.87162)"
       inkscape:export-filename="Z:\android\androidstudio\projects\What2wear\images\mine\nightclear.png"
       inkscape:export-xdpi="90"
       inkscape:export-ydpi="90" />
  </g>
</svg>
