<?xml version="1.0" encoding="UTF-8" standalone="no"?>
<!-- Created with Inkscape (http://www.inkscape.org/) -->

<svg
   xmlns:dc="http://purl.org/dc/elements/1.1/"
   xmlns:cc="http://creativecommons.org/ns#"
   xmlns:rdf="http://www.w3.org/1999/02/22-rdf-syntax-ns#"
   xmlns:svg="http://www.w3.org/2000/svg"
   xmlns="http://www.w3.org/2000/svg"
   xmlns:sodipodi="http://sodipodi.sourceforge.net/DTD/sodipodi-0.dtd"
   xmlns:inkscape="http://www.inkscape.org/namespaces/inkscape"
   width="744.09448819"
   height="1052.3622047"
   id="svg3882"
   version="1.1"
   inkscape:version="0.48.5 r10040"
   sodipodi:docname="sunny.svg">
  <defs
     id="defs3884" />
  <sodipodi:namedview
     id="base"
     pagecolor="#ffffff"
     bordercolor="#666666"
     borderopacity="1.0"
     inkscape:pageopacity="0.0"
     inkscape:pageshadow="2"
     inkscape:zoom="1.4"
     inkscape:cx="230.5537"
     inkscape:cy="600.81903"
     inkscape:document-units="px"
     inkscape:current-layer="layer2"
     showgrid="false"
     inkscape:window-width="1680"
     inkscape:window-height="988"
     inkscape:window-x="1592"
     inkscape:window-y="-8"
     inkscape:window-maximized="1" />
  <metadata
     id="metadata3887">
    <rdf:RDF>
      <cc:Work
         rdf:about="">
        <dc:format>image/svg+xml</dc:format>
        <dc:type
           rdf:resource="http://purl.org/dc/dcmitype/StillImage" />
        <dc:title></dc:title>
      </cc:Work>
    </rdf:RDF>
  </metadata>
  <g
     inkscape:groupmode="layer"
     id="layer2"
     inkscape:label="bg">
    <path
       sodipodi:type="arc"
       style="fill:#ffff00;fill-opacity:0.70588237;stroke:none"
       id="path4539"
       sodipodi:cx="117.5"
       sodipodi:cy="321.29074"
       sodipodi:rx="83.214287"
       sodipodi:ry="91.785713"
       d="m 200.71429,321.29074 a 83.214287,91.785713 0 1 1 -166.428577,0 83.214287,91.785713 0 1 1 166.428577,0 z"
       transform="translate(114.28571,83.571429)" />
    <path
       style="fill:#ffff00;fill-opacity:0.70588235;stroke:none"
       id="path4558"
       d="m 140.1231,349.24575 c -0.72019,-1.52803 -0.98398,-3.25929 -1.83115,-4.72984 -0.33363,-0.57912 -1.12623,-1.57364 -1.52857,-2.09719 -2.31591,-2.58152 -5.38314,-4.40638 -8.38503,-6.08807 -2.53422,-1.2198 -5.24777,-1.95935 -7.91467,-2.80675 -1.61357,-0.51271 -3.20445,-1.09471 -4.81529,-1.61592 -2.72775,-1.09001 -5.65814,-1.5129 -8.41805,-2.49155 -0.71695,-0.25422 -2.12922,-0.87071 -2.86859,-1.18742 -2.28597,-0.73081 -4.07279,-2.33295 -5.553356,-4.16759 -1.648393,-1.49406 -2.641244,-3.39255 -3.65583,-5.32292 -1.420994,-1.75313 -2.005963,-3.77356 -2.376471,-5.95455 -0.07823,-2.38132 -0.74081,-4.66297 -1.13764,-6.99642 -0.433993,-2.69403 -0.548228,-5.42087 -0.387678,-8.14112 0.203514,-2.27222 0.361234,-4.54712 0.436081,-6.82724 0.109607,-2.28041 -0.59621,-4.299 -1.563115,-6.3189 -1.468314,-2.58147 -3.179888,-5.01231 -5.200324,-7.18726 -2.158806,-2.38285 -4.470675,-4.59945 -6.654627,-6.95982 -1.933719,-1.98161 -4.220369,-3.57813 -6.498502,-5.1353 -1.080722,-1.0142 -2.411365,-1.71442 -3.513688,-2.70024 -0.171424,-0.15331 -1.419855,-1.47985 -1.635917,-1.70836 0,0 8.977985,-5.45478 8.977985,-5.45478 l 0,0 c 1.477882,1.62866 3.151474,2.97888 4.938144,4.26338 2.349606,1.59945 4.721818,3.21283 6.661908,5.31248 2.168409,2.35832 4.403508,4.64277 6.561761,7.00979 2.103025,2.24831 3.964359,4.70416 5.48673,7.38569 1.034139,2.15664 1.852039,4.32062 1.815319,6.75568 -0.0786,2.2984 -0.20791,4.59355 -0.45137,6.88122 -0.23146,2.64558 -0.1604,5.28824 0.2687,7.91547 0.40855,2.33479 1.12277,4.60931 1.16515,6.99607 0.31289,2.08831 0.89105,3.95854 2.22362,5.64423 1.03129,1.92466 1.89856,3.61704 3.53642,5.1501 1.42114,1.69683 3.14081,3.04102 5.25157,3.77642 3.56404,1.6003 7.35827,2.44401 11.04299,3.71952 4.34452,1.41771 8.81002,2.55847 12.94561,4.53228 3.10076,1.80603 6.30623,3.66616 8.70403,6.38093 0.38292,0.50835 1.34328,1.75357 1.65077,2.28753 0.85843,1.49062 1.08278,3.26218 1.96424,4.74626 0,0 -9.24116,5.13419 -9.24116,5.13419 z"
       inkscape:connector-curvature="0" />
    <path
       style="fill:#ffff00;fill-opacity:0.70588235;stroke:none"
       id="path4560"
       d="m 135.09798,409.45516 c -4.12597,-1.32691 -8.1692,-2.88529 -12.18735,-4.51534 -5.28914,-2.55512 -10.55274,-5.13722 -15.89209,-7.58796 -4.06237,-1.66876 -8.139792,-3.28415 -12.263818,-4.79144 -2.933264,-1.20237 -5.418133,-3.19497 -7.990055,-5.00018 -2.88909,-2.7872 -5.059435,-6.09469 -6.628306,-9.76915 -1.114278,-2.58608 -1.497014,-5.38381 -2.214801,-8.08415 -0.05926,-0.22292 -0.961461,-3.24209 -1.043629,-3.51759 -1.006449,-2.58349 -1.959529,-5.27212 -3.803919,-7.38581 -1.949308,-1.95201 -4.508198,-2.77746 -7.126558,-3.38587 -3.168218,-0.60178 -6.40486,-0.66473 -9.619686,-0.70916 -2.152241,0.21401 -4.29206,0.50621 -6.452473,0.63111 -2.81482,0.12566 -5.586621,-0.33954 -8.301654,-1.03532 -0.599181,-0.14259 -1.205231,-0.2589 -1.797544,-0.42777 -1.154132,-0.32903 -2.273732,-0.76917 -3.415743,-1.13808 -1.465015,-0.47325 -2.823012,-0.89264 -4.198226,-1.59017 -1.391972,-0.76577 -0.701686,-0.41329 -2.067814,-1.06339 0,0 8.765125,-5.77189 8.765125,-5.77189 l 0,0 c 1.357182,0.69816 0.680819,0.33749 2.028796,1.08256 2.91915,1.36852 6.102343,2.2169 9.216121,3.00904 2.700294,0.58692 5.467495,0.91909 8.233957,0.69678 2.145558,-0.17215 4.28198,-0.49789 6.437429,-0.501 3.261234,0.1055 6.550211,0.20099 9.750061,0.89615 2.811915,0.73123 5.456709,1.77657 7.519899,3.9151 1.86626,2.29241 2.938754,5.05027 3.931475,7.81249 0.33822,1.19541 0.703409,2.38338 1.020432,3.58458 0.699276,2.64957 1.043251,5.3974 2.131575,7.93603 1.476175,3.50224 3.570195,6.65938 6.396237,9.2334 2.51395,1.75077 4.979899,3.63711 7.848049,4.78243 4.07316,1.57765 8.09852,3.27181 12.1195,4.97823 5.31489,2.47533 10.54172,5.12613 15.88925,7.52926 4.08704,1.64041 8.21049,3.17762 12.49451,4.23082 0,0 -8.77875,5.95629 -8.77875,5.95629 z"
       inkscape:connector-curvature="0" />
    <path
       style="fill:#ffff00;fill-opacity:0.70588235;stroke:none"
       id="path4562"
       d="m 129.49107,461.4785 c -4.58499,0.88413 -9.08464,2.15942 -13.61379,3.29739 -5.43497,1.39412 -10.9945,2.1486 -16.578155,2.59945 -3.776194,0.25171 -7.566555,0.20805 -11.349484,0.20448 -3.299286,0.004 -6.598531,-0.005 -9.897785,-0.0201 -3.000433,-0.26363 -6.02316,-0.33969 -9.013213,-0.70275 -0.484812,-0.13157 -0.973631,-0.24918 -1.454435,-0.39471 -2.118007,-0.6411 -0.989341,-0.41347 -3.189967,-1.00031 -1.847536,-0.49269 -3.737859,-0.78694 -5.598642,-1.22723 -3.944629,-1.18986 -8.007338,-1.80878 -12.101367,-2.16492 -2.19218,-0.23896 -4.358392,-0.2056 -6.536279,0.11005 -0.519242,0.0753 -1.049006,0.10286 -1.555816,0.23858 -0.485929,0.13012 -0.935866,0.36931 -1.403799,0.55397 -5.033304,2.74963 3.913552,-2.35729 5.964697,-3.3559 0.565926,-0.27552 -0.974165,0.79829 -1.438874,1.22283 -1.344147,1.22795 -2.466969,2.58997 -3.580697,4.02198 -1.643249,2.24135 -2.828208,4.74818 -4.102611,7.20232 -1.033545,1.92569 -2.5341,3.50307 -3.87407,5.20405 -1.613507,2.45859 -4.081933,3.90387 -6.53706,5.38063 -6.134417,4.05024 -11.683567,6.64489 -18.3414494,8.99536 -3.2526891,1.64135 -9.9423519,5.11275 4.7206264,-2.81457 0.424009,-0.22923 -0.7943419,0.54675 -1.1792261,0.83691 -0.8216079,0.61942 -1.6104911,1.2811 -2.4190591,1.91744 -1.7026027,1.37806 -0.8553366,0.65295 -2.537255,2.18062 0,0 -9.5959074,3.94454 -9.5959074,3.94454 l 0,0 c 1.6195124,-1.60079 0.7939997,-0.84727 2.4703082,-2.26736 1.1828526,-0.89346 2.29074596,-2.06109 3.55745928,-2.82929 4.28272632,-2.59729 8.48905522,-5.43784 13.14096912,-7.3465 3.958404,-1.51581 16.591337,-7.22981 0.480718,1.13305 2.36981,-1.45856 4.968108,-2.62157 6.61304,-4.97735 1.237864,-1.76696 2.794662,-3.24043 3.942802,-5.07713 1.413734,-2.43789 2.468787,-5.07728 4.121139,-7.38281 4.599146,-6.10368 8.897176,-9.28899 16.821547,-12.37512 3.181591,-0.85144 6.436202,-0.92398 9.701945,-0.51735 4.106442,0.4545 8.168144,1.16372 12.149944,2.28765 1.895931,0.40994 3.807419,0.74486 5.681662,1.24876 0.09611,0.0258 3.016466,0.87993 3.20235,0.92576 0.460183,0.11347 0.929209,0.18747 1.393814,0.28121 2.956632,0.29663 5.928705,0.48057 8.8948,0.64808 3.292908,-0.004 6.585691,0.009 9.878499,0.0334 3.752301,0.005 7.507641,0.0186 11.253661,-0.23638 5.49633,-0.42235 10.96136,-1.1902 16.29835,-2.60892 4.66519,-1.22131 9.33085,-2.448 14.00373,-3.63216 0,0 -8.39312,6.4623 -8.39312,6.4623 z"
       inkscape:connector-curvature="0" />
    <path
       style="fill:#ffff00;fill-opacity:0.70588235;stroke:none"
       id="path4564"
       d="m 152.39258,497.13423 c -3.16502,3.32683 -6.96882,5.97335 -10.6168,8.73599 -4.46854,3.41836 -9.018,6.72829 -13.20624,10.49124 -3.30579,3.10357 -6.06932,6.67606 -7.97945,10.78762 -1.33013,3.43893 -1.67832,7.12812 -1.62858,10.78631 0.0616,3.59859 1.30045,6.94878 2.2571,10.36692 0.90566,3.32412 1.11033,6.74159 1.20479,10.16546 -0.0764,2.72818 -0.16159,5.51808 -0.90632,8.16387 -0.40725,1.44684 -0.97794,2.74692 -1.53987,4.13674 -1.23553,3.90494 -3.4606,7.27163 -5.86427,10.53448 -2.41742,2.94562 -5.10534,5.67213 -7.77869,8.38673 -3.24522,3.15481 -6.735605,6.04833 -10.155606,9.01265 -3.539158,3.15147 -7.10312,6.33778 -10.231634,9.90684 0,0 -9.531238,4.03034 -9.531238,4.03034 l 0,0 c 3.115069,-3.66584 6.767761,-6.85847 10.30677,-10.10233 1.894204,-1.62205 3.697319,-3.35544 5.600418,-4.96423 1.51077,-1.27713 3.126081,-2.43567 4.444092,-3.93273 3.420408,-3.22254 -0.735479,0.77881 2.625866,-2.74485 1.742322,-1.82646 3.634662,-3.52265 5.223592,-5.49468 2.40211,-3.20919 4.83334,-6.43247 6.02326,-10.32494 0.459,-1.09608 1.2177,-2.83695 1.58157,-3.98104 0.80948,-2.54516 0.91339,-5.25255 0.99744,-7.90081 -0.11532,-3.33542 -0.2962,-6.68397 -1.11497,-9.93535 -0.94232,-3.50208 -2.22979,-6.92519 -2.38682,-10.59137 -0.0866,-3.7893 0.26186,-7.61615 1.49254,-11.22245 1.83689,-4.31887 4.55912,-7.94377 7.9123,-11.22197 4.16552,-3.83639 8.72854,-7.16706 13.22831,-10.59597 3.50054,-2.68097 7.14659,-5.21471 10.28804,-8.32501 0,0 9.7544,-4.16746 9.7544,-4.16746 z"
       inkscape:connector-curvature="0" />
    <path
       style="fill:#ffff00;fill-opacity:0.70588235;stroke:none"
       id="path4566"
       d="m 181.91434,528.34538 c 0.27369,2.90237 0.40506,5.81429 0.48084,8.72769 0.0235,3.36591 0.18023,6.73569 0.0304,10.09963 -0.34237,3.90576 -0.52594,7.81923 -0.62287,11.73799 -0.0914,4.10497 -0.0479,8.21095 -0.0532,12.31651 0.009,3.31375 0.048,6.62746 0.01,9.94109 -0.0882,4.54412 -0.27929,9.0999 -0.72666,13.62392 -0.33902,3.63187 -1.30815,7.04466 -3.03443,10.24523 -1.43791,1.99804 -3.12403,3.84908 -4.87443,5.58257 -2.03668,2.0113 -4.0448,4.05309 -6.00058,6.14402 -1.60476,1.61985 -3.33861,3.11471 -5.13476,4.51773 0,0 -9.72045,3.85137 -9.72045,3.85137 l 0,0 c 1.87574,-1.27807 3.51923,-2.85718 5.23785,-4.3362 1.91934,-2.13787 3.96704,-4.14132 5.96139,-6.20465 1.79531,-1.64108 3.30772,-3.54728 4.9793,-5.31015 1.93203,-3.02877 3.00411,-6.37225 3.42955,-9.9426 0.48191,-4.46392 0.59281,-8.97748 0.64726,-13.46486 -0.0413,-3.3163 -0.007,-6.63285 0.003,-9.94931 0.003,-4.12515 0.0661,-8.24964 0.12012,-12.37439 0.0723,-3.90361 0.12389,-7.81218 0.48047,-11.70285 0.20901,-3.33993 0.0698,-6.6911 0.0311,-10.03502 -0.0905,-2.84617 -0.16852,-5.7065 -0.61612,-8.52366 0,0 9.37208,-4.94406 9.37208,-4.94406 z"
       inkscape:connector-curvature="0" />
    <path
       style="fill:#ffff00;fill-opacity:0.70588235;stroke:none"
       id="path4568"
       d="m 224.53641,510.1022 c -1.26961,3.625 -1.62778,7.50101 -1.76588,11.31592 0.0966,4.99987 1.33081,8.36316 4.12194,12.43466 2.65283,3.61162 6.5298,5.65268 10.41128,7.65423 1.61024,0.97201 3.47755,1.35263 5.18424,2.08611 1.49542,0.64269 2.9522,1.49063 4.32061,2.36459 2.07944,1.60044 3.88195,3.60224 5.55156,5.62775 1.11459,1.88625 2.32231,3.76162 3.14777,5.80099 0.45014,1.11212 0.80045,2.26209 1.2077,3.39063 1.26562,3.25295 2.00355,6.65587 2.44379,10.10803 0.39461,3.67261 0.44329,7.36723 0.46745,11.05691 0.0455,3.24346 -0.22653,6.49107 -0.56724,9.71498 -0.43398,3.30772 -0.64684,6.63535 -0.75347,9.96784 -0.0237,2.86493 -0.74666,5.65505 -1.09974,8.48928 -0.34761,2.27342 -0.31967,4.53124 -0.076,6.80635 0.27561,2.32072 0.31356,4.66158 0.34794,6.99577 0.008,2.04658 0.007,0.99936 0.004,3.14164 0,0 -9.2592,4.7246 -9.2592,4.7246 l 0,0 c -0.0273,-2.1189 -0.0116,-1.08363 -0.0464,-3.10582 -0.0487,-2.29469 -0.10265,-4.59361 -0.37299,-6.8752 -0.26415,-2.3611 -0.30696,-4.70355 0.0464,-7.06485 0.18001,-1.45383 0.35943,-2.9067 0.61937,-4.34904 0.0284,-0.15784 0.47731,-2.38623 0.49552,-2.57024 0.0491,-0.4965 0.0236,-0.99757 0.0353,-1.49635 0.1525,-3.35427 0.33263,-6.71132 0.74883,-10.04505 0.34931,-3.19399 0.61317,-6.41349 0.65298,-9.62586 -0.0257,-3.65183 -0.0424,-7.31144 -0.40789,-10.94873 -0.42492,-3.37819 -1.15509,-6.70081 -2.34236,-9.90019 -0.40323,-1.09834 -0.74449,-2.21992 -1.18205,-3.30504 -0.78896,-1.95659 -1.95588,-3.74612 -3.06421,-5.52987 -1.63687,-1.91229 -3.35002,-3.84678 -5.35678,-5.36737 -2.96311,-1.83575 -6.23391,-2.91478 -9.34834,-4.4493 -4.01327,-2.09119 -7.94128,-4.36098 -10.68363,-8.08237 -2.84394,-4.17436 -4.19944,-7.91423 -4.42021,-13.00704 0.0767,-3.86636 0.47913,-7.72636 1.35413,-11.49951 0,0 9.58547,-4.45845 9.58547,-4.45845 z"
       inkscape:connector-curvature="0" />
    <path
       style="fill:#ffff00;fill-opacity:0.70588235;stroke:none"
       id="path4570"
       d="m 279.32791,511.40036 c 4.31571,0.19523 8.35404,1.60582 12.30348,3.25449 5.09648,1.89327 8.79819,4.90067 12.63395,8.62286 2.91704,2.87732 5.2215,5.72865 6.94979,9.45086 1.41137,3.7839 1.65438,7.83729 1.84968,11.83108 -0.0253,3.98381 0.72954,7.8967 1.47661,11.79028 0.52544,3.23786 2.28993,5.8396 4.13958,8.44799 2.21523,2.89684 4.75744,5.57586 7.47158,8.0133 1.37839,1.11545 2.38372,2.59679 3.61485,3.85251 0.27428,0.27975 0.5813,0.52541 0.87196,0.78811 0.30403,0.31947 0.60805,0.63893 0.91208,0.95839 2.16674,1.96216 4.11554,4.17521 6.02064,6.39169 1.74267,2.29917 2.98137,4.90414 4.31718,7.44496 1.33293,2.59585 2.82017,5.10811 4.11636,7.72273 1.31329,1.80497 2.37803,3.75361 3.53161,5.65919 0.95519,1.29164 0.48206,0.6237 1.41615,2.00612 0,0 -9.02788,5.30129 -9.02788,5.30129 l 0,0 c -0.93623,-1.36735 -0.45131,-0.68712 -1.45605,-2.03975 -1.1939,-1.92028 -2.27728,-3.89781 -3.56257,-5.76092 -1.24334,-2.62536 -2.71923,-5.13129 -4.05415,-7.70967 -1.33917,-2.4545 -2.53115,-4.99587 -4.2128,-7.24725 -1.87671,-2.21845 -3.86134,-4.36446 -6.01571,-6.31634 -1.81168,-1.83045 -3.51804,-3.7493 -5.3421,-5.56653 -2.69199,-2.55315 -5.17508,-5.34524 -7.51248,-8.22272 -2.02895,-2.68128 -3.78726,-5.46893 -4.40252,-8.84167 -0.66047,-3.95797 -1.45811,-7.92229 -1.45808,-11.95182 -0.17748,-3.8599 -0.37603,-7.78939 -1.75458,-11.44321 -1.56133,-3.62966 -3.85907,-6.39758 -6.635,-9.1866 -3.58989,-3.54908 -7.53194,-6.61028 -12.34574,-8.33431 -3.97505,-1.56236 -8.06705,-2.83749 -12.39229,-2.7057 0,0 8.54645,-6.20936 8.54645,-6.20936 z"
       inkscape:connector-curvature="0" />
    <path
       style="fill:#ffff00;fill-opacity:0.70588235;stroke:none"
       id="path4572"
       d="m 334.86305,477.39469 c 1.65215,3.05009 4.02621,5.6518 6.40643,8.14651 3.27016,3.20829 7.17972,5.59924 10.91491,8.20416 0.59244,0.33579 1.19107,0.66089 1.77731,1.00739 1.83804,1.08638 3.64125,2.13424 5.61926,2.9606 0.27044,0.11298 3.79021,1.40428 3.99867,1.48097 2.92887,1.06489 5.79027,2.3048 8.81218,3.09951 2.29992,0.60484 3.1844,0.70003 5.54859,1.10226 4.8173,0.56181 9.71604,0.79005 14.32492,2.41533 1.27537,0.82723 2.62495,1.56327 3.56131,2.80197 0.91266,1.20737 1.64247,2.68858 2.339,4.02579 1.36802,3.42717 2.28212,7.02487 3.18455,10.59869 0.5883,3.45781 1.32803,6.86236 2.2954,10.23339 0.6159,2.64865 1.61768,5.1466 2.85035,7.56368 0.91538,1.4657 1.60584,3.0736 2.80993,4.3434 0.74823,0.78906 1.61076,1.40826 2.46326,2.07598 2.29746,2.09189 5.26739,2.99489 8.00782,4.31677 2.10535,0.74109 3.98512,1.95705 6.09937,2.66788 2.05827,0.3803 3.9383,1.24194 5.70946,2.33189 2.35024,1.27993 4.85961,2.23699 7.47445,2.80001 0,0 -8.61268,5.95461 -8.61268,5.95461 l 0,0 c -2.66299,-0.69456 -5.22248,-1.73784 -7.63874,-3.05736 -1.79024,-0.97198 -3.69126,-1.63517 -5.66184,-2.14583 -2.07485,-0.82777 -4.00149,-1.9799 -6.08448,-2.79486 -2.80098,-1.32457 -5.7415,-2.41147 -8.06575,-4.54768 -1.05147,-0.81643 -1.73592,-1.27925 -2.64353,-2.2386 -1.25548,-1.32705 -2.00246,-2.97689 -2.93803,-4.52073 -1.2883,-2.47196 -2.30702,-5.04231 -2.88961,-7.77568 -0.97683,-3.38586 -1.72602,-6.80582 -2.2873,-10.28587 -0.82566,-3.50397 -1.78684,-7.00119 -3.10425,-10.35286 -1.51507,-2.85426 -2.46547,-4.66886 -5.47218,-6.17162 -4.53078,-1.53654 -9.31069,-1.83107 -14.02875,-2.41885 -2.43802,-0.43426 -3.29641,-0.53469 -5.67411,-1.16224 -3.04844,-0.80459 -5.94469,-2.04516 -8.90465,-3.11072 -4.05833,-1.47719 -7.9588,-3.24996 -11.5613,-5.66143 -3.76598,-2.65897 -7.67822,-5.14404 -10.97962,-8.39673 -2.49391,-2.56501 -4.92193,-5.22537 -6.8638,-8.24374 0,0 9.21345,-5.24599 9.21345,-5.24599 z"
       inkscape:connector-curvature="0" />
    <path
       style="fill:#ffff00;fill-opacity:0.70588235;stroke:none"
       id="path4574"
       d="m 362.77554,439.16862 c 3.02363,2.76561 6.50861,4.99582 9.89039,7.29561 3.80049,2.66729 7.75676,5.06761 12.03043,6.8904 3.36174,1.58766 6.91326,2.67386 10.56402,3.33743 3.14569,0.49712 6.34073,0.48968 9.51684,0.51053 4.12792,0.35799 8.19093,1.09379 12.2045,2.10014 3.45752,0.94194 6.26739,3.23169 8.90973,5.55654 3.21023,3.09377 6.54575,6.0574 9.80177,9.10544 3.46501,3.26991 6.49732,6.93761 9.96291,10.20532 3.26265,3.22222 7.11786,5.65761 11.14573,7.7922 2.24076,1.1644 4.67171,1.51703 7.15594,1.63221 0.0648,-0.008 1.82848,-0.22811 1.84683,-0.23365 0.34778,-0.10491 0.65725,-0.3096 0.98588,-0.46441 -2.58341,1.43674 -5.11269,2.97547 -7.75024,4.31022 -0.55944,0.28311 1.01964,-0.73298 1.49327,-1.14383 0.52192,-0.45274 0.99226,-0.96174 1.48838,-1.44261 2.58635,-2.82993 4.69751,-6.05622 6.99237,-9.12475 1.85488,-2.12899 3.09372,-4.66602 4.45137,-7.11581 2.65209,-3.79323 6.60383,-4.75 11.12361,-7.23948 0.48277,-0.26591 1.41257,-0.23105 1.91438,-0.3578 0.29596,-0.0748 0.56792,-0.22404 0.85188,-0.33606 1.10867,-0.42658 0.53966,-0.23677 1.70817,-0.566 0,0 -8.33372,6.4457 -8.33372,6.4457 l 0,0 c -1.14041,0.38565 -0.57407,0.19476 -1.69901,0.57272 -0.17794,0.045 -1.66758,0.41784 -1.84031,0.4771 -0.28101,0.0964 -1.0723,0.50704 -0.81874,0.3522 15.11676,-9.23115 9.22985,-6.10629 6.67795,-3.60689 -1.50481,2.42027 -2.56257,5.13983 -4.51046,7.26372 -1.03618,1.40791 -2.13569,2.77 -3.16865,4.17913 -0.10935,0.14917 -2.36365,3.40532 -2.39821,3.44977 -0.4468,0.57466 -0.95463,1.09915 -1.43195,1.64872 -4.1513,4.51863 -9.77867,9.12955 -16.12349,9.0494 -2.56736,-0.22764 -5.04054,-0.78148 -7.29875,-2.09032 -3.98386,-2.31945 -7.86617,-4.82179 -11.16172,-8.08237 -3.48253,-3.25311 -6.51037,-6.93526 -10.00837,-10.17413 -3.25864,-3.03384 -6.54183,-6.03692 -9.82768,-9.03931 -2.59736,-2.17774 -5.31033,-4.28096 -8.65001,-5.1559 -3.95688,-1.01048 -7.99736,-1.67181 -12.08037,-1.88404 -3.2262,-0.0309 -6.48203,0.009 -9.65709,-0.65025 -3.66674,-0.79005 -7.23611,-1.95856 -10.62859,-3.57174 -4.24645,-1.96427 -8.22965,-4.38473 -12.03429,-7.10982 -3.43829,-2.36195 -6.98002,-4.58281 -10.27708,-7.14325 0,0 8.98238,-5.64208 8.98238,-5.64208 z"
       inkscape:connector-curvature="0" />
    <path
       style="fill:#ffff00;fill-opacity:0.70588235;stroke:none"
       id="path4576"
       d="m 349.32791,410.68607 c 5.46728,0.26714 10.9187,0.0677 16.37706,-0.25614 7.95585,-0.43785 15.91107,-0.91084 23.81927,-1.90088 3.14433,-0.55901 6.39445,-0.83091 9.38757,-2.03615 0.54061,-0.21769 2.56136,-1.30797 3.06321,-1.57437 5.12859,-2.9829 -3.16854,1.85245 -5.3188,2.9707 -0.73893,0.38428 1.39103,-0.91649 2.07975,-1.38482 2.36576,-1.60871 4.76367,-3.15816 7.14487,-4.74443 2.06226,-1.47737 4.19224,-2.85508 6.28443,-4.28886 0.21545,-0.14764 2.866,-1.99055 3.2055,-2.18537 3.49649,-2.00641 7.03499,-3.93872 10.55248,-5.90807 4.65626,-1.83187 9.54242,-2.90703 14.41474,-3.98361 5.20964,-1.00688 10.46112,-1.90058 15.76715,-2.15871 4.01084,-0.016 7.83149,1.07135 11.5579,2.44999 4.17286,1.74951 8.26815,3.71602 12.57294,5.12396 3.9266,1.20407 7.8967,2.23914 11.95581,2.8836 3.75369,0.52662 7.5955,0.64371 11.32779,-0.14353 0.73912,-0.15591 1.44984,-0.42473 2.17476,-0.63709 3.43439,-1.39068 10.74179,-5.25618 -4.15196,2.75987 -0.36814,0.19814 0.69377,-0.47068 1.00748,-0.74702 0.72602,-0.63952 0.79157,-0.86275 1.28589,-1.64912 1.05789,-2.70812 0.89721,-5.73312 0.8974,-8.59598 -0.004,-0.52622 -0.008,-1.05245 -0.0114,-1.57868 0,0 9.26822,-4.72832 9.26822,-4.72832 l 0,0 c 0.002,0.52995 0.003,1.0599 0.005,1.58985 -0.009,3.00148 0.15039,6.0758 -0.57297,9.01057 -0.51283,1.10709 -1.06542,2.28029 -2.16481,2.94565 -4.71463,2.85335 -8.68489,5.59456 -13.71313,7.23991 -4.5528,1.0544 -9.16827,1.26618 -13.79089,0.45291 -4.08211,-0.72378 -8.10806,-1.73918 -12.05105,-3.02013 -4.26944,-1.50871 -8.34141,-3.51266 -12.56782,-5.13659 -3.69296,-1.20829 -7.41824,-2.29238 -11.35326,-2.10987 -5.22539,0.25393 -10.39234,1.14249 -15.51194,2.18972 -4.89697,1.13047 -9.82069,2.26328 -14.44121,4.29186 16.41078,-9.83717 0.65456,-0.30485 -2.49674,2.22968 -9.28098,6.33598 4.53487,-3.03953 -4.86416,3.15124 -1.03142,0.67935 -3.14023,2.28914 -4.23566,2.9536 -8.10156,4.91425 -7.55091,4.58884 -12.34977,7.24394 -1.18672,0.58577 -1.9195,0.99789 -3.17593,1.41944 -2.98329,1.00093 -6.15686,1.22964 -9.24455,1.70653 -7.90796,0.849 -15.84798,1.28371 -23.78305,1.8067 -5.62987,0.3617 -11.25548,0.51418 -16.89636,0.55738 0,0 8.54645,-6.20936 8.54645,-6.20936 z"
       inkscape:connector-curvature="0" />
    <path
       style="fill:#ffff00;fill-opacity:0.70588235;stroke:none"
       id="path4578"
       d="m 333.5267,383.05144 c 3.01501,-3.7878 6.52392,-7.14259 9.97481,-10.52544 2.82838,-2.65024 5.6112,-5.38608 8.63562,-7.81821 1.77735,-1.42928 3.12935,-2.30248 5.01434,-3.59518 9.3112,-6.10783 19.0178,-10.4398 29.30382,-14.39311 7.02366,-2.90475 14.36916,-4.90166 21.61422,-7.15808 7.76916,-2.06385 15.37207,-4.6872 22.96554,-7.31071 6.60131,-2.08868 13.28221,-3.9542 20.07965,-5.28276 3.49937,-0.57876 6.90695,-1.59061 10.37783,-2.3058 10.02437,-2.06557 -4.7906,1.16091 5.32824,-1.06731 3.28026,-0.79519 6.60891,-1.66122 9.62106,-3.2291 0.58076,-0.3023 2.26415,-1.31573 1.69047,-1.00018 -2.46948,1.35833 -4.91904,2.75259 -7.37855,4.12888 3.04535,-2.15229 5.1296,-5.27314 7.32878,-8.2174 2.63525,-3.39507 3.93642,-7.41276 4.94122,-11.52368 0.32801,-1.52748 0.9212,-2.93563 1.61846,-4.32141 0,0 9.53991,-4.25314 9.53991,-4.25314 l 0,0 c -0.82795,1.28116 -1.43836,2.60458 -1.82918,4.09211 -0.97578,4.22235 -2.27418,8.3887 -4.84957,11.94201 -2.19955,2.96842 -4.15354,6.18847 -7.10259,8.48841 -3.98431,2.37838 -7.79659,5.09494 -12.01034,7.03805 -3.07552,1.41823 -6.38767,2.25308 -9.67404,3.01171 -5.2276,1.11161 -10.4423,2.28475 -15.68227,3.33321 -6.69951,1.35083 -13.30748,3.15042 -19.81123,5.24718 -7.63147,2.60766 -15.26013,5.23901 -23.05129,7.33938 -7.21422,2.23027 -14.50205,4.27979 -21.49621,7.15468 -3.8043,1.49916 -7.58331,3.05036 -11.31292,4.72905 -1.1348,0.51077 -4.3192,2.39835 -3.38351,1.57791 1.60388,-1.40633 3.65767,-2.19865 5.43561,-3.37725 0.91922,-0.60935 -1.90483,1.11204 -2.85724,1.66806 -1.283,0.86183 -3.78957,2.51083 -5.0234,3.47491 -3.05291,2.38545 -5.80324,5.16473 -8.67316,7.75767 -3.3184,3.30459 -6.77985,6.50611 -9.6479,10.2214 0,0 -9.68618,4.17414 -9.68618,4.17414 z"
       inkscape:connector-curvature="0" />
    <path
       style="fill:#ffff00;fill-opacity:0.70588235;stroke:none"
       id="path4580"
       d="m 306.13,313.93705 c 0.32126,-0.16775 0.6273,-0.36864 0.9638,-0.50326 0.52229,-0.20895 1.07672,-0.32853 1.60416,-0.52411 4.3531,-1.61413 -0.5248,0.006 4.4302,-1.71559 1.74316,-0.60572 3.50445,-1.15839 5.24798,-1.76304 0.8094,-0.3095 1.61414,-0.63149 2.4282,-0.92849 2.56466,-0.93571 1.96282,-0.59675 4.40547,-1.63407 1.91096,-0.81153 3.70121,-1.80979 5.50565,-2.82977 3.00633,-1.52288 11.01714,-5.81563 -2.46671,1.55655 -0.76971,0.42083 1.51189,-0.89053 2.25688,-1.35373 2.23886,-1.39201 2.24156,-1.44571 4.40136,-2.98538 0.72304,-0.56566 1.46788,-1.10451 2.16912,-1.69699 1.63471,-1.38118 2.86002,-2.66299 4.41843,-4.1364 2.44488,-2.31153 4.9005,-4.57516 7.25445,-6.98109 2.93636,-3.09743 6.22717,-5.88984 8.90059,-9.23422 1.52035,-1.90192 1.85294,-2.64824 3.06018,-4.72693 1.79407,-2.93848 2.82371,-6.22979 4.23719,-9.34365 1.00265,-2.2088 1.20199,-2.41903 2.44022,-4.52452 3.29268,-5.10662 7.87577,-9.17206 12.72153,-12.75728 4.25424,-2.80814 8.38639,-5.84524 12.84415,-8.33443 3.73011,-2.08286 7.48763,-4.11625 11.23144,-6.17437 4.41412,-2.03512 9.04715,-3.48807 13.50464,-5.42047 0.65503,-0.26605 1.30186,-0.55326 1.9651,-0.79815 1.91161,-0.70582 3.82389,-1.35124 5.68563,-2.19417 2.56155,-1.15977 9.97801,-5.57903 -6.03471,3.55266 3.24668,-2.32916 3.17688,-4.38301 2.42254,-8.02871 -0.20041,-0.68473 -0.36493,-1.381 -0.60123,-2.05419 -0.0994,-0.28311 -1.5048,-3.61153 -1.61581,-3.87916 -0.76741,-1.85011 -1.46318,-3.70867 -2.10836,-5.60436 -0.47721,-1.45269 -0.77117,-2.94665 -1.02882,-4.44959 0,0 9.23264,-4.88747 9.23264,-4.88747 l 0,0 c 0.20975,1.46447 0.44207,2.92544 0.87356,4.34542 1.23647,3.96513 3.06428,7.68856 4.33771,11.6357 0.96723,3.83184 1.35332,6.29681 -1.79839,9.19045 -3.42762,1.96451 -6.83191,3.9703 -10.28286,5.89353 -2.85933,1.59353 -6.17377,2.24069 -9.11469,3.64948 -4.4465,1.84727 -9.03952,3.31852 -13.3958,5.38432 2.07152,-1.27121 4.16146,-2.51287 6.21456,-3.81361 0.79347,-0.50271 -1.631,0.93261 -2.43467,1.41885 -3.58447,2.16872 -7.0356,4.54191 -10.52444,6.85811 -4.83674,3.44189 -9.40177,7.38368 -12.75884,12.33225 -1.2043,1.94972 -1.51028,2.32016 -2.48192,4.3832 -1.47484,3.13144 -2.43351,6.49874 -4.24544,9.47706 -1.05915,1.91678 -1.66673,3.18256 -3.01468,4.93612 -2.62506,3.41496 -5.98859,6.1899 -8.93846,9.30183 -2.32783,2.42572 -4.77026,4.67573 -7.20371,6.9917 -0.77254,0.73525 -3.48149,3.4642 -4.31688,4.20449 -0.68716,0.60895 -1.42707,1.15564 -2.1406,1.73346 -2.1462,1.59116 -4.29629,3.04527 -6.6008,4.39851 -4.98699,2.92843 -9.89523,5.99599 -15.0659,8.5927 -3.94644,2.1524 -8.09309,3.77276 -12.36099,5.18214 -4.24883,1.46162 -8.48456,2.95481 -12.60023,4.76717 0,0 8.37756,-6.5085 8.37756,-6.5085 z"
       inkscape:connector-curvature="0" />
    <path
       style="fill:#ffff00;fill-opacity:0.70588235;stroke:none"
       id="path4582"
       d="m 259.86399,296.72421 c 0.3652,-0.46304 0.70855,-0.94418 1.09561,-1.3891 2.05037,-2.35681 4.27284,-4.56972 6.34216,-6.91161 1.51323,-1.71255 3.57739,-4.16753 5.05317,-5.90951 3.04994,-3.55583 6.10375,-7.13896 8.69713,-11.05091 1.23741,-1.86654 2.00134,-3.30405 3.09572,-5.24758 1.64433,-3.27081 3.43061,-6.5063 4.65647,-9.968 0.76601,-2.16313 0.83932,-2.77961 1.34624,-5.00233 0.47349,-5.65375 -1.13399,-8.60916 -4.30243,-13.02546 -2.10053,-2.74505 -4.72676,-4.88403 -7.44678,-6.96523 -2.23113,-1.54825 -2.95537,-3.73777 -3.8749,-6.15281 -0.9266,-2.81635 -1.19339,-5.76074 -0.81593,-8.69151 0.535,-2.88838 2.04576,-5.3277 3.592,-7.76218 1.72504,-2.64693 3.28134,-5.411 4.75376,-8.2061 0.18177,-0.41494 0.36353,-0.82988 0.54529,-1.24482 0,0 9.48633,-4.36682 9.48633,-4.36682 l 0,0 c -0.17693,0.43751 -0.35387,0.87503 -0.5308,1.31255 -1.36047,2.87501 -3.10264,5.58487 -4.73849,8.30598 -1.44412,2.36952 -3.0804,4.61493 -3.72351,7.37368 -0.57326,2.73947 -0.27136,5.5329 0.58178,8.19224 0.81664,2.17615 1.55554,4.29113 3.56471,5.66317 2.77613,2.14433 5.28318,4.55181 7.44774,7.32523 0.83714,1.18711 1.94476,2.68303 2.62984,3.96382 1.62966,3.04671 2.24559,6.40984 2.02324,9.84306 -0.43296,2.0363 -0.6129,3.16694 -1.27964,5.15068 -1.18582,3.52809 -3.04009,6.79578 -4.67126,10.12453 -0.84469,1.51821 -2.14432,3.91411 -3.08706,5.36174 -2.58916,3.97577 -5.70577,7.5889 -8.78658,11.18177 -3.08552,3.65582 -6.14209,7.34229 -9.36554,10.87875 -0.53611,0.58816 -1.13317,1.12018 -1.6522,1.72346 -0.34632,0.40252 -0.62547,0.85825 -0.93821,1.28737 0,0 -9.69786,4.20594 -9.69786,4.20594 z"
       inkscape:connector-curvature="0" />
    <path
       style="fill:#ffff00;fill-opacity:0.70588235;stroke:none"
       id="path4584"
       d="m 195.78619,301.75833 c -2.83505,-1.20532 -5.34627,-2.93996 -7.32295,-5.32771 -0.54521,-0.65859 -1.00131,-1.38613 -1.50197,-2.07919 -2.6144,-4.72171 -4.70273,-9.72042 -6.22297,-14.89474 -0.89555,-4.40786 -2.11695,-8.73337 -3.17303,-13.1037 -0.96776,-3.84029 -2.3181,-7.34677 -4.45286,-10.68578 -2.92258,-4.35568 -7.09102,-7.50435 -11.12626,-10.7435 -3.92002,-2.9329 -7.89383,-5.83563 -11.43409,-9.22695 -2.52789,-2.32636 -4.79852,-4.90004 -7.38385,-7.17098 -2.22707,-2.18424 -4.85986,-3.81773 -7.55334,-5.35472 -3.43843,-2.0613 -6.95964,-3.97227 -10.48619,-5.87687 -4.32091,-2.20569 -8.9854,-3.51659 -13.57378,-5.01529 -2.56279,-1.03683 -5.37076,-1.28925 -7.97249,-2.17767 -0.77924,-0.26609 -1.88824,-0.84236 -2.62654,-1.20668 -2.43434,-1.71403 -4.393704,-3.95111 -6.125038,-6.35308 0,0 8.978058,-5.30439 8.978058,-5.30439 l 0,0 c 1.62887,2.26504 3.50327,4.37393 5.85982,5.90518 3.30593,1.54514 6.88388,2.21494 10.32694,3.39852 4.65704,1.4902 9.37892,2.85276 13.73484,5.12794 3.55806,1.88754 7.1039,3.79636 10.56894,5.85156 2.77482,1.55579 5.45033,3.26355 7.72567,5.51145 2.53717,2.32138 4.81347,4.89158 7.29484,7.26578 3.51307,3.36131 7.39363,6.30524 11.28437,9.21303 4.13273,3.29642 8.33997,6.58238 11.39556,10.96759 2.23353,3.44166 3.67775,6.98361 4.66014,10.96859 1.03502,4.37175 2.15757,8.71994 3.02508,13.12913 1.44453,5.06885 3.49961,9.96082 6.07456,14.56291 2.37122,3.13642 4.72588,5.58253 8.68656,6.51354 0,0 -8.66002,6.10603 -8.66002,6.10603 z"
       inkscape:connector-curvature="0" />
  </g>
  <g
     inkscape:label="Layer 1"
     inkscape:groupmode="layer"
     id="layer1">
    <g
       id="g4541">
      <path
         transform="matrix(0.84569411,0,0,0.61012639,35.469596,82.731361)"
         d="m 525.71428,372.36218 a 154.28572,160 0 1 1 -308.57144,0 154.28572,160 0 1 1 308.57144,0 z"
         sodipodi:ry="160"
         sodipodi:rx="154.28572"
         sodipodi:cy="372.36218"
         sodipodi:cx="371.42856"
         id="path3890"
         style="fill:#ffe6d5;stroke:none;stroke-opacity:1"
         sodipodi:type="arc" />
      <path
         d="m 334.28572,290.93362 a 28.571428,30 0 1 1 -57.14285,0 28.571428,30 0 1 1 57.14285,0 z"
         sodipodi:ry="30"
         sodipodi:rx="28.571428"
         sodipodi:cy="290.93362"
         sodipodi:cx="305.71429"
         id="path4400"
         style="fill:#ffffff;stroke:none"
         sodipodi:type="arc" />
      <path
         d="m 334.28572,290.93362 a 28.571428,30 0 1 1 -57.14285,0 28.571428,30 0 1 1 57.14285,0 z"
         sodipodi:ry="30"
         sodipodi:rx="28.571428"
         sodipodi:cy="290.93362"
         sodipodi:cx="305.71429"
         id="path4400-7"
         style="fill:#ffffff;stroke:none"
         sodipodi:type="arc"
         transform="translate(84.999992,-1.430079e-5)" />
      <path
         d="m 312.85716,293.79074 a 6.7857141,7.1428571 0 1 1 -13.57143,0 6.7857141,7.1428571 0 1 1 13.57143,0 z"
         sodipodi:ry="7.1428571"
         sodipodi:rx="6.7857141"
         sodipodi:cy="293.79074"
         sodipodi:cx="306.07144"
         id="path4432"
         style="fill:#000000;stroke:none"
         sodipodi:type="arc" />
      <path
         d="m 312.85716,293.79074 a 6.7857141,7.1428571 0 1 1 -13.57143,0 6.7857141,7.1428571 0 1 1 13.57143,0 z"
         sodipodi:ry="7.1428571"
         sodipodi:rx="6.7857141"
         sodipodi:cy="293.79074"
         sodipodi:cx="306.07144"
         id="path4432-4"
         style="fill:#000000;stroke:none"
         sodipodi:type="arc"
         transform="translate(83.928558,-1.428559)" />
      <path
         sodipodi:nodetypes="ccsc"
         inkscape:connector-curvature="0"
         id="path4454"
         d="m 292,350.21932 c 0.71429,0 111.42857,0 111.42857,0 0,0 -10.49162,23.74273 -56.42857,22.85714 -42.20676,-0.81367 -55,-22.85714 -55,-22.85714 z"
         style="fill:#ffffff;stroke:none;stroke-width:1px;stroke-linecap:butt;stroke-linejoin:miter;stroke-opacity:1" />
      <path
         inkscape:connector-curvature="0"
         id="path4458"
         d="m 288.03371,565.34722 -7.59142,-0.22872 -0.43915,-20.15529 c -0.24153,-11.08541 -0.64213,-33.90983 -0.89021,-50.72094 -0.24809,-16.8111 -0.69532,-30.47182 -0.99386,-30.35714 -0.29853,0.11468 -8.16662,8.16135 -17.48463,17.88148 -11.12898,11.60927 -17.24541,17.4911 -17.82659,17.14286 -3.89825,-2.33578 -29.67194,-21.26557 -29.52007,-21.68136 0.10697,-0.29288 14.17663,-15.69349 31.26592,-34.22358 17.08928,-18.53011 31.59954,-34.36217 32.24502,-35.18237 l 1.17359,-1.49127 7.75498,1.55107 c 37.65759,7.53187 79.03149,7.66856 119.5407,0.39494 5.69642,-1.02282 11.20329,-2.01164 12.23747,-2.19737 1.67283,-0.30042 5.24335,2.95389 32.35695,29.49146 24.61593,24.09293 30.29811,29.99886 29.54825,30.71173 -2.42072,2.30131 -28.59857,23.94099 -28.72676,23.74671 -0.0804,-0.12183 -6.71576,-7.44473 -14.74531,-16.27311 -13.09441,-14.39713 -14.62221,-15.85385 -14.82268,-14.13313 -0.22082,1.89537 3.77768,93.15567 4.45994,101.79187 l 0.35267,4.46429 -65.1517,-0.1517 c -35.83343,-0.0834 -68.56783,-0.25463 -72.74311,-0.38043 l 0,0 z"
         style="fill:#ff0000;fill-opacity:0.79215686;stroke:none" />
      <path
         transform="matrix(0.97655709,0.99789112,-0.90096903,1.0816106,459.81462,-258.91832)"
         d="m 220.71429,513.07648 a 5.3571429,20 0 1 1 -10.71429,0 5.3571429,20 0 1 1 10.71429,0 z"
         sodipodi:ry="20"
         sodipodi:rx="5.3571429"
         sodipodi:cy="513.07648"
         sodipodi:cx="215.35715"
         id="path4460"
         style="fill:#ffe6d5;fill-opacity:1;stroke:none"
         sodipodi:type="arc" />
      <path
         transform="matrix(1.1242297,-0.82798433,0.94551812,1.0428913,-240.51971,145.87726)"
         d="m 220.71429,513.07648 a 5.3571429,20 0 1 1 -10.71429,0 5.3571429,20 0 1 1 10.71429,0 z"
         sodipodi:ry="20"
         sodipodi:rx="5.3571429"
         sodipodi:cy="513.07648"
         sodipodi:cx="215.35715"
         id="path4460-0"
         style="fill:#ffe6d5;fill-opacity:1;stroke:none"
         sodipodi:type="arc" />
      <path
         inkscape:connector-curvature="0"
         id="path4515"
         d="m 392.06635,643.11179 -22.84451,-0.77185 -4.71621,-19.82261 c -2.59392,-10.90244 -4.8597,-19.96611 -5.03508,-20.14148 -0.17537,-0.17538 -3.15822,8.21968 -6.62857,18.65569 l -6.30972,18.97455 -32.59642,-0.52178 c -17.92803,-0.28698 -32.87437,-0.68755 -33.21408,-0.89016 -0.63024,-0.37588 -0.0536,-51.81647 0.70863,-63.21849 l 0.41783,-6.25 72.06703,0 c 61.62644,0 72.06703,0.14628 72.06703,1.00973 0,0.55536 1.92857,16.94939 4.28571,36.43118 2.35714,19.48179 4.28571,35.90241 4.28571,36.49027 0,1.26688 -6.37365,1.27513 -42.48735,0.0549 l 0,2e-5 z"
         style="fill:#0000ff;fill-opacity:1;stroke:none" />
      <path
         transform="matrix(1.2149853,0.07158621,-0.09546095,1.0919282,-8.0010166,-81.248353)"
         d="m 320,682.7193 a 12.857142,33.92857 0 1 1 -25.71429,0 12.857142,33.92857 0 1 1 25.71429,0 z"
         sodipodi:ry="33.92857"
         sodipodi:rx="12.857142"
         sodipodi:cy="682.7193"
         sodipodi:cx="307.14285"
         id="path4517"
         style="fill:#ffe6d5;fill-opacity:1;stroke:none"
         sodipodi:type="arc" />
      <path
         d="m 320,682.7193 a 12.857142,33.92857 0 1 1 -25.71429,0 12.857142,33.92857 0 1 1 25.71429,0 z"
         sodipodi:ry="33.92857"
         sodipodi:rx="12.857142"
         sodipodi:cy="682.7193"
         sodipodi:cx="307.14285"
         id="path4517-8"
         style="fill:#ffe6d5;fill-opacity:1;stroke:none"
         sodipodi:type="arc"
         transform="matrix(1.1802068,-0.10637337,0.13689126,1.078059,-42.021811,-14.406255)" />
      <path
         inkscape:connector-curvature="0"
         d="m 246.2683,251.95923 c 2.10514,-0.42262 3.85413,-1.7594 5.80972,-2.58747 -2.74873,1.5607 -5.49122,3.13246 -8.24621,4.68209 -0.27113,0.1525 0.52428,-0.33546 0.79404,-0.49038 3.26829,-1.87699 6.5261,-3.77286 9.81969,-5.6051 2.79883,-1.557 -11.15487,6.29851 -8.33532,4.77934 0.4107,-0.22129 23.44161,-13.33455 1.42355,-0.80063 1.24377,-0.859 2.4153,-1.79959 3.35108,-2.98984 0.92869,-1.24088 1.80716,-2.4997 2.59987,-3.83154 0.85402,-1.27058 1.81709,-2.48038 2.90736,-3.55705 0.94956,-1.23154 2.19412,-2.09359 3.40977,-3.02645 4.33531,-2.54791 8.68665,-5.94629 13.79485,-6.86392 0.31102,-0.0333 0.62051,-0.1122 0.93305,-0.0998 1.04163,0.0415 3.35691,0.74155 4.28716,1.21322 1.59533,0.56807 2.69459,1.84916 4.08596,2.73043 0.66319,0.49184 1.58058,1.07451 1.48628,2.04846 -0.0217,0.22412 -0.48484,0.75142 -0.59511,0.88991 -0.0679,0.0636 -0.89939,0.84343 -0.91936,0.85531 -3.19767,1.90157 -6.50073,3.62515 -9.66572,5.58064 -2.76014,1.70535 5.62149,-3.24148 8.45056,-4.82986 0.23589,-0.13244 -0.43433,0.32468 -0.66828,0.46052 -3.24206,1.88235 -6.505,3.7285 -9.7575,5.59275 19.57218,-11.23 1.96326,-1.10851 -1.38786,0.73369 -0.67573,0.37147 -0.92916,0.17538 -1.65265,0.42949 -0.52786,0.1854 -0.99304,0.51587 -1.49528,0.7624 -1.36875,0.46975 -0.32116,0.0659 -1.57234,0.66382 -0.23724,0.11337 -0.94878,0.45116 -0.72118,0.31951 14.38395,-8.3203 10.2802,-5.93276 7.11487,-3.8895 -1.2972,0.72594 -2.27275,1.88835 -3.29048,2.95044 -1.03471,1.28177 -1.24417,2.87362 -1.15886,4.46634 0.27779,1.69733 0.7557,2.27957 2.36933,2.80101 2.09001,0.44176 4.21184,0.41659 6.31556,0.13227 0.31449,-0.1199 0.62957,-0.23826 0.94347,-0.3597 1.70112,-0.6581 0.2307,-0.0412 1.74859,-0.84526 0.27461,-0.14545 1.11227,-0.55307 0.84323,-0.39756 -9.16563,5.29787 -10.7934,6.51252 -7.58915,4.19703 1.33177,-0.84931 2.63951,-1.60981 3.67669,-2.81385 0.94463,-1.20384 2.00678,-2.31703 2.95045,-3.51884 0.87502,-1.39304 1.41506,-2.91745 1.71803,-4.5246 0.50479,-1.739 1.11746,-3.41508 1.41297,-5.20957 0.23453,-1.80222 0.45119,-3.62404 0.8899,-5.38935 0.69466,-1.59701 1.04022,-3.29925 1.50791,-4.96726 0.50005,-1.71718 1.81001,-2.75715 3.19599,-3.75965 2.87633,1.72081 8.16688,-6.86453 12.742,-6.17382 0.70799,0.10688 0.94472,0.40278 1.47243,0.81967 1.10114,1.47549 1.29529,3.23666 0.86824,4.98366 -0.60916,1.38659 -1.70944,2.47024 -2.54025,3.728 -0.92076,1.31027 -1.99296,2.48593 -3.0982,3.63787 -1.12115,1.2417 -2.43388,2.26319 -3.23033,3.75358 -0.43212,1.30273 -1.08294,2.84315 0.30041,3.73118 1.00017,0.26674 2.14949,0.61337 3.19212,0.3495 0.58004,-0.14679 1.08982,-0.49439 1.63895,-0.73198 3.0348,-1.9998 8.04501,-4.43545 -6.74006,3.78672 -0.29506,0.16409 0.5584,-0.38101 0.82071,-0.59357 0.51347,-0.41611 1.03909,-0.96909 1.5031,-1.43458 1.51644,-1.49748 2.90409,-3.11321 3.8794,-5.01407 0.77701,-2.15561 1.83101,-4.18839 2.72962,-6.29187 0.70222,-1.72899 1.91349,-3.1634 2.63767,-4.87556 0.52098,-1.60276 1.72637,-2.68548 2.88682,-3.82435 4.24301,-3.2612 8.85622,-6.38496 14.19385,-7.13362 2.11974,-0.0182 3.61347,0.54889 4.80244,2.32969 0.9772,2.08793 1.15029,3.95015 0.51769,6.1608 -1.0317,2.5819 -3.32738,4.25102 -5.32338,6.06441 -1.89629,1.48988 -3.77363,2.93248 -5.10526,4.96811 -0.71901,1.62801 -1.49403,2.57714 0.7412,2.78471 0.48964,-0.17412 1.04453,-0.1237 1.53044,-0.31037 0.26708,-0.1026 0.48323,-0.30859 0.73965,-0.4355 3.76275,-1.86237 6.04531,-3.21628 -6.21182,3.70411 2.15748,-1.59159 4.35798,-3.14446 6.42159,-4.85779 1.79248,-1.43141 3.47027,-2.99382 5.04487,-4.66015 1.43888,-1.70393 3.06946,-3.22215 4.58677,-4.85388 1.89139,-1.81228 3.54834,-3.82069 5.26281,-5.79331 3.84594,-4.92033 9.01755,-6.92896 14.57308,-10.10482 1.76177,-1.04281 3.66388,-1.57117 5.68546,-1.17689 2.08945,1.42552 2.2129,4.10144 2.43427,6.40929 0.36163,2.74711 -0.711,5.09582 -2.21509,7.31194 -1.78008,2.03694 -4.06808,3.5005 -6.28419,5.0096 -2.03868,1.19785 -3.88694,2.67702 -5.60118,4.29879 -0.14245,0.42461 -2.189,1.70103 -0.67592,1.28425 -1.16634,0.74739 3.0459,-1.51876 1.879,-0.85605 -14.60174,8.29266 -9.69555,5.73578 -6.6333,3.58793 1.92049,-1.52362 4.0055,-2.82036 6.02066,-4.21386 4.00862,-2.75695 2.08023,-1.46957 10.98872,-6.43684 0.61417,-0.34245 1.31543,-0.5065 1.93775,-0.83389 1.98064,-1.04199 -0.14661,-0.0411 2.01701,-1.01939 2.68717,-1.02275 5.49592,-1.58194 8.26877,-2.32237 3.06026,-0.76219 6.19916,-1.00118 9.3372,-1.15452 1.77309,0.0417 3.86094,0.10218 4.91432,1.80013 0.20169,0.3251 0.31256,0.69842 0.46884,1.04763 0.98578,2.69281 -0.0207,4.97212 -1.53938,7.20112 -1.79531,2.3936 -4.10977,4.22321 -6.53491,5.92305 -0.8747,0.68172 -1.80985,1.27906 -2.66944,1.98068 -0.34206,0.2792 -0.61465,0.64879 -0.99249,0.87725 -3.07481,1.85909 -6.18297,3.66244 -9.27446,5.49366 -0.21442,-0.48534 -0.62939,-0.9256 -0.64328,-1.45601 -0.007,-0.25224 0.37553,-0.34245 0.59283,-0.4707 3.33258,-1.96684 6.68939,-3.89251 10.05022,-5.81066 1.87018,-1.06739 3.84203,-1.98964 5.77229,-2.94003 3.97463,-2.32027 8.41103,-3.65338 12.46011,-5.80316 2.7282,-1.26515 5.34714,-2.75439 8.08416,-4.00089 1.60581,-0.5089 3.02389,-1.46346 4.59238,-2.05693 1.64614,-0.62285 3.40897,-1.06864 5.107,-1.52608 3.22007,-0.78144 6.5278,-0.91064 9.82313,-1.01058 1.90026,0.10487 3.97436,-0.34215 5.82205,0.30955 0.84786,0.29905 1.05413,0.6045 1.67763,1.18554 1.77177,2.58424 0.5535,4.24342 -1.31224,6.28847 -4.5961,4.81047 -10.77766,7.61596 -16.46631,10.87797 -9.69459,5.54408 29.98103,-17.14499 -3.97356,2.27976 -2.56678,1.46841 5.11369,-2.97176 7.69382,-4.41659 0.37593,-0.21052 -0.73372,0.45405 -1.07868,0.7122 -0.31246,0.23383 -0.59321,0.50728 -0.88981,0.76092 -0.54873,0.70231 -1.83173,1.93679 -1.46498,2.99575 0.12197,0.3522 0.97288,0.92556 1.12184,1.04295 2.58843,1.49745 5.55938,1.85581 8.48392,2.10869 3.32272,0.17212 5.4432,-0.85377 8.36199,-2.19036 2.8184,-0.91486 5.36473,-2.41738 8.16876,-3.3657 2.60714,-0.92587 5.33942,-1.2225 8.08265,-1.36037 2.64563,-0.12346 5.28277,-0.22174 7.91374,0.11014 2.24673,0.47644 2.63727,2.49728 2.88862,4.47287 0.26302,2.90829 0.0649,5.79815 -0.72977,8.60412 -1.20613,3.10647 -3.37695,5.66466 -5.37261,8.28548 -1.57128,2.17373 -2.75549,3.50062 -2.15153,6.27226 1.18297,2.9092 4.12135,3.9383 6.90418,4.77645 2.99059,0.87324 6.04289,0.81221 9.10965,0.59973 3.3899,-1.2583 9.17283,-4.55254 -5.50079,3.41 -0.40787,0.22132 0.77978,-0.5051 1.14815,-0.78732 0.76433,-0.58558 1.2268,-1.07641 1.90765,-1.7426 3.49889,-2.65486 9.59288,-11.08456 12.89994,-6.48371 0.61615,1.75046 0.54267,3.68056 0.43683,5.51068 -0.44849,2.34585 -1.46518,4.52998 -2.51387,6.65875 -0.47105,0.99193 -1.04716,1.94824 -1.36766,3.00609 -0.077,0.25419 -0.26559,0.71485 -0.0129,0.79669 0.13064,0.0423 0.27447,0.01 0.41171,0.0147 3.07885,-1.80702 7.85498,-3.97826 -6.68772,3.744 -0.33761,0.17927 0.61117,-0.46033 0.89972,-0.71103 0.83997,-0.7298 1.04885,-1.0059 1.791,-1.82037 1.798,-2.24877 2.65898,-5.07315 3.53217,-7.77898 0.71903,-2.52686 1.01014,-5.16092 0.96258,-7.78271 -0.073,-2.16474 -0.46912,-4.27628 -1.63728,-6.12168 -1.36556,-1.60894 -3.13768,-2.69737 -5.09958,-3.41701 -2.26724,-1.24717 -4.80253,-1.68253 -7.34132,-1.95289 -2.89288,-0.23942 -5.79838,-0.22345 -8.69872,-0.23292 -2.82325,-0.0548 -5.62869,0.0105 -8.43819,0.2688 -2.47572,0.26242 -4.96193,0.39471 -7.44992,0.45696 -1.54175,-0.0454 -3.8026,0.48335 -4.86382,-1.01789 -0.22496,-0.31822 -0.32407,-0.70885 -0.4861,-1.06328 -0.0332,-0.45255 -0.13995,-0.90567 -0.0996,-1.35763 0.20516,-2.29968 2.08396,-5.47165 3.33593,-7.40026 1.57957,-2.14956 3.03188,-4.37568 4.44116,-6.63638 1.27917,-1.78177 1.71334,-3.88366 1.97748,-6.01457 0.29595,-2.21072 -0.47806,-2.89409 -2.50024,-3.38001 -3.20529,-0.5064 -6.31747,0.53004 -9.21819,1.79902 -3.86515,1.6642 -16.68365,9.17168 -0.81158,0.10261 -5.69305,3.61856 -11.41254,6.92811 -17.91533,8.6492 -2.44031,0.57306 -4.9444,0.63111 -7.43721,0.65508 -2.77636,0.0169 -5.55264,-0.0172 -8.32902,-0.0234 -1.52982,-0.0352 -3.10485,-0.42161 -3.98416,-1.79311 -0.17664,-0.27551 -0.36143,-0.5702 -0.40444,-0.89463 -0.0536,-0.40406 0.0831,-0.81095 0.12459,-1.21642 1.20338,-2.36745 3.22805,-4.26997 5.1075,-6.12174 1.57176,-1.48236 2.22193,-3.33474 2.5297,-5.41389 0.28772,-1.97311 0.16266,-3.62136 -0.6511,-5.43443 -1.25299,-1.94433 -3.32971,-2.58169 -5.48039,-3.01512 -2.14502,-0.1234 -4.47067,-0.75481 -6.62135,-0.31106 -0.44939,0.0927 -0.86805,0.29782 -1.30208,0.44674 -3.25932,1.37006 -9.86454,4.63664 4.26377,-2.71387 0.56272,-0.29276 -1.05522,0.70618 -1.556,1.09552 -1.43213,1.11343 -1.46361,1.25733 -2.65949,2.56864 -1.51792,2.14472 -3.20776,4.17433 -4.26349,6.59668 -1.11151,2.32506 -3.31656,3.86193 -5.41985,5.23813 -8.45252,5.42691 -8.59838,5.52615 -15.64672,6.95564 -2.79122,0.5687 -3.6341,-0.2997 -5.55665,-2.09894 -1.55639,-1.66233 -2.71333,-3.61586 -3.45935,-5.76194 -0.50474,-2.18243 -0.85906,-4.36411 -1.56215,-6.49612 -0.80369,-2.12873 -1.92293,-2.70524 -3.73526,-1.15628 14.34258,-8.55141 8.23184,-5.77649 6.09402,-2.02474 -0.46804,0.8214 -0.51777,1.06764 -0.844,1.95087 -0.40366,1.8676 -1.15048,3.61598 -2.09368,5.26799 -0.50916,0.79698 -1.13263,1.5369 -1.97013,2.00785 -6.35634,3.57434 -7.05406,5.23185 -11.96453,5.79543 -2.12334,0.34833 -3.88274,-0.66547 -5.53922,-1.86787 -1.99796,-1.80699 -3.26221,-4.11641 -4.60515,-6.4048 -0.9287,-1.16057 -1.54952,-2.57356 -2.67972,-3.57212 -0.4945,-0.4369 -1.05629,-0.79241 -1.55999,-1.21867 -2.12723,-1.69133 -3.05026,-1.58722 -5.28544,-0.0753 13.17903,-8.32376 7.76782,-4.69481 5.10711,-1.5525 -1.28703,1.51999 -2.42917,3.07882 -3.50034,4.75497 -1.36709,2.46586 -2.72482,4.93042 -3.99077,7.44982 -0.65159,1.05868 -1.40071,2.26584 -2.50346,2.9243 -9.74759,5.82043 -6.31079,4.79242 -11.2001,6.08846 -2.8917,0.61795 -5.73234,1.40098 -8.66636,1.8174 -3.17647,0.27373 -5.78442,-1.39566 -8.37458,-2.98579 -0.45708,-0.31523 -0.90815,-0.63938 -1.37126,-0.94569 -1.8587,-1.22938 -3.31721,-2.50968 -5.06315,-3.82179 -0.0572,-0.0285 -0.91241,-0.55859 -1.14676,-0.36267 -0.15552,0.13001 -0.34779,0.67635 -0.16698,0.58473 2.94881,-1.49413 5.64328,-3.47136 8.63583,-4.87582 0.30185,-0.14166 -0.21983,0.63156 -0.2879,0.95797 -0.0866,0.41541 -0.11654,0.84064 -0.17481,1.26097 -0.24103,2.81325 -0.21019,5.64029 -0.18459,8.46096 0.0228,2.31253 0.0326,4.62513 0.0465,6.93772 0.20641,2.0938 -0.4955,3.94979 -1.33168,5.81844 -3.31826,4.89601 -8.86526,6.89267 -14.39788,7.13998 -1.25216,0.0427 -2.55388,0.0848 -3.76699,-0.30107 -1.10673,-0.35201 -2.17143,-0.97267 -3.24779,-1.4134 -1.82767,-0.82534 -3.24405,-2.31179 -5.03115,-3.20523 -3.48729,-0.87426 -9.5418,3.91505 7.55077,-4.7809 0.20118,-0.10235 -0.36538,0.28479 -0.47621,0.48142 -0.29816,0.52901 -0.40475,1.42811 -0.50686,1.99491 -0.41788,2.5902 -0.0817,5.1932 0.14451,7.78183 -0.0379,1.9541 1.07155,3.66887 1.07525,5.60388 -0.27549,1.2061 -1.19394,2.02641 -2.23219,2.62243 -3.24223,1.86125 -6.49372,3.70633 -9.74059,5.5595 -1.78193,0.591 -3.68697,0.62684 -5.54696,0.67657 -1.19963,-0.22495 -2.53674,-0.11267 -3.68922,-0.5731 -0.60606,-0.24213 -1.14754,-0.6228 -1.73358,-0.91001 -0.9963,-1.07131 -2.38253,-1.68464 -3.44102,-2.67306 -0.0943,-0.088 -1.24436,-1.40496 -1.34028,-1.51441 -1.382,-1.76504 -1.97,-3.85284 -2.12904,-6.05345 0.20436,-2.30447 1.65073,-4.36841 3.66769,-5.50676 3.4613,-1.95352 6.97667,-3.80962 10.465,-5.71444 2.94538,-0.86233 5.87833,-1.7657 8.78517,-2.75245 2.21027,-0.75186 4.51833,-1.00118 6.83381,-1.13752 1.42572,-0.34 2.94826,-1.27656 4.46771,-1.071 0.30582,0.0414 0.58763,0.18875 0.88144,0.28313 2.13032,0.87408 3.05821,2.79806 3.61437,4.8986 0.56675,2.42163 0.40708,3.9706 -1.44557,5.69514 -3.46321,2.86496 -7.11781,4.56642 -11.33592,6.89349 -0.78879,0.43516 -2.43863,0.55505 -3.34559,0.77028 -2.27971,0.51368 -4.60954,0.67009 -6.93714,0.76621 -2.05714,0.17743 -3.68288,-0.67253 -4.3138,-2.75851 -0.11839,-0.39143 -0.10662,-0.81091 -0.15993,-1.21637 0.12501,-3.07823 2.16907,-5.5053 4.05598,-7.76933 2.63354,-3.26213 6.14688,-5.59148 9.50265,-8.03336 7.42154,-5.63791 15.68949,-10.09035 24.03913,-14.19543 3.09865,-1.46875 6.37449,-2.73379 9.84078,-2.73911 2.83996,0.53561 3.79606,2.05296 4.43359,4.70436 0.49002,4.14245 -1.55806,5.93284 -4.71531,8.10489 -6.44067,4.02051 -11.87681,7.59669 -19.33292,7.98296 -3.49335,-1.48889 -4.3672,-3.91532 -4.82456,-7.48378 0.15718,-5.0139 3.61008,-8.04683 7.11603,-11.14178 6.32271,-4.64114 13.26917,-8.58354 20.97942,-10.11372 3.68617,-0.62945 7.40429,-0.86683 10.962,0.50444 0.72996,0.28135 1.41355,0.6707 2.12033,1.00605 3.92802,1.93885 6.19199,4.64776 7.80462,8.64335 0.13404,0.91336 0.39092,1.85932 0.11008,2.78696 -1.11349,3.6779 -12.82666,8.79941 -14.116,9.51995 -3.53262,1.3615 -7.29474,1.90014 -11.04991,2.16668 -3.93066,-0.59008 -5.18787,-2.15002 -6.48754,-5.76602 -0.0927,-0.63229 -0.28593,-1.25787 -0.27798,-1.89685 0.0603,-4.84709 4.80994,-7.65848 8.37097,-9.95429 6.81885,-4.33063 13.71878,-8.04196 21.4735,-10.18022 2.71554,-0.74878 3.76082,-0.89807 6.49179,-1.42746 4.06057,-0.43363 8.31177,-1.51494 12.41601,-0.80649 0.67593,0.11667 1.3253,0.35435 1.98795,0.53152 4.17979,1.9297 5.94551,4.61837 7.34215,8.86465 0.37885,1.81153 0.57696,3.70721 -0.33299,5.41791 -2.21824,4.17029 -12.49458,8.46447 -13.92562,9.27205 -6.1646,1.78006 -12.66796,2.23791 -19.05857,2.01293 -1.79713,-0.3378 -3.17281,-0.43008 -4.78622,-1.35851 -2.83371,-1.63064 -4.26749,-4.58267 -5.39852,-7.48043 -0.0549,-0.79247 -0.23056,-1.58578 -0.16468,-2.37741 0.45459,-5.46249 5.76158,-8.7829 9.93932,-11.34918 6.00193,-3.36372 9.67453,-6.07644 15.48064,-8.12047 4.76905,-1.67894 9.75303,-2.41476 14.74603,-3.03394 3.72256,-0.10087 7.53377,0.13724 10.91508,1.85251 1.50774,0.76484 2.54066,1.61395 3.88227,2.60884 2.62282,2.25795 4.87598,5.22361 5.1794,8.78594 0.0491,0.57653 -0.0157,1.15713 -0.0236,1.7357 -0.34969,1.87593 -1.27244,3.60988 -2.9583,4.6438 -7.43934,4.56247 -8.56837,5.82369 -14.96914,7.30034 -3.02612,0.42078 -6.89822,1.41529 -9.50723,-0.83329 -0.42332,-0.36484 -0.71013,-0.8631 -1.06519,-1.29465 -0.22476,-0.50362 -0.54145,-0.9756 -0.67427,-1.51086 -1.01807,-4.10303 2.23014,-6.87951 5.08445,-9.14029 4.98876,-2.90349 8.92049,-5.78204 14.02482,-7.73804 3.94507,-1.51177 8.07898,-2.52178 12.18258,-3.4877 3.43089,-0.70772 7.18483,-1.53989 10.47545,0.18597 0.5181,0.27173 0.9724,0.65077 1.4586,0.97616 3.07504,2.33255 3.53414,6.00549 3.9586,9.58794 -0.0116,2.78739 -0.9092,5.9031 -3.47343,7.4314 -3.35585,2.00012 -6.78901,3.86759 -10.18351,5.80139 -2.60776,0.81686 -4.86825,0.71036 -6.25169,-2.02942 -0.28731,-0.569 -0.41668,-1.20482 -0.62501,-1.80723 6.5e-4,-0.71357 -0.0963,-1.43394 0.002,-2.1407 0.44385,-3.19092 2.81071,-5.91895 5.51616,-7.50494 3.6474,-2.13818 7.38696,-4.11511 11.08044,-6.17266 4.14595,-1.24049 8.5381,-1.82348 12.87025,-1.73042 2.72585,0.0586 5.03608,0.43887 7.73601,0.79359 5.27146,1.21146 10.95875,2.44612 15.40017,5.75014 0.63286,0.47079 1.17432,1.05336 1.76149,1.58005 1.73099,1.98061 3.6704,4.60152 2.96955,7.42675 -0.11851,0.47772 -0.37507,0.91015 -0.56261,1.36522 -0.32661,0.41807 -0.6058,0.87797 -0.97984,1.2542 -0.39751,0.39985 -0.83295,0.77332 -1.31933,1.0585 -6.99226,4.09985 -9.17837,6.34052 -15.90172,6.86852 -0.54937,-0.0984 -1.12049,-0.11312 -1.64811,-0.29506 -2.1306,-0.73466 -3.75047,-3.13369 -3.17137,-5.41668 0.16903,-0.66639 0.60639,-1.23405 0.90958,-1.85108 6.31065,-6.38154 15.23406,-10.00657 24.10098,-10.68037 1.54123,-0.11712 3.09053,-0.0712 4.6358,-0.10676 5.02721,0.11751 9.93432,1.12466 14.76565,2.44476 3.01362,0.82343 5.51465,1.57024 8.35592,2.83606 1.11781,0.498 2.1774,1.11757 3.2661,1.67636 4.22276,2.61673 6.8607,5.85689 7.84502,10.72235 -0.001,1.37847 -0.36723,2.98485 -1.65133,3.79066 -6.5167,4.08939 -8.04965,5.74309 -13.81589,6.76255 -3.42474,0.48495 -7.08444,0.43359 -10.02498,-1.65119 -0.55451,-0.39314 -1.01101,-0.90884 -1.51652,-1.36326 -1.07219,-1.265 -2.353,-2.68843 -2.09429,-4.50895 0.16961,-1.19347 0.99732,-2.41134 2.0134,-3.03905 3.57656,-2.20954 7.3213,-4.13449 10.98195,-6.20173 4.17136,-1.14115 8.53536,-1.98489 12.88463,-1.82262 2.96335,0.11057 4.29432,0.4823 7.18642,1.0412 4.66697,1.37456 9.55266,3.2199 13.11201,6.69003 0.44392,0.43279 0.81177,0.9373 1.21765,1.40595 0.69813,1.24604 1.6385,2.75793 1.52032,4.27785 -0.36967,4.75448 -11.38286,8.54185 -11.90606,8.84667 -5.07248,1.31283 -10.36532,1.78861 -15.59164,1.54686 -1.79665,-0.36635 -3.0102,-0.44213 -4.60018,-1.40916 -1.631,-0.99199 -3.49099,-2.91933 -4.06037,-4.79664 -0.16888,-0.5568 -0.10455,-1.159 -0.15683,-1.7385 0.95284,-1.98217 0.67329,-2.09441 2.86142,-3.30672 3.80829,-2.10994 7.62182,-4.23249 11.59532,-6.01189 1.05921,-0.47434 2.26593,-0.50719 3.40911,-0.70734 3.24395,-0.56797 3.90737,-0.54837 7.14861,-0.81217 4.2843,-0.17459 8.42951,0.7119 12.19829,2.77482 2.04505,1.11941 2.94313,1.92707 4.77683,3.34297 2.63485,2.52716 5.78111,5.32629 6.60077,9.08535 0.11964,0.54865 0.086,1.1198 0.12894,1.6797 -0.1538,0.53213 -0.20502,1.10539 -0.46139,1.59641 -0.29608,0.56705 -0.63408,1.16996 -1.16743,1.52315 -8.53185,5.64993 -10.17222,6.64133 -18.34909,8.53442 -1.60947,0.2196 -7.53662,1.91681 -8.68357,0.34269 -0.23761,-0.32611 -0.22243,-0.77572 -0.33365,-1.16358 0.221,-0.42896 0.33124,-0.93647 0.663,-1.28688 0.46821,-0.49455 1.07801,-0.84026 1.66986,-1.17719 5.06613,-2.88401 10.0009,-6.42231 15.8607,-7.42542 0.75684,-0.12956 1.53022,-0.12958 2.29534,-0.19437 4.66313,0.0767 6.67888,1.93848 8.95957,5.76565 0.79265,1.92784 2.36999,4.73054 0.81414,6.73095 -0.30493,0.39206 -0.75165,0.64945 -1.12747,0.97418 -3.54398,1.87911 -6.99078,3.95421 -10.63193,5.63732 -1.0088,0.46632 -4.32573,0.30789 -5.15999,0.21662 -4.18724,-0.4581 -8.18852,-1.80361 -12.17578,-3.07703 -6.48047,-2.72499 -12.74214,-6.1579 -18.4289,-10.30684 -0.41087,-0.3882 -0.91757,-0.69528 -1.23259,-1.16461 -1.28704,-1.91746 0.29059,-3.64303 1.92148,-4.58249 10.96624,-6.31694 7.83522,-5.1275 15.13934,-7.27655 6.55866,-1.61351 13.2668,-2.81058 20.02541,-3.07267 2.00887,0.0125 5.04951,0.34681 5.4883,2.87382 0.0834,0.48025 0.0538,1.0065 -0.13441,1.45612 -0.21961,0.52458 -0.69401,0.9011 -1.04102,1.35164 -3.59249,2.0233 -7.075,4.25568 -10.77749,6.06989 -0.89808,0.44005 -5.77762,0.95208 -6.39844,1.00106 -3.13299,0.24716 -6.08635,0.29876 -9.22764,0.0136 -1.73925,-0.15786 -3.45962,-0.48035 -5.18943,-0.72052 -5.13653,-0.93002 -10.22728,-2.3839 -14.85771,-4.85011 -3.93394,-2.09526 -7.27174,-4.94151 -10.54959,-7.90987 -2.41815,-2.34139 -5.27668,-5.48981 -3.40913,-9.07692 0.98935,-1.9003 2.2829,-2.51448 3.97196,-3.7554 3.82555,-2.12914 7.55772,-4.43549 11.47664,-6.38744 1.04745,-0.52171 2.23089,-0.71144 3.36383,-1.00434 4.28128,-1.10684 8.67449,-1.55721 13.06536,-1.95624 2.65147,-0.0435 6.91031,-0.8863 9.08506,1.12252 0.34267,0.31652 0.56976,0.73879 0.85464,1.10818 0.47378,1.17417 1.25181,2.65109 0.80441,3.97853 -0.15041,0.44626 -0.35343,0.94556 -0.75238,1.19579 -9.64712,6.05085 -7.0701,5.26635 -13.25703,6.48854 -6.52884,0.75951 -13.19526,1.30945 -19.7493,0.47178 -1.35154,-0.17274 -2.68353,-0.47408 -4.02529,-0.71112 -5.69468,-1.37017 -11.19265,-3.8051 -15.83274,-7.4247 -0.7256,-0.56602 -1.38692,-1.20993 -2.08038,-1.81489 -2.08329,-2.61134 -5.32415,-6.54526 -3.2219,-10.09624 0.35777,-0.60433 0.94366,-1.04035 1.41549,-1.56052 3.65484,-2.09062 7.22641,-4.33404 10.96452,-6.27185 0.90149,-0.46733 4.5216,-1.21214 5.46407,-1.38251 2.72356,-0.49232 5.2445,-0.71297 8.00399,-0.69343 3.46443,0.30153 7.01533,1.73733 8.79881,4.92572 0.29322,0.52421 0.45726,1.11086 0.68589,1.66629 0.0607,0.59204 0.24835,1.1847 0.18197,1.77612 -0.23921,2.13132 -1.99861,3.96239 -3.76796,4.97225 -10.90904,6.22638 -7.80391,5.0476 -14.89807,7.19005 -7.12188,1.441 -14.88086,2.77494 -22.16731,2.3647 -1.4332,-0.0807 -2.85329,-0.31786 -4.27994,-0.47679 -4.66546,-0.69364 -9.33899,-1.96952 -13.35564,-4.53313 -1.81682,-1.15959 -2.36239,-1.83162 -3.83816,-3.27932 -0.87829,-1.24625 -2.29524,-2.64717 -2.19689,-4.33797 0.0603,-1.03719 0.63268,-2.01457 1.52917,-2.56031 3.44262,-2.0957 7.02914,-3.94531 10.54371,-5.91797 3.98405,-0.91145 8.25327,-1.60803 12.32356,-0.82153 0.79643,0.15389 1.56621,0.42295 2.34931,0.63443 3.34321,1.38398 6.24255,3.69777 7.36178,7.26065 0.19051,0.60647 0.25814,1.24489 0.3872,1.86734 -0.14264,2.99509 -1.5596,5.67087 -4.22419,7.19694 -10.81061,6.19146 -7.40546,5.07786 -14.14965,6.7801 -8.04444,1.51866 -16.25462,1.55497 -24.38366,0.87649 -5.30683,-0.96822 -10.97201,-1.71236 -15.60929,-4.70343 -0.53919,-0.34779 -1.0222,-0.77578 -1.5333,-1.16367 -0.33655,-0.34395 -0.76693,-0.61635 -1.00967,-1.03186 -0.41888,-0.71703 -0.52351,-2.01647 0.3243,-2.57759 8.509,-5.63163 9.3435,-5.88043 16.9218,-8.04122 5.89748,-1.55714 11.91978,-2.58073 17.98204,-3.21377 2.86147,-0.19818 5.1587,0.37601 5.967,3.46822 0.12867,0.49223 0.1142,1.01112 0.1713,1.51668 -0.11337,0.55535 -0.14712,1.13311 -0.34011,1.66605 -2.35902,6.51467 -13.39685,10.94198 -17.91325,13.46021 -4.19534,1.5324 -8.63968,2.14182 -13.07053,2.49282 -1.12319,0.089 -2.24695,0.20315 -3.37364,0.20909 -1.16053,0.006 -2.31822,-0.11529 -3.47732,-0.17293 -5.59681,-0.67418 -10.91432,-2.7329 -15.43917,-6.11655 -0.7035,-0.52607 -1.33296,-1.14451 -1.99944,-1.71677 -1.76689,-1.95997 -3.62751,-4.37236 -2.8917,-7.19831 0.36873,-1.41615 0.9943,-1.93801 1.89097,-3.05058 4.42643,-3.66798 2.28207,-2.03705 12.11028,-7.30426 1.18431,-0.6347 4.10812,-1.32548 5.47239,-1.30348 0.62666,0.0101 1.24178,0.1709 1.86268,0.25635 3.27723,0.90132 6.09274,3.14519 7.55371,6.26079 0.26949,0.5747 0.40292,1.20386 0.60438,1.80579 0.51611,3.2596 -0.51624,6.06088 -3.44441,7.83517 -3.56813,2.16205 -7.24365,4.14168 -10.86548,6.21252 -4.3189,1.55602 -8.85947,2.35826 -13.4319,1.59268 -0.94738,-0.15862 -1.86957,-0.44212 -2.80436,-0.66318 -3.73418,-1.23772 -7.2918,-3.11174 -10.26611,-5.71422 -1.51977,-1.32978 -2.01681,-2.07271 -3.24272,-3.59604 -0.32232,-0.56997 -0.72999,-1.09951 -0.96697,-1.70993 -1.36194,-3.50817 0.62194,-5.46324 3.20949,-7.40035 3.5735,-1.97015 7.07819,-4.07064 10.72052,-5.91043 0.641,-0.32379 1.38055,-0.39949 2.08143,-0.55603 2.20527,-0.49254 4.38514,-0.74688 6.62442,-0.30818 0.73138,0.14329 1.43612,0.39919 2.15418,0.59879 3.6661,1.3956 6.47364,4.0918 7.83001,7.81045 0.25911,0.71041 0.38174,1.46341 0.57262,2.19512 0.44067,2.8239 -0.424,5.40477 -2.99538,6.91614 -10.55982,6.20672 -7.18451,5.15592 -13.67322,6.68673 -5.05981,1.03374 -10.19606,1.16468 -15.25686,0.0638 -1.05429,-0.22934 -2.08217,-0.56663 -3.12326,-0.84994 -3.45925,-1.21285 -7.03754,-2.73298 -9.83552,-5.18203 -1.25498,-1.09847 -1.62928,-1.75744 -2.57246,-3.06006 -1.04637,-1.9467 -1.60652,-4.31982 0.34918,-5.90194 0.35894,-0.29037 0.77559,-0.50106 1.16338,-0.75159 5.56854,-3.70986 8.42682,-5.56902 13.92158,-6.44236 1.53543,-0.24405 2.08984,-0.39596 3.64918,-0.10188 0.69976,0.13197 1.36934,0.39146 2.05401,0.58719 4.90508,1.93467 7.63658,5.6468 9.86019,10.24215 0.65377,1.75213 1.28432,3.67479 0.73014,5.55833 -1.29128,4.38876 -11.68551,8.26529 -12.40632,8.6811 -4.94329,1.62972 -10.20698,1.54642 -15.29042,0.65075 -1.40231,-0.24708 -2.78183,-0.60948 -4.17275,-0.91423 -7.2761,-1.58465 -14.26506,-4.08514 -21.14561,-6.88086 -1.93922,-1.09055 -5.95312,-3.10172 -5.09576,-6.04873 0.12845,-0.44152 0.45901,-0.7969 0.68851,-1.19535 3.43569,-2.0234 6.79171,-4.18863 10.30708,-6.0702 0.6663,-0.35664 3.75375,-0.78893 4.3325,-0.86171 1.68308,-0.21168 3.86626,-0.40407 5.55203,-0.33995 0.99336,0.0378 1.97816,0.19911 2.96724,0.29866 4.33539,0.57627 8.57538,2.10161 11.2734,5.72502 0.41931,0.56313 0.73792,1.19467 1.10688,1.792 1.14109,3.25252 0.77054,6.39438 -1.7462,8.93596 -0.53374,0.53901 -1.18342,0.94929 -1.77514,1.42394 -3.71278,2.12061 -8.92678,5.72555 -13.64822,7.37881 -4.71557,1.65121 -9.70012,2.37183 -14.61317,3.13478 -7.251,0.98806 -14.54917,1.57326 -21.85495,1.95326 -2.59169,-0.0255 -5.90896,-0.87933 -6.90996,-3.65128 -0.14402,-0.39883 -0.13075,-0.83793 -0.19613,-1.25689 0.25612,-1.66796 1.21549,-2.70651 2.66667,-3.51501 8.53728,-4.75642 7.9825,-5.43082 14.52061,-6.447 4.48003,-0.68197 7.45635,1.01179 10.70727,3.88912 2.09293,2.31153 4.25652,5.33067 4.65128,8.53326 0.0724,0.58752 4.3e-4,1.18393 6.4e-4,1.77589 -0.49475,1.9205 -1.52416,3.63503 -3.25671,4.71601 -7.36871,4.59754 -8.98598,6.13684 -15.61837,7.77073 -3.676,0.61166 -7.51712,1.44901 -11.26358,0.94564 -0.73416,-0.0987 -1.45326,-0.28797 -2.17989,-0.43196 -3.39285,-1.1785 -7.09805,-3.19421 -9.01014,-6.38211 -0.26401,-0.44016 -0.41164,-0.94039 -0.61745,-1.41059 -0.13381,-2.13683 0.7448,-3.0108 2.60828,-4.02263 3.74135,-2.03147 7.46336,-4.11629 11.34037,-5.87508 0.74107,-0.33618 5.43393,-1.01121 6.16181,-1.12472 3.61304,-0.5234 7.37745,-0.71471 10.92376,0.35466 1.71676,0.51767 2.35856,1.01217 3.87291,1.90123 2.57196,2.12585 4.74402,5.27996 4.52411,8.78757 -0.0424,0.67639 -0.28032,1.32614 -0.42048,1.98921 -1.12883,2.38204 -3.05182,4.07914 -5.31158,5.38524 -7.65752,4.42592 -9.82882,6.02823 -16.67242,8.17382 -3.27565,0.8849 -7.13915,1.77627 -10.40454,0.28811 -0.60728,-0.27676 -1.11845,-0.72842 -1.67768,-1.09263 -1.73891,-1.4881 -4.01637,-4.4193 -2.25887,-6.75547 0.27122,-0.36052 0.67703,-0.59647 1.01554,-0.89471 4.49625,-2.56791 9.41739,-6.83612 15.04962,-5.86204 1.23717,0.21397 1.80261,0.51354 2.94279,0.97807 2.59418,1.87891 4.11238,4.3657 4.46645,7.54575 -0.26367,1.8258 -1.28543,3.32912 -2.89353,4.25843 -9.95497,5.75289 -6.49044,4.70674 -11.47677,6.04791 -2.64406,0.49957 -5.3396,0.53391 -8.02074,0.55694 -0.3954,-8.4e-4 -0.79079,-0.002 -1.18618,-0.003 0,0 8.48067,-6.16244 8.48067,-6.16244 l 0,0 c 0.39286,-0.001 0.78572,-0.003 1.17858,-0.004 2.6194,-0.0302 5.27244,-0.0815 7.81341,-0.79005 4.09814,-1.50965 1.20331,-0.52688 -6.52706,4.13652 -0.38463,0.23202 0.81385,-0.38641 1.19115,-0.63015 0.89366,-0.5773 1.11023,-0.83925 1.65961,-1.7176 0.17681,-0.28268 0.31302,-0.58881 0.46953,-0.88322 0.004,-0.36416 0.0657,-0.73234 0.0116,-1.09249 -0.33785,-2.2503 -1.95951,-4.26335 -3.82489,-5.44119 -1.39511,-0.49011 -2.66541,-0.81639 -4.16379,-0.72496 -4.00127,0.24417 -9.07828,3.90528 4.57767,-4.01341 -0.66699,0.29571 -1.48489,0.51214 -1.8991,1.20269 -1.02866,1.71495 0.94189,3.66924 2.08781,4.63046 0.50077,0.28035 0.96579,0.63731 1.50232,0.84104 3.22919,1.22621 6.7856,0.17751 9.94711,-0.66943 0.8209,-0.27347 1.65214,-0.51765 2.4627,-0.82041 0.89206,-0.3332 3.39303,-1.67205 2.64217,-1.08637 -1.84206,1.43682 -3.98012,2.44731 -5.96547,3.67857 -0.78147,0.48464 1.60774,-0.90111 2.35377,-1.43869 0.66891,-0.482 1.30335,-1.01853 1.87746,-1.61027 0.46327,-0.47749 0.81233,-1.05384 1.2185,-1.58077 0.19114,-0.56681 0.48431,-1.10893 0.57343,-1.70043 0.47633,-3.16158 -1.68761,-6.05834 -3.99288,-7.90375 -1.47418,-0.8166 -1.97895,-1.20835 -3.63709,-1.66275 -3.45424,-0.94662 -7.0828,-0.68757 -10.57426,-0.151 -1.04491,0.1856 -2.09749,0.33225 -3.13472,0.55679 -1.00945,0.21853 -3.73047,1.50257 -3.00091,0.77149 1.77362,-1.77732 4.27841,-2.63688 6.32044,-4.09793 0.8894,-0.63636 -2.15029,0.8292 -2.80112,1.70805 -0.19565,0.2642 -0.20852,0.62357 -0.31277,0.93536 0.13832,0.40655 0.2116,0.84143 0.41496,1.21966 1.64537,3.06023 5.35786,4.81724 8.5215,5.75374 0.70773,0.10549 1.41052,0.25229 2.12319,0.31646 3.67642,0.33105 7.40983,-0.43486 10.99094,-1.14505 0.82465,-0.2461 1.6652,-0.4441 2.47394,-0.73829 2.28677,-0.83187 10.36368,-5.17866 -4.49961,3.02063 -0.61492,0.33922 1.19169,-0.75649 1.7112,-1.22904 0.4286,-0.38985 0.78194,-0.85995 1.11024,-1.33733 0.28012,-0.40732 0.47084,-0.86938 0.70626,-1.30407 0.0434,-0.51024 0.16292,-1.0197 0.13008,-1.53072 -0.19276,-2.99889 -2.29428,-5.90673 -4.26558,-8.00015 -3.24751,-2.70709 -5.90089,-3.91879 -10.19734,-3.13472 -0.64049,0.12319 -1.28711,0.21796 -1.92147,0.36958 -0.63208,0.15107 -2.40039,0.91882 -1.87407,0.53759 2.28514,-1.65515 4.84749,-2.89104 7.22376,-4.41246 0.97699,-0.62551 -1.69559,0.6638 -2.49694,1.52154 -0.23822,0.25499 -0.35937,0.59828 -0.53905,0.89741 -0.0169,0.28518 -0.12039,0.57852 -0.0506,0.85552 0.60583,2.40331 4.14794,2.82618 6.09263,2.82868 7.18113,-0.23171 14.36015,-0.73215 21.46807,-1.8158 3.96955,-0.67999 7.89915,-1.35641 11.76146,-2.52406 0.99144,-0.29973 1.97974,-0.61552 2.94469,-0.9919 0.88185,-0.34397 3.36577,-1.70747 2.58901,-1.16653 -2.06297,1.43666 -4.31501,2.58067 -6.47252,3.87101 0.60711,-0.38935 1.26325,-0.71119 1.82134,-1.16806 2.51638,-2.06 3.20138,-4.75758 2.33482,-7.79226 -0.32963,-0.55094 -0.60865,-1.13553 -0.9889,-1.65284 -2.52444,-3.4344 -6.66656,-4.66858 -10.71761,-5.15385 -3.03776,-0.20056 -5.4258,-0.19557 -8.44287,0.32194 -0.7941,0.13621 -1.58762,0.28978 -2.36276,0.50956 -0.64737,0.18355 -2.44771,1.08032 -1.89435,0.69748 2.38801,-1.65212 4.95925,-3.02227 7.43888,-4.53341 -0.29765,0.22119 -0.65686,0.37761 -0.89294,0.66359 -1.57443,1.90724 3.02799,4.40905 4.13936,5.00634 1.13646,0.49915 4.14517,1.83098 5.19582,2.24561 5.04554,1.99118 10.29887,3.43313 15.57737,4.65185 1.38609,0.27141 2.76093,0.60843 4.15826,0.81424 5.10659,0.75215 10.43562,0.62626 15.24974,-1.37452 -16.51938,9.9732 -6.1778,4.54244 -5.03427,2.33074 0.8415,-1.62753 0.28862,-3.44562 -0.27233,-5.04096 -2.07373,-4.39098 -4.6286,-7.86094 -9.41608,-9.44368 -1.75794,-0.34489 -1.98843,-0.52536 -3.71763,-0.38012 -4.61871,0.38796 -11.87062,4.66954 2.33086,-3.26791 -2.72081,1.38601 -3.8082,1.85305 -2.3399,5.13387 0.87254,1.26794 1.1153,1.77304 2.31563,2.83814 2.68244,2.38022 6.11385,3.84793 9.47471,4.94904 1.0201,0.25552 2.02825,0.56467 3.0603,0.76658 5.01849,0.98184 10.11476,0.69549 15.07799,-0.45493 5.08953,-1.54783 3.58872,-1.33977 -3.97767,3.30577 -0.969,0.59494 2.02082,-0.89359 2.94888,-2.37846 0.78628,-1.25804 0.5775,-2.03483 0.57453,-3.44373 -0.15562,-0.67279 -0.23974,-1.36625 -0.46686,-2.01839 -1.21001,-3.47438 -3.9053,-5.90957 -7.3534,-7.03797 -3.3067,-0.73846 -5.1495,-0.75528 -8.45827,0.15955 -0.68353,0.18899 -2.59404,1.08579 -2.01908,0.67063 2.21742,-1.60114 4.67051,-2.84759 7.00577,-4.27139 -2.16114,1.29493 -4.85127,3.07314 -3.87354,6.02577 0.18781,0.56718 0.55091,1.06035 0.82636,1.59053 1.16529,1.51827 1.52221,2.12528 3.01418,3.43694 2.87658,2.52893 6.35093,4.27749 10.00792,5.34945 0.91002,0.18297 1.80984,0.42725 2.73007,0.5489 4.51086,0.59633 9.00598,-0.3364 13.15365,-2.1066 -14.34857,8.61184 -5.56117,3.93282 -3.80913,1.66908 0.98975,-1.27882 1.19793,-2.75427 1.03267,-4.31642 -0.14693,-0.53492 -0.21629,-1.09748 -0.4408,-1.60474 -1.2802,-2.89249 -4.03059,-4.82537 -7.0617,-5.42364 -2.01563,-0.0704 -3.22335,0.0732 -5.1449,0.75554 -0.61301,0.21766 -2.34972,1.09475 -1.80798,0.73463 1.76093,-1.17055 10.67275,-6.53098 5.49367,-3.1716 -0.77503,0.7701 -1.63172,1.4649 -2.09695,2.49184 -1.09925,2.42647 0.70686,4.65694 2.21764,6.37454 0.62542,0.54663 1.21478,1.13751 1.87627,1.6399 4.38024,3.32666 9.57353,5.22842 15.03558,5.72113 1.14364,0.0265 2.28727,0.10557 3.43091,0.0794 5.52041,-0.12634 11.11485,-1.052 16.26135,-3.06111 -2.00096,1.22995 -3.99012,2.47931 -6.00289,3.68984 -0.80898,0.48654 1.63507,-0.95231 2.39112,-1.51762 1.65213,-1.23532 3.29035,-2.95219 4.21703,-4.82426 0.21039,-0.42501 0.30467,-0.89821 0.457,-1.34732 -0.002,-0.4043 0.0737,-0.81659 -0.006,-1.21288 -0.51422,-2.54576 -3.03814,-2.61173 -5.13819,-2.43029 -5.95508,0.56385 -11.87401,1.54509 -17.63263,3.19167 -1.1426,0.35423 -2.29534,0.6773 -3.42782,1.06268 -0.94782,0.32254 -3.59668,1.67983 -2.8103,1.06014 2.12555,-1.67499 4.61293,-2.83148 6.89798,-4.28135 0.31064,-0.1971 -0.73367,0.24195 -0.9726,0.5217 -0.54518,0.63835 0.54262,1.38877 0.76962,1.64275 0.45979,0.36308 0.89173,0.76451 1.37936,1.08924 4.43085,2.9507 9.92664,3.6468 15.03865,4.55797 8.14139,0.5994 16.37255,0.52266 24.37243,-1.30283 5.39623,-1.63565 3.59716,-1.3758 -3.42537,3.14745 -0.63246,0.40736 1.33503,-0.71238 1.92216,-1.18273 1.57094,-1.2585 2.40942,-2.94435 2.71098,-4.89905 -0.0937,-0.56188 -0.12878,-1.13671 -0.28096,-1.68563 -0.91581,-3.30318 -3.69071,-5.34929 -6.76738,-6.49978 -0.74426,-0.17798 -1.47685,-0.41496 -2.2328,-0.53394 -4.03015,-0.63433 -8.27662,0.0994 -12.10886,1.34687 2.41124,-1.46692 4.83205,-2.91823 7.23371,-4.40077 0.41364,-0.25534 -0.89494,0.40812 -1.26889,0.71869 -0.27472,0.22816 -0.52134,0.52422 -0.63523,0.86269 -0.4697,1.39594 1.04432,2.82239 1.66775,3.82389 1.39137,1.42469 1.79416,1.98365 3.55049,3.1136 3.88075,2.49671 8.42591,3.6677 12.9363,4.34324 1.39585,0.13857 2.78635,0.35078 4.18756,0.41572 3.27111,0.15161 5.84634,-0.0784 9.11052,-0.41716 4.38533,-0.45514 8.76202,-1.10883 13.01451,-2.30044 5.75461,-1.94394 4.14675,-1.71106 -2.55117,2.70219 -0.65399,0.43091 1.38026,-0.75668 1.99272,-1.24481 0.57184,-0.45574 1.85099,-1.89334 2.07118,-2.70539 0.1299,-0.47904 -0.0127,-0.99259 -0.0191,-1.48889 -0.18437,-0.48099 -0.30651,-0.99072 -0.55313,-1.44297 -1.61259,-2.9572 -4.988,-4.03044 -8.13229,-4.19499 -3.56972,0.0749 -7.14497,0.46837 -10.5792,1.50971 -0.88396,0.26804 -3.33354,1.51408 -2.60417,0.94728 2.03008,-1.57758 4.38313,-2.68853 6.5747,-4.03279 -1.0965,0.81166 -2.02857,1.18224 -2.40067,2.61496 -0.70649,2.72018 1.7912,5.6561 3.30344,7.56901 0.66149,0.58273 1.29177,1.20294 1.98448,1.74818 4.50593,3.54671 9.82165,5.94709 15.40491,7.17425 1.31594,0.21734 2.62301,0.49777 3.94783,0.65204 6.5861,0.76689 13.29799,0.1833 19.808,-0.90364 5.2819,-1.49162 3.20774,-1.16525 -4.51844,3.7169 -0.32666,0.20641 0.75001,-0.29569 0.99533,-0.59423 0.74706,-0.90916 -0.0438,-2.3669 -0.37459,-3.22646 -0.21802,-0.26401 -0.38901,-0.57528 -0.65407,-0.79202 -1.90537,-1.55806 -6.22893,-0.74746 -8.46287,-0.7628 -4.31433,0.36485 -8.64537,0.81902 -12.81574,2.05304 -1.12878,0.33401 -4.17719,1.98635 -3.3337,1.16523 1.64461,-1.60101 3.90436,-2.41412 5.85654,-3.62117 -1.83016,1.1417 -4.45863,2.43756 -4.92367,4.858 -0.50172,2.61138 1.8845,4.764 3.38706,6.44291 0.92927,0.87609 1.81302,1.80313 2.78781,2.62828 6.48854,5.49251 13.69215,8.45267 22.06503,9.76933 1.73051,0.19989 3.45334,0.48425 5.19153,0.59968 3.1623,0.21 6.17651,0.0866 9.31596,-0.28353 1.23367,-0.14544 2.46394,-0.33847 3.67715,-0.60531 0.94371,-0.20757 3.52134,-1.43722 2.78179,-0.81533 -2.07662,1.74624 -4.61081,2.86132 -6.91622,4.29199 0.40681,-0.25837 0.87732,-0.4367 1.22044,-0.77511 2.07956,-2.05102 -3.03484,-3.22713 -4.17372,-2.80129 -6.63725,0.27206 -13.23982,1.33885 -19.64015,3.11931 -6.4719,2.18141 -3.61313,1.54218 2.31934,-2.57223 0.58268,-0.40411 -1.30659,0.57349 -1.88971,0.97698 -1.56297,1.0815 -0.79548,2.00257 0.33316,3.00951 5.42274,4.22927 11.40621,7.81075 17.83465,10.27985 4.02576,1.19793 8.03368,2.45434 12.26761,2.64095 0.974,0.0429 1.95415,-0.008 2.9222,-0.12406 0.75289,-0.09 2.8151,-0.96204 2.2212,-0.49064 -2.2366,1.7753 -4.85591,3.00608 -7.28386,4.50911 0.41716,-0.17912 0.87301,-0.28664 1.25148,-0.53737 1.99727,-1.32319 0.44003,-4.14645 -0.19136,-5.75321 -2.0868,-3.5856 -3.95821,-4.92539 -8.22646,-4.83323 -2.3935,0.3136 -2.15775,0.17804 -4.60237,0.97183 -0.79908,0.25947 -3.0392,1.37396 -2.36417,0.87376 10.5785,-7.83868 7.77864,-4.18084 4.1088,-2.76778 -0.2584,0.3271 -0.46858,0.4125 0.34397,0.50792 2.46996,0.29007 4.99335,-0.7012 7.40486,-1.00213 1.97007,-0.49072 3.14832,-0.73098 5.07186,-1.42977 0.80705,-0.29318 3.07934,-1.48574 2.37788,-0.99055 -2.15287,1.51982 -4.51097,2.72578 -6.76646,4.08866 0.42205,-0.3856 0.90729,-0.71178 1.26614,-1.15679 0.28984,-0.35945 0.43476,-0.81476 0.65214,-1.22214 0.0149,-0.47508 0.11371,-0.95495 0.0448,-1.42525 -0.50947,-3.4795 -3.7197,-6.40019 -6.09852,-8.67025 -1.75941,-1.3276 -2.67758,-2.13339 -4.63891,-3.16272 -3.66803,-1.925 -7.69603,-2.63793 -11.81382,-2.40912 -3.04301,0.2819 -4.02347,0.28825 -7.06321,0.92348 -1.14673,0.23964 -4.15,1.76946 -3.40663,0.86403 1.50515,-1.83328 4.02334,-2.52271 5.92854,-3.93573 0.62108,-0.46063 -1.43424,0.61239 -2.06005,1.0666 -0.43751,0.31754 -0.71895,0.80752 -1.07843,1.21129 -0.0362,0.45108 -0.20337,0.91076 -0.10858,1.35325 0.11716,0.54692 0.41248,1.049 0.72287,1.5143 1.67553,2.51187 4.30256,3.57378 7.21224,3.84625 5.16883,0.11256 10.49488,-0.2408 15.37578,-2.05781 -17.77538,10.77574 -6.03658,4.69938 -5.45097,2.47641 0.33739,-1.28072 -0.55937,-2.72953 -1.11047,-3.77428 -0.35915,-0.43444 -0.68274,-0.90092 -1.07745,-1.30332 -3.35331,-3.41869 -8.05795,-5.18592 -12.5771,-6.39789 -1.16048,-0.2033 -2.31169,-0.46942 -3.48144,-0.60989 -5.52564,-0.66351 -11.16717,0.16911 -16.38245,2.03935 2.19966,-1.35627 4.39933,-2.71254 6.599,-4.06882 -0.50209,0.35278 -1.06135,0.63573 -1.50627,1.05834 -0.329,0.31251 -0.61421,0.69285 -0.78142,1.11469 -0.59792,1.5084 0.731,2.75746 1.56917,3.79893 0.45699,0.38907 0.8687,0.83866 1.37096,1.16721 2.86162,1.87185 6.43412,1.59905 9.6356,1.0532 0.60233,-0.14614 1.21521,-0.25414 1.80699,-0.43842 0.54689,-0.1703 2.08037,-0.93726 1.60149,-0.62298 -2.43738,1.59957 -5.00156,2.99701 -7.50234,4.49552 0.36927,-0.26167 0.78019,-0.47277 1.10782,-0.785 0.28937,-0.27578 0.54565,-0.59897 0.72121,-0.95809 0.16714,-0.3419 0.19154,-0.73664 0.28731,-1.10496 -0.62693,-4.60034 -3.14917,-7.62649 -7.01572,-10.11801 -1.04346,-0.54767 -2.05857,-1.15313 -3.13037,-1.643 -7.07032,-3.23148 -15.07196,-4.75426 -22.79946,-5.0091 -1.54536,0.0809 -3.09712,0.0805 -4.63607,0.24276 -2.28921,0.2413 -5.57453,0.90772 -7.81178,1.61282 -1.08419,0.34169 -4.04798,1.95932 -3.18464,1.21982 1.80504,-1.54613 3.99112,-2.59302 6.08987,-3.70834 0.68383,-0.36341 -1.21506,0.96041 -1.82259,1.44061 -0.76754,1.00288 -1.43468,1.42892 -1.30553,2.78049 0.19801,2.0723 2.35692,2.78879 4.08803,2.78004 1.55691,-0.20631 1.87495,-0.1887 3.41176,-0.64251 0.59934,-0.17698 2.28652,-0.96868 1.77075,-0.61582 -2.33839,1.59982 -4.85383,2.92406 -7.281,4.38567 -0.46115,0.27769 0.9519,-0.51146 1.38292,-0.83394 0.38786,-0.29018 0.70678,-0.66261 1.06017,-0.99391 0.23005,-0.35214 0.51976,-0.67185 0.69015,-1.05642 1.06285,-2.39887 -0.88211,-4.88828 -2.30115,-6.61801 -0.53806,-0.48824 -1.03354,-1.02797 -1.61418,-1.46472 -4.28462,-3.22287 -9.81344,-4.44024 -14.93389,-5.53097 -2.87902,-0.33038 -4.78859,-0.63746 -7.68213,-0.62819 -4.33427,0.0139 -8.72509,0.67131 -12.79082,2.18316 2.13754,-1.31073 4.26105,-2.64463 6.41262,-3.9322 0.71592,-0.42843 -1.44222,0.84744 -2.10491,1.35433 -2.29716,1.75714 -3.84069,4.07008 -3.84356,7.0184 0.17178,0.4979 0.27105,1.02707 0.51534,1.49369 1.16538,2.22597 3.55133,1.65631 5.43288,0.83701 -18.49905,10.9689 -6.7389,4.54787 -5.27961,2.73779 1.07263,-1.33048 1.57331,-2.96456 1.61004,-4.64845 -0.33321,-3.27312 -0.66563,-6.67081 -3.52083,-8.76466 -0.44675,-0.26272 -0.86841,-0.57376 -1.34027,-0.78814 -3.15889,-1.4352 -6.71233,-0.46641 -9.92858,0.15502 -3.05395,0.7203 -6.06732,1.49726 -9.03853,2.51704 -1.00397,0.34458 -2.00981,0.68858 -2.98878,1.09884 -0.96008,0.40235 -3.68106,1.92515 -2.82248,1.33653 1.97945,-1.35707 4.13567,-2.43633 6.20351,-3.65449 -2.50057,1.76793 -6.19555,4.17761 -5.49063,7.80661 0.0857,0.44131 0.34746,0.82926 0.52119,1.2439 0.2891,0.32594 0.52227,0.71179 0.8673,0.97783 2.48635,1.91717 6.20963,0.66751 8.94553,0.27463 0.6963,-0.18969 1.40378,-0.34231 2.08892,-0.56907 3.15088,-1.04283 7.88895,-3.90148 -4.88136,3.37184 -0.5477,0.31195 1.06155,-0.68732 1.53823,-1.0997 1.3531,-1.17058 1.12146,-1.13383 1.72737,-2.73023 0.0514,-0.52374 0.16153,-1.04503 0.15413,-1.57124 -0.0466,-3.31869 -2.31899,-6.06836 -4.71553,-8.11382 -1.38516,-1.02069 -2.11895,-1.66079 -3.70164,-2.4094 -3.26527,-1.54446 -6.91256,-1.71935 -10.4591,-1.55049 -4.94342,0.62943 -9.82667,1.42649 -14.51388,3.19773 -1.20103,0.45386 -4.45253,2.42585 -3.53651,1.52621 1.44947,-1.42355 3.47155,-2.11143 5.20732,-3.16714 -3.86874,2.18926 -9.35229,5.35409 -10.13071,10.2402 -0.10928,0.68591 0.004,1.38912 0.006,2.08368 0.24894,0.6746 0.43761,1.37462 0.74682,2.02382 1.89442,3.9773 4.45317,5.36031 8.70819,5.85764 6.3287,0.20579 12.81555,-0.23426 18.79786,-2.4498 -14.10153,8.59338 -5.18854,3.76326 -3.49313,1.46648 1.0687,-1.44778 0.99078,-3.11171 0.71002,-4.79243 -1.2514,-3.92839 -2.82608,-6.36279 -6.78379,-7.96789 -0.62919,-0.13094 -1.25032,-0.30952 -1.88756,-0.39283 -4.01354,-0.52466 -8.10847,0.38352 -12.067,0.88452 -4.42848,0.90099 -8.74252,2.02289 -12.91716,3.79026 -1.08258,0.45832 -4.11669,2.21759 -3.20117,1.48012 1.69567,-1.36591 3.71991,-2.26415 5.57986,-3.39622 -3.01316,1.86613 -8.27699,4.69938 -8.58484,8.77615 -0.0427,0.56566 0.1275,1.12735 0.19125,1.69103 1.14696,3.20467 2.25574,4.42212 5.78738,4.60505 3.66955,-0.30993 7.34141,-0.87798 10.72851,-2.40282 -2.32792,1.39997 -4.65169,2.80688 -6.98377,4.19991 -0.51762,0.3092 1.0354,-0.61875 1.5403,-0.94832 0.54026,-0.35267 1.71531,-1.10134 2.08241,-1.73772 0.40482,-0.70178 0.24948,-1.59247 0.22097,-2.33334 -1.47564,-3.96582 -3.44522,-6.11937 -7.27575,-8.02657 -0.67886,-0.29044 -1.33713,-0.63474 -2.03658,-0.87132 -3.48689,-1.17937 -7.1446,-0.74715 -10.68601,-0.0905 -2.1233,0.50055 -4.148,1.0718 -6.15769,1.93805 -0.68723,0.29622 -2.65856,1.364 -2.03171,0.95524 1.59009,-1.03688 10.71175,-6.47959 4.92476,-2.85975 -2.20998,1.81357 -1.40634,1.07075 -3.4981,3.1361 -2.1243,2.09749 -3.70109,3.95013 -3.95342,7.0486 0.0539,0.55468 0.0481,1.11846 0.16184,1.66402 0.32357,1.55231 1.28812,3.48908 2.82892,4.16662 0.33422,0.14697 0.70976,0.17162 1.06465,0.25744 1.55819,-0.1473 3.06468,-0.40632 4.57552,-0.83212 3.54007,-0.9977 10.47251,-4.80058 -3.28393,2.81407 2.61644,-1.63196 5.53308,-3.36382 5.11054,-6.89177 -0.49633,-2.24413 -1.17722,-3.34289 -3.64883,-3.48408 -3.29533,0.28366 -6.39371,1.45041 -9.34787,2.90488 -0.80149,0.39968 -1.60803,0.7894 -2.40448,1.19904 -0.88871,0.45709 -3.48457,1.95169 -2.65065,1.40096 1.88961,-1.24793 3.87776,-2.33989 5.82435,-3.49692 0.88363,-0.52522 -1.76746,1.05066 -2.63539,1.60144 -0.83941,0.53268 -1.67581,1.0716 -2.48561,1.6483 -0.77323,0.55065 -1.50715,1.15451 -2.26072,1.73177 -3.26706,2.39587 -6.75276,4.61948 -9.39146,7.73758 -1.297,1.43329 -3.52729,4.01758 -4.13011,5.8587 -0.1188,0.36286 -0.11265,0.75527 -0.16898,1.1329 -0.0142,0.27794 -0.10173,0.56189 -0.0425,0.8338 0.38633,1.77257 2.17978,1.90286 3.64167,1.75537 2.28995,-0.12333 4.57637,-0.35278 6.80683,-0.91185 0.62707,-0.14886 1.64124,-0.36897 2.25219,-0.59466 0.32623,-0.1205 1.24617,-0.61463 0.94806,-0.43552 -14.97848,8.9994 -9.36156,5.95217 -6.63395,3.62242 2.04715,-1.24762 2.51167,-2.18652 1.98021,-4.59005 -0.42185,-1.75791 -1.10087,-3.40277 -3.03102,-3.86484 -1.7842,-0.0752 -3.38271,0.81971 -5.14368,0.98588 -2.26022,0.18485 -4.4933,0.55513 -6.64015,1.31375 -2.9007,0.90969 -5.80786,1.80333 -8.68881,2.76928 2.47168,-1.49254 4.96125,-2.95585 7.41504,-4.47763 0.42303,-0.26235 -0.90499,0.42334 -1.32025,0.69781 -1.29466,0.85571 -2.35695,2.25969 -2.71364,3.76186 0.0111,1.97235 0.53779,3.85838 1.78486,5.42086 1.35486,1.50738 2.88007,2.6915 4.55779,3.83302 1.73019,0.80973 3.1978,1.09246 5.12069,1.06693 1.81337,-0.10539 3.67401,-0.21066 5.32051,-1.05885 -2.78798,1.62521 -5.57595,3.25042 -8.36393,4.87563 0.56468,-0.37461 1.30905,-0.60011 1.81324,-1.04988 1.40594,-1.25419 -0.55123,0.16045 0.76237,-0.74936 0.0653,-0.15571 0.18482,-0.29864 0.19601,-0.46713 0.10501,-1.58083 -1.38518,-3.3173 -1.04414,-4.96884 -0.22009,-2.655 -0.57192,-5.3205 -0.28076,-7.98493 0.0371,-0.31568 0.35122,-3.10628 0.53487,-3.22314 6.12007,-3.89426 6.85104,-6.76313 11.14157,-4.85882 1.6789,0.99078 3.12353,2.36312 4.93033,3.13929 2.34733,0.99791 4.07639,1.7064 6.71658,1.32446 0.8059,-0.0817 1.51408,-0.12454 2.30142,-0.30882 0.33832,-0.0792 1.29179,-0.4858 0.99838,-0.29968 -14.43248,9.15479 -9.82738,6.1027 -6.94205,4.02463 0.45824,-0.78912 1.26999,-2.41013 1.48415,-3.27253 0.14636,-0.58933 0.10487,-1.5253 0.10315,-2.11509 0.004,-2.31943 -0.005,-4.63886 -0.005,-6.95828 0.01,-2.85301 -0.018,-5.70934 0.13238,-8.55915 0.0324,-0.45844 0.15892,-2.42867 0.21706,-2.47435 4.81394,-3.78248 7.01911,-8.22723 11.19612,-5.34633 2.02278,1.65761 3.95782,3.41703 6.24517,4.72649 2.52167,1.44576 4.9936,2.87515 8.01818,2.36063 2.89581,-0.48002 5.73822,-1.20084 8.56955,-1.97086 3.93268,-1.62955 2.28187,-1.00968 -6.83103,4.24061 -0.28113,0.16197 0.52794,-0.37732 0.78903,-0.56994 0.75077,-0.55387 1.33291,-1.18707 1.90204,-1.92804 1.29779,-2.57661 2.77396,-5.04383 4.1033,-7.60136 1.37658,-2.28959 2.97994,-4.33679 4.68769,-6.38769 0.38098,-0.45752 0.64592,-1.04371 1.14135,-1.37389 3.30398,-2.20188 6.79057,-4.11661 10.18585,-6.17491 2.72059,-1.10826 3.83938,-0.77581 6.05255,1.0557 0.54097,0.45068 1.12098,0.85775 1.62578,1.34861 1.12711,1.09599 1.82935,2.52487 2.74728,3.78011 1.26545,2.15769 2.42351,4.36852 4.40771,5.98121 1.6081,1.01768 3.15219,1.66718 5.09119,1.21196 4.028,-0.83675 6.40597,-3.3176 -6.27515,4.30352 -0.25861,0.15543 0.55592,-0.23763 0.81927,-0.38489 0.82233,-0.45981 0.72648,-0.4647 1.34698,-1.15096 1.02608,-1.53316 1.87814,-3.23784 2.23139,-5.05535 1.90099,-6.6489 5.53022,-6.97697 12.45757,-11.00543 2.6111,-0.80324 3.76404,0.33858 4.71284,2.70562 0.0741,0.21839 0.6901,2.01973 0.74439,2.23341 0.35541,1.39899 0.41382,2.86682 0.82135,4.25495 0.65993,1.9899 1.74787,3.78338 3.1924,5.30715 1.87538,1.67168 2.5327,1.80562 5.02013,1.26152 0.99796,-0.21407 2.01892,-0.36979 3.00829,-0.61918 3.56285,-0.89807 8.72092,-4.47192 -5.49488,3.79215 0.83752,-0.4739 1.5628,-0.84161 2.32145,-1.44474 0.34611,-0.27517 0.62372,-0.63012 0.97129,-0.90344 0.31603,-0.24852 0.70303,-0.39895 1.01199,-0.65619 0.48832,-0.40657 0.9531,-1.0885 1.33056,-1.5954 0.32103,-0.86507 0.46447,-1.35062 0.9238,-2.16874 0.95679,-1.70413 2.37485,-3.09563 3.33414,-4.79859 1.20774,-1.4922 2.44549,-2.93173 4.11276,-3.94322 4.50944,-2.73577 8.68125,-5.77595 13.65808,-7.39242 2.80161,-0.53827 5.44107,-0.22508 8.2332,0.26068 2.43941,0.61444 4.6696,1.55277 6.03891,3.79099 1.04414,2.16219 1.15735,3.5701 0.9308,5.95778 -0.24655,2.23863 -0.71089,4.35508 -2.28589,6.0721 -1.83575,1.79147 -3.69389,3.59061 -5.25016,5.63281 -0.14886,0.18012 -0.40004,0.31137 -0.44659,0.54036 -0.0419,0.20594 0.10322,0.41509 0.21641,0.59215 0.70241,1.0988 2.27951,1.06723 3.40012,1.13035 2.78173,0.0104 5.56355,0.016 8.34516,-0.017 2.43983,-0.0701 4.89181,-0.19762 7.25836,-0.85133 1.2972,-0.38121 1.48182,-0.41027 2.78501,-0.90198 3.61176,-1.36276 12.02099,-5.75255 -2.82018,2.35941 6.08184,-3.54823 12.13294,-7.40546 18.61127,-10.24099 3.14104,-1.17752 6.43651,-2.13656 9.7968,-1.33347 2.23446,0.83678 3.49325,2.1018 3.20116,4.64344 -0.20452,2.24902 -0.56719,4.50978 -1.74145,6.48263 -1.12159,1.45973 -0.14752,0.0991 -1.16477,1.84 -0.98952,1.69347 -2.32659,3.16519 -3.37311,4.82369 -0.38391,0.55014 -1.4031,1.97974 -1.72246,2.56304 -0.1589,0.29022 -1.23026,2.69159 -1.36734,3.02318 -0.16393,0.3965 -0.3578,0.78615 -0.45502,1.20405 -0.0735,0.31615 -0.0342,0.64828 -0.0513,0.97242 0.0815,0.20339 0.10723,0.43929 0.24435,0.61016 0.71837,0.89524 3.39726,0.34833 4.38965,0.44632 2.46511,-0.085 4.92695,-0.23046 7.38124,-0.48283 2.81631,-0.24107 5.63605,-0.17262 8.46069,-0.16752 2.933,0.006 5.8764,-0.0156 8.79521,0.31283 2.61668,0.34524 5.17625,0.93565 7.54425,2.14765 2.09523,0.91065 4.04191,2.14353 5.4624,3.96986 1.24233,2.00486 1.79259,4.26952 1.87189,6.62128 0.1332,2.72599 -0.22365,5.46329 -0.83556,8.11924 -0.44717,1.42247 -0.98457,2.78919 -1.48927,4.18957 -0.50041,1.38846 -0.90006,2.78622 -1.84904,3.96439 -3.69835,4.52777 -5.67128,4.78517 -12.48894,8.56062 -0.31188,0.17271 -0.67707,0.25387 -1.03276,0.27797 -0.32098,0.0218 -0.6363,-0.0955 -0.95445,-0.14329 -0.25702,-0.18492 -0.562,-0.31696 -0.77105,-0.55477 -1.2038,-1.36946 0.50225,-3.48739 1.02601,-4.77178 1.02159,-2.03674 2.01261,-4.08877 2.65732,-6.28465 0.16696,-1.57275 0.1428,-3.19486 -0.15942,-4.75156 -0.0218,-0.006 -0.0437,-0.0122 -0.0655,-0.0182 -0.0482,0.0627 -0.0963,0.12548 -0.14451,0.18822 2.84989,-1.66982 5.69977,-3.33964 8.54965,-5.00947 0.23926,-0.1387 -0.47371,0.28756 -0.69365,0.45522 -0.59471,0.45335 -1.09908,1.01984 -1.74507,1.40981 -0.6276,0.63101 -1.20353,1.31593 -1.87053,1.90514 -0.34916,0.30844 -0.71528,0.60357 -1.1154,0.84222 -4.13073,2.46373 -7.90498,5.70964 -12.66145,6.56639 -3.13189,0.14562 -6.25523,-0.0106 -9.27429,-0.9504 -3.23517,-1.0846 -6.04305,-2.34571 -7.55245,-5.62615 -0.8555,-3.1155 -0.0482,-4.62597 1.81157,-7.15201 1.98275,-2.55492 4.12095,-5.03639 5.54589,-7.96055 0.17016,-0.4953 0.38336,-0.97785 0.51048,-1.48591 0.54006,-2.15863 0.41579,-4.47981 0.3153,-6.67529 -0.17539,-1.60216 -0.27788,-3.06437 -2.1654,-3.27083 -2.56597,-0.27838 -5.14781,-0.13772 -7.72064,-0.0122 -2.70857,0.22716 -5.39612,0.63472 -7.94737,1.62081 -2.7313,1.03549 -5.31557,2.41881 -8.07339,3.3946 -2.78485,1.22707 -5.59657,2.13602 -8.68877,1.75843 -3.09719,-0.3409 -6.21461,-0.86801 -8.89101,-2.57307 -0.32658,-0.27338 -0.68987,-0.5081 -0.97974,-0.82013 -1.40485,-1.51225 -0.51763,-3.36214 0.52646,-4.79564 3.15847,-3.45061 8.52107,-5.55946 12.08238,-7.60207 2.56205,-1.46948 -10.22511,5.91787 -7.66188,4.45044 18.03171,-10.32304 5.83341,-3.4439 11.61438,-6.70073 -14.74473,8.6467 -6.59515,4.05066 -3.51685,1.73521 1.03349,-0.77737 1.36042,-1.18572 2.24739,-2.10271 1.29015,-1.16401 0.81236,-0.62764 1.8111,-1.90748 0.87379,-1.11972 1.0008,-1.58158 0.1763,-2.80002 -1.90771,-1.5405 -4.67315,-0.84509 -6.9387,-0.92177 -3.24564,0.11209 -6.50223,0.33447 -9.65046,1.19333 -3.32331,0.96486 -6.51003,2.21698 -9.61729,3.74521 -2.68135,1.33278 -5.3462,2.69769 -8.04312,3.9981 -4.08973,1.95085 -8.39418,3.44208 -12.34062,5.70309 -2.31635,1.17468 -2.09108,1.04173 -4.30774,2.23616 -0.54794,0.29526 -2.17299,1.21465 -1.63818,0.89621 2.63734,-1.57033 5.29469,-3.10681 7.94661,-4.6524 0.18335,-0.10686 -0.35783,0.44377 -0.54071,0.33611 -0.43733,-0.25743 -0.62172,-0.80223 -0.93258,-1.20334 -2.94377,1.75369 -5.85311,3.56652 -8.83131,5.26108 -0.17531,0.0998 0.24794,-0.31997 0.3932,-0.4599 1.02411,-0.98649 2.16548,-1.79043 3.32181,-2.61289 2.31623,-1.78097 -0.42903,0.26779 2.16142,-1.45784 1.72584,-1.14967 3.1267,-2.70519 4.55454,-4.19026 1.42325,-1.8377 2.72956,-3.77219 1.92662,-6.17355 -0.10786,-0.24734 -0.1766,-0.51572 -0.32356,-0.74202 -0.86986,-1.33944 -2.97604,-1.01066 -4.29949,-1.09381 -3.09294,0.16837 -6.18196,0.49375 -9.18089,1.30813 -2.77194,0.73219 -5.59052,1.33374 -8.21457,2.52639 -0.97567,0.49105 -1.94912,0.96815 -2.94073,1.42476 -0.32966,0.1518 -1.29367,0.65603 -0.98252,0.4692 10.74074,-6.44909 10.16598,-6.09763 6.91518,-3.97979 -1.97007,1.43356 -4.08056,2.66841 -5.98974,4.17335 -3.47063,2.76479 -7.53916,4.68645 -11.39661,6.83876 -0.28041,0.15645 -1.23941,0.41815 -1.60954,0.44446 -0.23759,0.0169 -0.47564,-0.0267 -0.71345,-0.0401 -1.93302,-0.86544 -1.6701,-2.03771 -0.34796,-3.38226 1.74922,-1.62829 3.47875,-3.31896 5.59077,-4.48498 2.22671,-1.43498 4.43326,-2.91458 6.40128,-4.69314 1.16997,-1.29279 0.54508,-0.44926 1.38857,-2.01081 0.80296,-1.48652 1.46465,-2.83549 1.15801,-4.59022 -0.095,-1.25363 -0.14268,-4.04037 -1.21452,-4.90974 -0.15159,-0.12296 -0.35786,-0.15595 -0.53679,-0.23392 -1.90743,-0.053 -3.61247,0.71625 -5.25302,1.63337 15.28396,-8.96554 5.99712,-4.35241 3.26455,-0.50372 -0.91459,0.94615 -1.63975,1.98155 -2.48928,2.97691 -0.68361,0.80095 -1.20795,1.17858 -1.94534,1.92336 -0.28444,0.28729 -0.54791,0.59461 -0.82186,0.89192 -1.49894,1.65046 -3.10228,3.1568 -4.56108,4.83519 -1.52444,1.75098 -3.21351,3.3712 -5.04366,4.79191 -1.97892,1.81469 -4.25429,3.26434 -6.34283,4.94967 -3.29287,1.93725 -6.56742,3.90598 -9.87861,5.81174 -0.83375,0.47987 -1.90878,0.91892 -2.86091,1.08503 -0.85672,0.14946 -0.94557,0.0822 -1.78618,-0.008 -2.46229,-0.91562 -2.61066,-2.23405 -1.63509,-4.51344 1.14161,-2.25349 2.94214,-3.87894 5.01523,-5.29372 0.33569,-0.29516 0.67137,-0.59032 1.00706,-0.88548 0.32238,-0.30924 0.63532,-0.62862 0.96715,-0.9277 1.28894,-1.16178 2.79487,-2.09851 3.52118,-3.75493 0.82833,-1.88126 0.68493,-3.37789 -0.11078,-5.25571 -0.96037,-1.35373 -2.52884,-1.5688 -4.10764,-1.35017 -0.82951,0.16858 -1.10644,0.1967 -1.90991,0.47293 -0.29196,0.10038 -1.12407,0.50383 -0.85997,0.34393 14.43415,-8.73949 9.99738,-5.6426 6.75483,-4.01464 -0.39245,0.34276 -0.72047,0.75497 -1.1132,1.09742 -0.1828,0.15939 -0.42756,0.23841 -0.60611,0.40256 -0.55569,0.51086 -1.0106,1.22348 -1.39138,1.86424 -0.54142,1.85424 -1.714,3.28567 -2.67123,4.9398 -0.80861,2.15351 -2.01984,4.12339 -2.69738,6.32927 -0.83152,2.06951 -2.18492,3.76593 -3.71367,5.37357 -1.0295,0.95565 -0.54485,0.44274 -1.45113,1.5414 -0.23973,0.23963 -0.49859,0.4664 -0.78828,0.64239 -3.48795,2.11901 -7.41003,4.75231 -11.34789,6.55573 -1.86534,0.61605 -3.78322,0.53741 -5.50589,-0.48765 -1.65534,-1.53539 -1.43506,-2.88395 -0.92073,-4.94564 0.57572,-1.72928 1.72484,-2.89329 3.10862,-4.04595 0.17995,-0.242 0.33668,-0.50313 0.53984,-0.72599 0.21952,-0.2408 0.95533,-0.78813 1.17393,-1.05139 0.16728,-0.20145 0.25505,-0.46006 0.4175,-0.66543 0.1487,-0.18799 0.33994,-0.33801 0.50991,-0.50702 0.15411,-0.20991 0.30822,-0.41981 0.46233,-0.62972 1.09853,-1.26031 -0.0641,0.1767 0.84527,-1.30001 0.47714,-0.77478 1.24973,-1.39889 1.83063,-2.08306 0.5048,-1.33315 0.72978,-2.57104 -0.22031,-3.79575 -0.4647,-0.22421 -0.4469,-0.28536 -1.01786,-0.23441 -3.60796,0.32195 -10.62612,6.05164 5.53508,-3.9375 -1.3573,0.7546 -2.68151,1.68312 -3.49064,3.0385 -0.43869,1.69008 -0.80272,3.4086 -1.47177,5.02725 -0.72837,1.58346 -0.68005,3.52645 -0.9968,5.2267 -0.23737,1.80382 -0.61163,3.56019 -1.40409,5.2129 -0.21585,1.75838 -0.71992,3.35193 -1.49613,4.94234 -0.81725,1.35929 -2.0502,2.31018 -2.87501,3.6757 -0.58303,0.54068 -0.89314,1.25582 -1.49666,1.73037 -0.63318,0.49786 -1.45519,0.82587 -2.13611,1.25074 -3.63869,2.82077 -0.82108,0.68333 -10.44542,6.26654 -1.14752,0.6657 -2.44462,1.07759 -3.74374,1.30665 -2.21537,0.17049 -4.50114,0.12159 -6.64076,-0.52856 -1.82036,-0.84743 -2.59027,-1.83833 -2.97161,-3.81758 -0.15341,-1.772 -0.0679,-3.57759 0.81147,-5.17203 0.58238,-0.8668 1.38226,-1.45571 2.07313,-2.22644 0.17782,-0.19838 0.27896,-0.45966 0.4662,-0.64918 0.17672,-0.17888 0.40767,-0.29447 0.6115,-0.4417 4.50797,-2.32692 8.52742,-5.62753 13.29467,-7.44661 0.79481,-0.34856 1.61223,-0.57193 2.41804,-0.88684 0.2458,-0.0961 0.94853,-0.46049 0.72154,-0.32587 -2.99256,1.77482 -21.07742,12.18798 1.36881,-0.75356 -2.77163,1.61324 -5.54344,3.22615 -8.31488,4.83972 -0.22627,0.13174 0.45387,-0.26125 0.67941,-0.39424 3.21018,-1.89295 6.46787,-3.7078 9.62774,-5.68359 2.75998,-1.72576 -5.62329,3.28054 -8.42765,4.9332 -0.34169,0.20136 1.39214,-0.67546 0.94638,-0.72109 1.24861,-0.81158 0.2392,-0.37191 1.071,-0.30216 0.32085,0.0269 -1.28616,-1.12268 -1.03787,-0.97134 -1.29621,-0.916 -2.44273,-2.0456 -3.97858,-2.57741 -1.54225,-0.556 -3.20499,-0.97758 -4.83108,-0.5748 -4.10064,1.06875 -11.36856,5.60436 4.42711,-3.38282 -0.22357,0.13884 -0.44713,0.27769 -0.6707,0.41654 -0.18558,0.17796 -0.34703,0.38513 -0.55675,0.53388 -0.19881,0.14101 -0.44533,0.20081 -0.6548,0.32542 -0.67533,0.40174 -1.0297,1.01893 -1.61447,1.52586 -1.7175,2.10814 0.66152,-0.70792 -1.07965,1.04541 -0.70072,0.70561 -1.1339,1.66295 -1.91584,2.2935 -0.3731,0.69609 -0.75635,1.43243 -1.17102,2.10093 -0.96476,1.55532 0.0249,-0.29725 -0.98939,1.1713 -0.15259,0.22095 -0.24436,0.47822 -0.36655,0.71733 -0.49142,0.59436 -0.86569,1.34399 -1.4533,1.85083 -0.18756,0.16177 -0.43455,0.24291 -0.62668,0.39923 -0.19736,0.16057 -0.35611,0.36348 -0.53416,0.54522 -0.21334,0.15814 -0.42667,0.31629 -0.64,0.47443 -3.23355,1.90011 -6.52465,3.70551 -9.70063,5.70034 -2.71173,1.70323 11.11268,-6.36891 8.30714,-4.82509 -3.28128,1.80561 -6.45439,3.80322 -9.73467,5.61062 -2.77805,1.53068 5.48513,-3.18675 8.22762,-4.78025 0.26748,-0.15542 -0.53505,0.31067 -0.80258,0.46601 -3.27057,1.89092 -6.54115,3.78183 -9.81172,5.67275 -1.95707,0.9501 -3.84704,2.12472 -6.0533,2.39661 0,0 8.48328,-6.34931 8.48328,-6.34931 z"
         id="path4537"
         style="fill:#552200;fill-opacity:1;stroke:none" />
    </g>
  </g>
</svg>
