<?xml version="1.0" encoding="UTF-8" standalone="no"?>
<!-- Created with Inkscape (http://www.inkscape.org/) -->

<svg
   xmlns:dc="http://purl.org/dc/elements/1.1/"
   xmlns:cc="http://creativecommons.org/ns#"
   xmlns:rdf="http://www.w3.org/1999/02/22-rdf-syntax-ns#"
   xmlns:svg="http://www.w3.org/2000/svg"
   xmlns="http://www.w3.org/2000/svg"
   xmlns:sodipodi="http://sodipodi.sourceforge.net/DTD/sodipodi-0.dtd"
   xmlns:inkscape="http://www.inkscape.org/namespaces/inkscape"
   inkscape:version="0.48.5 r10040"
   version="1.1"
   id="svg22218"
   height="1052.3622047"
   width="744.09448819"
   sodipodi:docname="tornado.svg">
  <sodipodi:namedview
     id="base"
     pagecolor="#ffffff"
     bordercolor="#666666"
     borderopacity="1.0"
     inkscape:pageopacity="0.0"
     inkscape:pageshadow="2"
     inkscape:zoom="0.49497475"
     inkscape:cx="357.94056"
     inkscape:cy="535.87652"
     inkscape:document-units="px"
     inkscape:current-layer="layer24"
     showgrid="false"
     inkscape:window-width="1680"
     inkscape:window-height="988"
     inkscape:window-x="1592"
     inkscape:window-y="-8"
     inkscape:window-maximized="1" />
  <defs
     id="defs22220">
    <inkscape:path-effect
       is_visible="true"
       id="path-effect22603"
       effect="spiro" />
  </defs>
  <metadata
     id="metadata22223">
    <rdf:RDF>
      <cc:Work
         rdf:about="">
        <dc:format>image/svg+xml</dc:format>
        <dc:type
           rdf:resource="http://purl.org/dc/dcmitype/StillImage" />
        <dc:title></dc:title>
      </cc:Work>
    </rdf:RDF>
  </metadata>
  <g
     inkscape:label="path"
     inkscape:groupmode="layer"
     id="layer1" />
  <g
     inkscape:label="text"
     id="layer24"
     inkscape:groupmode="layer">
    <g
       style="font-size:40px;font-style:normal;font-weight:normal;line-height:125%;letter-spacing:0px;word-spacing:0px;fill:#ffffff;fill-opacity:1;stroke:none;font-family:Sans"
       id="g9099"
       inkscape:export-filename="Z:\android\androidstudio\projects\What2wear\images\mine\tornado.png"
       inkscape:export-xdpi="90"
       inkscape:export-ydpi="90">
      <path
         d="M235.11293443 265.598880091C235.11293443 265.598880091 232.511067279 240.480241541 232.511067279 240.480241541C232.511067279 240.480241541 223.127994224 241.452169598 223.127994224 241.452169598C223.127994224 241.452169598 222.779870768 238.091357248 222.779870768 238.091357248C222.779870768 238.091357248 245.608202254 235.919035723 245.608202254 235.919035723C245.608202254 235.919035723 245.900514094 239.28524533 245.900514094 239.28524533C245.900514094 239.28524533 236.463459216 240.104731696 236.463459216 240.104731696C236.463459216 240.104731696 238.648191565 265.263709235 238.648191565 265.263709235C238.648191565 265.263709235 235.11293443 265.598880091 235.11293443 265.598880091M430.571172562 274.03098499C430.571172562 274.03098499 437.851115633 249.850061371 437.851115633 249.850061371C437.851115633 249.850061371 428.489148014 247.177297141 428.489148014 247.177297141C428.489148014 247.177297141 429.372924971 243.916116647 429.372924971 243.916116647C429.372924971 243.916116647 452.645411135 251.591821149 452.645411135 251.591821149C452.645411135 251.591821149 451.352556296 254.713385124 451.352556296 254.713385124C451.352556296 254.713385124 441.767431852 251.13138547 441.767431852 251.13138547C441.767431852 251.13138547 433.7563593 275.079839988 433.7563593 275.079839988C433.7563593 275.079839988 430.571172562 274.03098499 430.571172562 274.03098499M379.960132744 324.615358593C379.960132744 324.615358593 378.142042695 349.803560564 378.142042695 349.803560564C378.142042695 349.803560564 387.549664138 350.483300272 387.549664138 350.483300272C387.549664138 350.483300272 387.305978862 353.85338972 387.305978862 353.85338972C387.305978862 353.85338972 364.671567066 352.218936659 364.671567066 352.218936659C364.671567066 352.218936659 364.914823064 348.848816894 364.914823064 348.848816894C364.914823064 348.848816894 374.362839936 349.530776864 374.362839936 349.530776864C374.362839936 349.530776864 376.180929985 324.342574893 376.180929985 324.342574893C376.180929985 324.342574893 379.960132744 324.615358593 379.960132744 324.615358593M346.033877188 411.912517998C346.033877188 411.912517998 345.462935294 386.665293387 345.462935294 386.665293387C345.462935294 386.665293387 336.223287724 386.735282193 336.223287724 386.735282193C336.223287724 386.735282193 336.206671249 383.356476757 336.206671249 383.356476757C336.206671249 383.356476757 358.441341087 382.907764424 358.441341087 382.907764424C358.441341087 382.907764424 358.565178003 386.284381546 358.565178003 386.284381546C358.565178003 386.284381546 349.250993728 386.57963006 349.250993728 386.57963006C349.250993728 386.57963006 349.821935622 411.826854671 349.821935622 411.826854671C349.821935622 411.826854671 346.033877188 411.912517998 346.033877188 411.912517998M412.311498407 437.618804157C412.311498407 437.618804157 413.290871804 462.853476577 413.290871804 462.853476577C413.290871804 462.853476577 422.909723134 462.388226721 422.909723134 462.388226721C422.909723134 462.388226721 423.10160807 465.761617759 423.10160807 465.761617759C423.10160807 465.761617759 399.959582161 466.587820127 399.959582161 466.587820127C399.959582161 466.587820127 399.877086979 463.209941289 399.877086979 463.209941289C399.877086979 463.209941289 409.346856153 462.978668834 409.346856153 462.978668834C409.346856153 462.978668834 408.730288953 437.732475712 408.730288953 437.732475712C408.730288953 437.732475712 412.311498407 437.618804157 412.311498407 437.618804157M413.962748773 521.02383042C413.962748773 521.02383042 425.606953078 498.618239299 425.606953078 498.618239299C425.606953078 498.618239299 414.583605124 494.591032725 414.583605124 494.591032725C414.583605124 494.591032725 415.473710339 491.331617582 415.473710339 491.331617582C415.473710339 491.331617582 442.912662418 510.198942355 442.912662418 510.198942355C442.912662418 510.198942355 439.938400646 511.801669124 439.938400646 511.801669124C439.938400646 511.801669124 430.033635099 501.186650273 430.033635099 501.186650273C430.033635099 501.186650273 415.749176138 522.006699202 415.749176138 522.006699202C415.749176138 522.006699202 413.962748773 521.02383042 413.962748773 521.02383042"
         style="fill:#ffffff"
         id="path22742" />
      <path
         d="M249.617853538 250.333996207C249.283159034 245.59326806 250.293989109 241.791991116 252.650353033 238.930154695C255.006700528 236.068369559 258.198070964 234.495330651 262.224464342 234.211037971C264.861079342 234.024923529 267.555730854 234.532863616 269.740246691 235.685026557C271.924715166 236.837242003 273.630928598 238.512762669 274.858906445 240.711577542C276.086826945 242.910445434 276.774448497 245.440227893 276.921772644 248.300954879C277.071046851 251.20072253 276.619471948 253.825017118 275.567028988 256.173859644C274.514536609 258.522714727 272.945826433 260.340771768 270.860879002 261.628041781C268.775892139 262.915323838 266.772309798 263.592222743 264.29155693 263.767363423C261.602954127 263.957178269 259.154267725 263.477403073 256.94548775 262.32803854C254.736677849 261.17867612 253.007454701 259.519018213 251.757807626 257.349055547C250.508141306 255.179104265 249.794830161 252.840754007 249.617853538 250.333996207C249.617853538 250.333996207 249.617853538 250.333996207 249.617853538 250.333996207M449.553204474 266.214033599C451.546677486 261.900122759 454.265581878 259.05808994 457.709930921 257.687930258C461.154240838 256.317807572 465.823477947 257.334377375 469.313951022 259.360733837C471.599599804 260.687699961 474.733191068 263.654153881 475.647620753 265.948301875C476.561980332 268.242459083 477.235067858 271.101366054 476.579320974 273.532888664C475.923496019 275.9644092 474.703890879 278.345085315 472.737035615 280.427472848C470.743296677 282.538235219 468.68561498 284.150796679 466.292412892 285.09781973C463.899166655 286.044817272 462.087414844 286.787512836 459.665789898 286.413995958C457.244127136 286.040462655 456.573358179 286.220437544 454.42280845 284.971937745C452.092074863 283.618832362 450.926130433 282.208218352 449.638936973 280.077039019C448.351716866 277.945845909 448.091914718 275.894267807 448.043987251 273.390811824C447.996037436 270.88735653 448.499114497 268.495102943 449.553204474 266.214033599C449.553204474 266.214033599 449.553204474 266.214033599 449.553204474 266.214033599M362.976629212 337.375811669C362.700376255 342.12032575 361.210232118 345.760531136 358.506186237 348.296437229C355.802163228 350.83229457 352.692130678 352.001928739 348.659089114 351.837383174C346.018126187 351.729583859 344.010739788 351.011514737 341.909208267 349.714225348C339.80772755 348.416886781 338.218800634 346.629804581 337.14240736 344.352988422C336.066074889 342.076123247 335.551181599 339.505658588 335.597727977 336.641564451C335.644969928 333.73838779 336.27303889 331.150696663 337.481955186 328.878471397C338.690921637 326.606236946 340.379006065 324.898498613 342.546228631 323.755246724C344.713491352 322.611985488 347.401789409 322.133055481 349.88663632 322.234454175C352.579676185 322.34434856 355.205127052 323.117533505 357.248214788 324.54076813C359.291332473 325.964004498 360.793358805 327.831796323 361.754303186 330.144154168C362.715268115 332.456503193 363.122703662 334.867051978 362.976629212 337.375811669C362.976629212 337.375811669 362.976629212 337.375811669 362.976629212 337.375811669M361.731668616 397.484367381C361.557486383 392.735002418 362.696296976 388.970060415 365.148110021 386.189531012C367.599904912 383.409052309 370.843631162 381.944851541 374.877370238 381.797147193C377.518793757 381.700475261 379.923096096 382.244383006 382.090287247 383.428870063C384.257430262 384.613408915 385.938594934 386.314099564 387.133800883 388.530931285C388.328948703 390.747815167 389.018901112 393.298538361 389.083438274 396.162356399C389.148795717 399.065255536 388.699469453 401.669216427 387.612252409 404.002198764C386.524985766 406.335192923 384.929434265 408.129776179 382.825578287 409.385959257C380.721682701 410.642153792 378.427105673 411.315738448 375.941827581 411.406723949C373.248320407 411.505332672 370.818201352 410.942843114 368.649540388 409.719431827C366.480849445 408.496021641 364.808731217 406.778823418 363.633175347 404.567827533C362.457599857 402.356842373 361.823771064 399.995692076 361.731668616 397.484367381C361.731668616 397.484367381 361.731668616 397.484367381 361.731668616 397.484367381M396.847946338 451.971991504C396.963775068 456.723136696 395.7788028 460.47380486 393.293019779 463.224006237C390.807255534 465.974157142 387.756345707 467.359128666 383.722919332 467.514923359C381.08170048 467.616893112 378.928765734 467.072065132 376.738569279 465.930742013C374.548419925 464.789366157 373.081023203 463.10399152 371.787676901 460.943030321C370.49438633 458.782014409 369.731218322 456.274035034 369.498170436 453.419062296C369.26200258 450.525125609 369.634664597 447.888514005 370.616174794 445.509205926C371.59773401 443.129883814 373.410857028 441.291203864 375.489398471 439.993619342C377.567979286 438.696022582 380.113989432 438.00357248 382.599074899 437.907602333C385.292373308 437.803591326 387.927422622 438.40291691 390.080891322 439.652875049C392.234390012 440.902832457 393.885287962 442.640440727 395.033595411 444.865709613C396.181922611 447.090968015 396.786699507 449.459725475 396.847946338 451.971991504C396.847946338 451.971991504 396.847946338 451.971991504 396.847946338 451.971991504M431.092086215 519.62479525C435.549064272 517.976033171 440.108416375 519.740390962 443.071287141 521.966925991C446.034105957 524.193446887 445.848174044 535.692445043 444.068374825 539.314262147C442.902860675 541.685922243 437.538302537 547.352152142 435.121925703 547.86187969C432.705551746 548.371536593 429.273561664 548.785072609 427.050400997 547.601906823C424.827259819 546.418665409 422.778928846 544.681003839 421.18207576 542.302943042C419.563482123 539.892397489 418.467849721 537.532602587 418.080303259 534.988178113C417.692791536 532.443716317 416.90170572 530.946947604 417.682732523 528.624623071C418.463781959 526.302264078 416.39526905 528.463755857 417.491859985 526.232280987C418.680328817 523.813841945 418.305056274 527.293710242 419.703541824 525.234442537C421.102028762 523.175144872 422.771166176 524.656048162 424.662241167 523.014923046C426.553301307 521.373781215 428.735367127 520.496612211 431.092086215 519.62479525C431.092086215 519.62479525 431.092086215 519.62479525 431.092086215 519.62479525M253.518480864 250.117357756C253.761479614 253.559275677 254.87831251 256.205257561 256.868989528 258.055302705C258.859657276 259.905358528 261.251237579 260.731811707 264.043750387 260.534660835C266.88817331 260.333845119 268.961772243 259.245387274 270.698664941 257.148127799C272.435518207 255.050880367 273.209212342 252.162277172 273.019757333 248.482317701C272.899893366 246.154724292 272.401929003 244.143205649 271.525863214 242.4477418C270.649759535 240.752319953 269.429669635 239.465729708 267.865582499 238.587951605C266.301468488 237.710234964 264.356937574 237.330311931 262.473648371 237.46325174C259.798044455 237.652168916 257.560730431 238.733623821 255.761726954 240.70762502C253.962706344 242.681667527 253.214964297 245.818244637 253.518480864 250.117357756C253.518480864 250.117357756 253.518480864 250.117357756 253.518480864 250.117357756M453.074315425 267.905700485C451.626991244 271.037735601 451.062000884 273.77385621 451.798199162 276.389642121C452.534383966 279.005432322 453.612736872 280.753129962 456.033549417 282.158530607C458.499362529 283.590056291 459.766978665 283.3688416 462.449392381 282.900231998C465.13176828 282.431605972 467.47862208 280.687941618 469.816288843 277.839688061C471.294850996 276.038130934 472.184215594 274.110801751 472.617857212 272.252342875C473.051442746 270.39389137 472.730812352 268.452101246 472.058423458 266.7893847C471.385975173 265.126699338 469.325991387 263.138883225 467.693390574 262.191055101C465.373914382 260.844508312 462.448413424 260.255172542 459.884883135 261.003709388C457.321316714 261.752272578 454.882089614 263.993645183 453.074315425 267.905700485C453.074315425 267.905700485 453.074315425 267.905700485 453.074315425 267.905700485M359.080423206 337.090253344C359.280991552 333.645586716 358.51283253 330.878179497 356.775936158 328.788031104C355.039050349 326.69787331 352.571080856 325.588807307 349.773959501 325.474665687C346.924842363 325.358402286 344.279765668 326.260880867 342.404998413 328.235799845C340.530271314 330.210709475 339.562945516 333.040307826 339.50301102 336.724594737C339.465134758 339.054927486 339.82586938 341.095493446 340.58521456 342.846312613C341.344600383 344.597092438 342.474836693 345.963254767 343.975933163 346.944819761C345.477060603 347.926325253 346.886168423 348.500630489 348.772563435 348.577628281C351.452585187 348.686971422 353.611148844 347.861397543 355.648537777 346.134491186C357.685949002 344.407546059 358.829904156 341.392799724 359.080423206 337.090253344C359.080423206 337.090253344 359.080423206 337.090253344 359.080423206 337.090253344M365.63741558 397.399763711C365.763877366 400.847952232 366.790596078 403.530206503 368.717581709 405.446526156C370.644557714 407.362856169 373.006089184 408.26988089 375.803695909 408.167461104C378.653307439 408.063137433 380.962039669 406.975340429 382.72990296 404.904079717C384.497726644 402.832830462 385.314237397 399.956001683 385.179445214 396.273593015C385.094155771 393.944449991 384.626109909 391.925736016 383.775306897 390.217431102C382.924465374 388.509167624 381.723600878 387.204587418 380.172702683 386.303670864C378.621776704 385.402815366 376.902941408 384.986904264 375.016217513 385.05595681C372.335732259 385.154108817 370.062355814 386.15917148 368.197612899 388.071216863C366.332851462 389.983302953 365.479459018 393.092818324 365.63741558 397.399763711C365.63741558 397.399763711 365.63741558 397.399763711 365.63741558 397.399763711M392.941455672 452.008611299C392.857360366 448.559130274 391.863667663 445.864466952 389.960367567 443.924621575C388.057077223 441.984765958 385.541093272 441.038544056 382.743703381 441.146574915C379.894312713 441.256613963 377.400286933 442.366832184 375.673809338 444.47267088C373.947371114 446.578497338 373.18800075 449.470896541 373.395688262 453.149869054C373.52708438 455.476838044 374.035009729 457.485862837 374.919465435 459.176963402C375.803958822 460.868021775 377.03040808 462.148549375 378.598824321 463.018565603C380.167267131 463.888520237 381.690958341 464.32924221 383.577536043 464.25640552C386.257813502 464.152877347 388.378772925 463.193997786 390.266861944 461.305003248C392.154969983 459.415968234 393.046494561 456.31717108 392.941455672 452.008611299C392.941455672 452.008611299 392.941455672 452.008611299 392.941455672 452.008611299M431.936254548 523.330260439C428.509318856 523.725646666 426.023727293 523.895040904 423.954926513 525.656140597C421.886116209 527.417229841 421.643974865 525.132440069 420.409573699 527.644347739C419.152226209 530.202949345 420.665865212 529.24366605 420.670108778 531.966567797C420.674374977 534.689435085 422.103923121 537.132235408 424.36311687 540.043057607C425.792095429 541.884149021 427.485058131 543.139072732 429.207434403 543.96071645C430.929815489 544.782303808 433.659409852 544.131770252 435.380464639 543.627692311C437.101494291 543.123552185 440.300604831 539.587607828 441.133110507 537.893570682C442.315815993 535.48681425 443.059193794 528.593418759 441.308706887 526.577240418C439.558180959 524.561040253 436.216654176 522.836404933 431.936254548 523.330260439C431.936254548 523.330260439 431.936254548 523.330260439 431.936254548 523.330260439"
         style="fill:#ffffff"
         id="path22744" />
      <path
         d="M282.571183104 262.306068926C282.571183104 262.306068926 281.098904028 233.711656349 281.098904028 233.711656349C281.098904028 233.711656349 294.018055903 233.207943256 294.018055903 233.207943256C296.568541665 233.118462237 298.692686104 233.345280489 300.03210914 233.829395192C301.371503541 234.313570557 302.452956514 235.197539587 303.276497596 236.481281609C304.099980052 237.765084973 304.529558603 239.194524056 304.565213481 240.76960931C304.611137041 242.800345619 303.992487638 244.527007927 302.709265274 245.949596235C301.425993602 247.372215665 299.415304296 248.303345937 296.677197129 248.742977051C297.690410459 249.201953865 298.462679655 249.659860199 298.99399472 250.11669628C300.123425353 251.10702658 301.200044133 252.35251486 302.223851062 253.853161118C302.223851062 253.853161118 307.182489849 261.537465863 307.182489849 261.537465863C307.182489849 261.537465863 302.614897072 261.639222595 302.614897072 261.639222595C302.614897072 261.639222595 298.692096492 255.769460556 298.692096492 255.769460556C297.546722828 254.07620605 296.605757387 252.782067401 295.869199942 251.887034612C295.132612958 250.992022496 294.513287 250.382039134 293.934461242 250.037541105C293.355605854 249.693054122 292.7708885 249.459520357 292.180308478 249.336919824C291.747680168 249.26094766 291.043387217 249.24002749 290.067443478 249.274268895C290.067443478 249.274268895 285.675643263 249.428402119 285.675643263 249.428402119C285.675643263 249.428402119 286.121602054 262.13534394 286.121602054 262.13534394C286.121602054 262.13534394 282.571183104 262.306068926 282.571183104 262.306068926M465.606470587 293.555140181C465.606470587 293.555140181 486.785921601 274.289563606 486.785921601 274.289563606C486.785921601 274.289563606 496.172043724 288.520235614 496.172043724 288.520235614C497.234307342 290.840455004 498.324790692 294.706299856 498.203193574 296.125194366C498.081530461 297.544076889 497.750115707 299.972595969 496.618190202 300.994622592C495.486194611 302.016601397 494.146213304 302.673778655 492.598232745 302.966136571C490.602434678 303.343024537 488.802636762 302.877193118 487.14149764 301.923064512C485.480317697 300.968894277 484.173007577 299.322956277 482.80037328 296.913600908C482.726253723 298.023350397 482.490550691 298.819379761 482.217666338 299.464700648C481.619285669 300.842341641 480.564894644 301.798650401 479.314131912 303.115885274C479.314131912 303.115885274 472.384187744 308.465917397 472.384187744 308.465917397C472.384187744 308.465917397 471.786504634 305.140573301 471.786504634 305.140573301C471.786504634 305.140573301 476.742907292 300.902068719 476.742907292 300.902068719C478.005757366 299.294761825 478.993549248 298.264341291 479.573042521 297.260575588C480.152506069 296.256789484 480.507266768 295.5740926 480.602974682 294.907401395C480.698661017 294.240687078 480.68631744 293.71254221 480.544704864 293.126283909C480.428457419 292.702736644 480.149487066 292.140903094 479.661479053 291.295131604C479.661479053 291.295131604 477.319348753 287.835255455 477.319348753 287.835255455C477.319348753 287.835255455 467.246526865 295.592912277 467.246526865 295.592912277C467.246526865 295.592912277 465.606470587 293.555140181 465.606470587 293.555140181M330.297408957 322.396315129C330.297408957 322.396315129 331.052731044 351.018668688 331.052731044 351.018668688C331.052731044 351.018668688 319.445948267 351.576701416 319.445948267 351.576701416C316.907073221 351.834916888 315.40587424 351.743212872 314.021069614 351.4107022C312.636286715 351.078128065 311.909822061 350.271359868 310.905807906 349.123362136C309.901842675 347.975295082 309.265937215 346.625036134 308.998109535 345.07257204C308.652848189 343.070994127 309.009733925 341.27201344 310.068766743 339.675629977C311.127843731 338.079208454 313.053968618 336.921005514 315.748922106 336.267360388C314.702775359 335.889523507 313.82452126 335.50452723 313.245827709 335.109474602C312.013550926 334.250598518 310.805450644 333.132291593 309.621526865 331.754553826C309.621526865 331.754553826 302.564271886 325.119499015 302.564271886 325.119499015C302.564271886 325.119499015 307.845478266 324.144961393 307.845478266 324.144961393C307.845478266 324.144961393 312.91873506 329.458355298 312.91873506 329.458355298C314.244837765 331.014017525 315.502407752 332.235293134 316.30706643 333.069583907C317.111752928 333.903851747 317.895502531 334.465684098 318.486949316 334.787999964C319.078425291 335.110303669 319.671555813 335.321514344 320.266342338 335.421651935C320.701527886 335.48117917 321.445021981 335.455812938 322.42042026 335.408853823C322.42042026 335.408853823 326.845145086 335.206465674 326.845145086 335.206465674C326.845145086 335.206465674 326.509732687 322.496269018 326.509732687 322.496269018C326.509732687 322.496269018 330.297408957 322.396315129 330.297408957 322.396315129M394.325538428 410.325116228C394.325538428 410.325116228 393.680757003 381.699815713 393.680757003 381.699815713C393.680757003 381.699815713 406.9809957 381.617976098 406.9809957 381.617976098C409.532473239 381.66868165 411.467016964 381.964305896 412.784636871 382.504849034C414.102225595 383.045451562 415.546759446 384.032382275 416.27068951 385.37472656C416.994556473 386.717127568 417.314644355 388.174912735 417.230932653 389.748090983C417.122958616 391.776365148 416.375379196 393.451134518 414.988194394 394.772399094C413.600958071 396.093690969 411.553770144 396.939151097 408.799539629 397.262099966C409.792320579 397.763676113 410.544426853 398.2539511 411.055848454 398.732924728C412.142174773 399.770295534 412.998571175 401.042315622 413.905757804 402.616093482C413.905757804 402.616093482 418.464709018 410.662266033 418.464709018 410.662266033C418.464709018 410.662266033 413.706115138 410.408991942 413.706115138 410.408991942C413.706115138 410.408991942 410.514186652 404.367613668 410.514186652 404.367613668C409.441781751 402.62729513 408.556646612 401.294401581 407.858781434 400.368923023C407.160885865 399.443463864 406.532423527 398.792858159 405.973404418 398.417106106C405.414355116 398.041363454 404.890131228 397.789235505 404.303523354 397.648887202C403.873387621 397.559907476 403.170054446 397.517763764 402.193534372 397.522566012C402.193534372 397.522566012 397.799139262 397.5442214 397.799139262 397.5442214C397.799139262 397.5442214 397.861795517 410.258671118 397.861795517 410.258671118C397.861795517 410.258671118 394.325538428 410.325116228 394.325538428 410.325116228M362.958146787 439.690300839C362.958146787 439.690300839 366.243609664 468.132212769 366.243609664 468.132212769C366.243609664 468.132212769 355.354348073 469.787266049 355.354348073 469.787266049C352.870807232 470.374164217 351.989933949 470.332017074 350.568337118 470.247250275C349.146750561 470.162417191 348.407531165 469.471774653 347.208694472 468.529141744C346.009893048 467.586431669 345.540432702 466.23924042 344.91300003 464.794292619C344.104101899 462.9313235 343.894387831 461.163737491 344.640119089 459.399198945C345.38588672 457.634614832 347.1068994 456.089783349 349.693650054 455.090490928C348.607194226 454.852223424 347.690184876 454.63711135 347.063671621 454.323389562C345.727196299 453.637860514 343.966422879 452.856040077 342.50729417 451.774176549C342.50729417 451.774176549 333.711361004 447.0248891 333.711361004 447.0248891C333.711361004 447.0248891 339.585073106 444.547516978 339.585073106 444.547516978C339.585073106 444.547516978 345.980350198 448.767515888 345.980350198 448.767515888C347.503409223 450.130900439 348.923747568 451.124984384 349.830266529 451.847280555C350.736810084 452.569550364 351.5974403 453.021047314 352.224925713 453.265896428C352.852438543 453.510729783 353.467529374 453.645155345 354.07020218 453.669192713C354.509418503 453.673150597 355.256036681 453.588821025 356.218223583 453.422117469C356.218223583 453.422117469 360.653309224 452.755144124 360.653309224 452.755144124C360.653309224 452.755144124 359.194348863 440.12507535 359.194348863 440.12507535C359.194348863 440.12507535 362.958146787 439.690300839 362.958146787 439.690300839M410.077888621 532.296987845C410.077888621 532.296987845 423.865937602 557.389029035 423.865937602 557.389029035C423.865937602 557.389029035 411.081199432 563.498713014 411.081199432 563.498713014C408.729545268 564.489984406 406.841923026 565.006612426 405.41832349 565.048600959C403.994728293 565.090522551 402.609469758 564.67963735 401.375896896 563.78268279C400.142356377 562.885649784 399.222923284 561.709855613 398.61761224 560.255283361C397.837235493 558.379906217 397.78649152 556.546456465 398.465380322 554.754934106C399.144303761 552.96336484 400.672922971 551.360849122 403.057860486 549.945753953C401.946880851 549.891242227 401.060377771 549.749181344 400.398360463 549.519567419C398.984028807 549.013594434 397.545914976 548.241102943 396.046970055 547.214795662C396.046970055 547.214795662 388.454774502 541.933385112 388.454774502 541.933385112C388.454774502 541.933385112 392.854631837 540.102477832 392.854631837 540.102477832C392.854631837 540.102477832 398.601793992 544.15143172 398.601793992 544.15143172C400.289271107 545.305280239 401.639972869 546.163060648 402.653903162 546.724782161C403.667853331 547.286473591 404.506595968 547.625294513 405.170121857 547.74124881C405.833671507 547.857182239 406.424380567 547.86397971 407.018091525 547.757593277C407.447854792 547.666818987 408.085482715 547.452107793 408.969924153 547.038143755C408.969924153 547.038143755 412.895006997 545.165766259 412.895006997 545.165766259C412.895006997 545.165766259 407.18378424 533.806403923 407.18378424 533.806403923C407.18378424 533.806403923 410.077888621 532.296987845 410.077888621 532.296987845M285.56055709 246.14919036C285.56055709 246.14919036 293.700027886 245.86353008 293.700027886 245.86353008C295.430712506 245.802800529 296.801239066 245.591617693 297.769462933 245.211533431C298.73764749 244.831480066 299.466684164 244.241933759 299.956572502 243.442874517C300.446411758 242.643856395 300.680881148 241.782218774 300.65999067 240.857961428C300.629342318 239.504167968 300.112761245 238.402298212 299.110227458 237.552352613C298.107664356 236.702437684 296.406247386 236.290147395 294.285184709 236.364557518C294.285184709 236.364557518 285.228314135 236.682414569 285.228314135 236.682414569C285.228314135 236.682414569 285.56055709 246.14919036 285.56055709 246.14919036M479.918787427 285.833278911C479.918787427 285.833278911 484.366343572 293.087714002 484.366343572 293.087714002C485.087173985 294.662142653 485.857428565 295.99598178 486.514786213 296.801962017C487.172102445 297.607914248 487.999056107 298.269072604 488.897474201 298.53584849C489.795839894 298.802587587 490.68871912 298.806472858 491.576114681 298.5475139C492.875902602 298.168159638 493.71364952 296.955566912 494.217074237 295.741594723C494.720460804 294.52760398 494.243893022 291.908887589 493.360486478 289.979319593C493.360486478 289.979319593 487.423122282 280.053761003 487.423122282 280.053761003C487.423122282 280.053761003 479.918787427 285.833278911 479.918787427 285.833278911M326.93170315 338.486517392C326.93170315 338.486517392 318.879326712 338.950036157 318.879326712 338.950036157C317.152225555 339.076281629 315.873166561 339.418613244 314.937872246 339.873672035C314.002614688 340.328696934 313.427819127 341.000159692 313.029623072 341.84859993C312.631471232 342.696993858 312.494048858 343.579287464 312.617346038 344.495482082C312.797992918 345.8374603 313.433603713 346.875171677 314.524198243 347.608613547C315.614818502 348.342021684 316.858926221 348.659550235 318.970333402 348.444815323C318.970333402 348.444815323 327.181588136 347.955718063 327.181588136 347.955718063C327.181588136 347.955718063 326.93170315 338.486517392 326.93170315 338.486517392M397.782969901 394.263072118C397.782969901 394.263072118 405.968529439 394.23664024 405.968529439 394.23664024C407.699887618 394.271037188 409.057288503 394.118937788 410.040752487 393.780322441C411.024175884 393.441736293 411.777569831 392.883696566 412.300934726 392.106183265C412.824248839 391.328708962 413.09508963 390.477829113 413.113467097 389.553543916C413.140335983 388.199707567 412.671025987 387.076925616 411.705517113 386.185197664C410.739977651 385.293499109 409.196269025 384.826578253 407.074381833 384.784404905C407.074381833 384.784404905 397.736290478 384.790702881 397.736290478 384.790702881C397.736290478 384.790702881 397.782969901 394.263072118 397.782969901 394.263072118M361.029815235 456.014517672C361.029815235 456.014517672 353.141013469 457.344742915 353.141013469 457.344742915C351.443802823 457.688604661 350.291927233 458.178264823 349.44541596 458.782598896C348.59893529 459.386893433 348.160548246 460.101944273 347.917152926 461.006994463C347.673793023 461.911991316 347.693061195 462.804687688 347.97494792 463.68508663C348.387884975 464.974625117 348.830402581 465.957047611 350.009630452 466.537315439C351.188879287 467.117546384 352.409230602 467.232189342 354.474620805 466.744111667C354.474620805 466.744111667 362.11675266 465.424022414 362.11675266 465.424022414C362.11675266 465.424022414 361.029815235 456.014517672 361.029815235 456.014517672M414.368871369 548.097215469C414.368871369 548.097215469 406.8746239 551.558546696 406.8746239 551.558546696C405.278864243 552.23120399 404.100594071 552.922169387 403.339802724 553.631469085C402.579036584 554.340725601 402.117669762 555.156930385 401.955710028 556.080101866C401.79378083 557.003217066 401.892363117 557.890723683 402.251447674 558.742625601C402.777457784 559.990419306 403.662816036 560.825342862 404.907540859 561.247388501C406.152281673 561.669394843 407.752496637 561.468202554 409.708206619 560.643835393C409.708206619 560.643835393 418.623779127 556.560033501 418.623779127 556.560033501C418.623779127 556.560033501 414.368871369 548.097215469 414.368871369 548.097215469"
         style="fill:#ffffff"
         id="path22746" />
      <path
         d="M310.756537797 261.505728111C310.756537797 261.505728111 310.502289035 232.874296414 310.502289035 232.874296414C310.502289035 232.874296414 314.388821939 232.839783779 314.388821939 232.839783779C314.388821939 232.839783779 329.502556308 255.354044585 329.502556308 255.354044585C329.502556308 255.354044585 329.645105746 232.874267996 329.645105746 232.874267996C329.645105746 232.874267996 333.519523567 232.947323761 333.519523567 232.947323761C333.519523567 232.947323761 332.852822239 261.571987577 332.852822239 261.571987577C332.852822239 261.571987577 329.209651939 261.504584828 329.209651939 261.504584828C329.209651939 261.504584828 314.189391246 238.9745531 314.189391246 238.9745531C314.189391246 238.9745531 314.389182923 261.473470014 314.389182923 261.473470014C314.389182923 261.473470014 310.756537797 261.505728111 310.756537797 261.505728111M472.544394552 310.687394921C472.544394552 310.687394921 501.146178021 309.410322828 501.146178021 309.410322828C501.146178021 309.410322828 501.114947518 314.624020297 501.114947518 314.624020297C501.114947518 314.624020297 475.357046371 322.659737238 475.357046371 322.659737238C475.357046371 322.659737238 492.814665966 336.818019956 492.814665966 336.818019956C492.814665966 336.818019956 488.651126889 341.197525728 488.651126889 341.197525728C488.651126889 341.197525728 469.765438941 319.680685608 469.765438941 319.680685608C469.765438941 319.680685608 470.739241523 318.587800187 470.739241523 318.587800187C470.739241523 318.587800187 495.002189497 314.073941799 495.002189497 314.073941799C495.002189497 314.073941799 472.530720879 312.986143493 472.530720879 312.986143493C472.530720879 312.986143493 472.544394552 310.687394921 472.544394552 310.687394921M298.411893418 326.093656851C298.411893418 326.093656851 305.812082175 353.750353852 305.812082175 353.750353852C305.812082175 353.750353852 302.83989944 354.615469076 302.83989944 354.615469076C302.83989944 354.615469076 279.977420427 341.794040673 279.977420427 341.794040673C279.977420427 341.794040673 294.39228983 359.041453235 294.39228983 359.041453235C294.39228983 359.041453235 293.4983358 360.000655918 293.4983358 360.000655918C293.4983358 360.000655918 271.831425055 341.288012107 271.831425055 341.288012107C271.831425055 341.288012107 276.22722928 336.911051947 276.22722928 336.911051947C276.22722928 336.911051947 301.171864728 348.709321168 301.171864728 348.709321168C301.171864728 348.709321168 294.167120845 327.330895379 294.167120845 327.330895379C294.167120845 327.330895379 298.411893418 326.093656851 298.411893418 326.093656851M421.58103656 410.862271946C421.58103656 410.862271946 424.001892436 382.332636317 424.001892436 382.332636317C424.001892436 382.332636317 428.225919575 382.729817821 428.225919575 382.729817821C428.225919575 382.729817821 439.447495102 407.457316367 439.447495102 407.457316367C439.447495102 407.457316367 444.983810196 385.671153014 444.983810196 385.671153014C444.983810196 385.671153014 449.126543675 386.868732861 449.126543675 386.868732861C449.126543675 386.868732861 440.763131757 414.249662514 440.763131757 414.249662514C440.763131757 414.249662514 437.686286386 413.357113562 437.686286386 413.357113562C437.686286386 413.357113562 427.303013285 388.797918719 427.303013285 388.797918719C427.303013285 388.797918719 424.842956723 411.162361538 424.842956723 411.162361538C424.842956723 411.162361538 421.58103656 410.862271946 421.58103656 410.862271946M329.743421639 449.216419884C329.743421639 449.216419884 344.375670696 473.821105586 344.375670696 473.821105586C344.375670696 473.821105586 343.34229968 474.628216275 343.34229968 474.628216275C343.34229968 474.628216275 319.242502561 476.212492029 319.242502561 476.212492029C319.242502561 476.212492029 341.63295101 478.198946643 341.63295101 478.198946643C341.63295101 478.198946643 341.598261198 479.312214888 341.598261198 479.312214888C341.598261198 479.312214888 313.077438477 481.814559568 313.077438477 481.814559568C313.077438477 481.814559568 313.137234709 475.415966021 313.137234709 475.415966021C313.137234709 475.415966021 339.506417258 469.837015147 339.506417258 469.837015147C339.506417258 469.837015147 324.730959518 452.870806076 324.730959518 452.870806076C324.730959518 452.870806076 329.743421639 449.216419884 329.743421639 449.216419884M384.93077415 543.453825546C384.93077415 543.453825546 396.416113867 569.68086454 396.416113867 569.68086454C396.416113867 569.68086454 392.855961824 571.239925617 392.855961824 571.239925617C392.855961824 571.239925617 369.309320112 558.586894299 369.309320112 558.586894299C369.309320112 558.586894299 382.028606145 577.121973658 382.028606145 577.121973658C382.028606145 577.121973658 380.414127895 578.364971824 380.414127895 578.364971824C380.414127895 578.364971824 361.689617374 556.706178279 361.689617374 556.706178279C361.689617374 556.706178279 366.037710774 553.370653853 366.037710774 553.370653853C366.037710774 553.370653853 390.628504545 565.520557704 390.628504545 565.520557704C390.628504545 565.520557704 381.603189055 544.911040951 381.603189055 544.911040951C381.603189055 544.911040951 384.93077415 543.453825546 384.93077415 543.453825546"
         style="fill:#ffffff"
         id="path22748" />
      <path
         d="M336.094079822 261.647480193C336.094079822 261.647480193 348.021970541 233.379307502 348.021970541 233.379307502C348.021970541 233.379307502 352.100287862 233.551745429 352.100287862 233.551745429C352.100287862 233.551745429 362.28374608 262.815826075 362.28374608 262.815826075C362.28374608 262.815826075 357.97616077 262.541413286 357.97616077 262.541413286C357.97616077 262.541413286 355.194457065 253.674944477 355.194457065 253.674944477C355.194457065 253.674944477 343.354108719 253.160380286 343.354108719 253.160380286C343.354108719 253.160380286 340.116375132 261.741164075 340.116375132 261.741164075C340.116375132 261.741164075 336.094079822 261.647480193 336.094079822 261.647480193M468.380086209 320.798826159C468.380086209 320.798826159 471.630659993 350.805281262 471.630659993 350.805281262C471.630659993 350.805281262 466.726627235 352.270642176 466.726627235 352.270642176C466.726627235 352.270642176 449.493074597 326.426084741 449.493074597 326.426084741C449.493074597 326.426084741 453.227227071 325.894532742 453.227227071 325.894532742C453.227227071 325.894532742 457.772472142 333.882631215 457.772472142 333.882631215C457.772472142 333.882631215 468.189106685 330.749918894 468.189106685 330.749918894C468.189106685 330.749918894 466.591291918 321.900201897 466.591291918 321.900201897C466.591291918 321.900201897 468.380086209 320.798826159 468.380086209 320.798826159M268.8860252 345.201262342C268.8860252 345.201262342 291.255046443 365.515748267 291.255046443 365.515748267C291.255046443 365.515748267 291.087569994 367.5325093 291.087569994 367.5325093C291.087569994 367.5325093 265.981583412 384.966104441 265.981583412 384.966104441C265.981583412 384.966104441 263.723677005 378.589900685 263.723677005 378.589900685C263.723677005 378.589900685 271.354368114 372.21048397 271.354368114 372.21048397C271.354368114 372.21048397 272.364842664 358.39906434 272.364842664 358.39906434C272.364842664 358.39906434 265.790006245 350.986236681 265.790006245 350.986236681C265.790006245 350.986236681 268.8860252 345.201262342 268.8860252 345.201262342M443.082691649 415.088448644C443.082691649 415.088448644 466.428132507 395.761914848 466.428132507 395.761914848C466.428132507 395.761914848 470.969412276 399.992786216 470.969412276 399.992786216C470.969412276 399.992786216 452.041869122 423.639403443 452.041869122 423.639403443C452.041869122 423.639403443 451.456222792 421.793590807 451.456222792 421.793590807C451.456222792 421.793590807 458.116225805 415.877117127 458.116225805 415.877117127C458.116225805 415.877117127 451.527451833 409.639302637 451.527451833 409.639302637C451.527451833 409.639302637 445.280514219 416.080189598 445.280514219 416.080189598C445.280514219 416.080189598 443.082691649 415.088448644 443.082691649 415.088448644M314.127494399 487.69361891C314.127494399 487.69361891 342.539074937 480.696339936 342.539074937 480.696339936C342.539074937 480.696339936 343.738219843 481.401852969 343.738219843 481.401852969C343.738219843 481.401852969 345.945359216 511.924791832 345.945359216 511.924791832C345.945359216 511.924791832 341.131331124 510.797268126 341.131331124 510.797268126C341.131331124 510.797268126 339.759557306 501.305885869 339.759557306 501.305885869C339.759557306 501.305885869 327.442131019 493.965061929 327.442131019 493.965061929C327.442131019 493.965061929 317.154335203 494.719417141 317.154335203 494.719417141C317.154335203 494.719417141 314.127494399 487.69361891 314.127494399 487.69361891M358.350164218 559.874857699C358.350164218 559.874857699 378.01218868 581.0750155 378.01218868 581.0750155C378.01218868 581.0750155 377.971188712 581.693714023 377.971188712 581.693714023C377.971188712 581.693714023 363.855057182 605.427839507 363.855057182 605.427839507C363.855057182 605.427839507 356.738949484 600.281186844 356.738949484 600.281186844C356.738949484 600.281186844 359.922151569 590.081044863 359.922151569 590.081044863C359.922151569 590.081044863 359.499166193 573.7109393 359.499166193 573.7109393C359.499166193 573.7109393 354.274228156 565.036011397 354.274228156 565.036011397C354.274228156 565.036011397 358.350164218 559.874857699 358.350164218 559.874857699M344.577223851 250.123450481C344.577223851 250.123450481 354.275425134 250.533506294 354.275425134 250.533506294C354.275425134 250.533506294 351.624838347 242.48479404 351.624838347 242.48479404C350.815953984 240.039651523 350.223096235 238.033679601 349.846254685 236.466887844C349.404439498 238.285776564 348.813571353 240.085311651 348.073670655 241.865483959C348.073670655 241.865483959 344.577223851 250.123450481 344.577223851 250.123450481M468.487521498 333.974278585C468.487521498 333.974278585 459.582686765 336.642609877 459.582686765 336.642609877C459.582686765 336.642609877 464.457163095 343.618552979 464.457163095 343.618552979C465.972617464 345.700634457 467.148511008 347.430312784 467.984850729 348.807575673C467.851317771 346.940756884 468.164928082 344.927036811 468.24624454 343.000976207C468.24624454 343.000976207 468.487521498 333.974278585 468.487521498 333.974278585M275.090484584 360.212199124C275.090484584 360.212199124 274.308096972 370.737543745 274.308096972 370.737543745C274.308096972 370.737543745 282.142693623 367.473057575 282.142693623 367.473057575C284.547402319 366.551387871 286.551297135 366.777236031 288.133922329 366.474402726C286.33793536 365.947714817 284.504494157 365.652387653 282.804743994 364.743199383C282.804743994 364.743199383 275.090484584 360.212199124 275.090484584 360.212199124M453.941711218 407.524400047C453.941711218 407.524400047 460.200807116 413.456931564 460.200807116 413.456931564C460.200807116 413.456931564 464.376089774 406.037442064 464.376089774 406.037442064C465.510414618 403.725510765 466.115365581 401.543058402 466.870835155 400.119807445C465.335151398 401.189667385 463.137347521 401.657771351 461.494267443 402.665841535C461.494267443 402.665841535 453.941711218 407.524400047 453.941711218 407.524400047M330.381099964 492.524613197C330.381099964 492.524613197 339.555936357 497.95187201 339.555936357 497.95187201C339.555936357 497.95187201 339.96026155 489.50966898 339.96026155 489.50966898C340.123412786 486.939631783 341.374580407 485.327777066 341.79679084 483.772872558C340.535620186 485.155569254 339.582227085 486.7655467 337.998065021 487.863433889C337.998065021 487.863433889 330.381099964 492.524613197 330.381099964 492.524613197M361.941549884 576.028144331C361.941549884 576.028144331 361.975607683 587.055485031 361.975607683 587.055485031C361.975607683 587.055485031 369.085940557 582.710064988 369.085940557 582.710064988C371.361893822 581.506180111 373.390028444 582.132130863 374.953529562 581.743593195C373.131836101 581.315609361 371.267615469 581.363732624 369.548105149 580.493241965C369.548105149 580.493241965 361.941549884 576.028144331 361.941549884 576.028144331"
         style="fill:#ffffff"
         id="path22750" />
      <path
         d="M365.343886955 263.010770976C365.343886955 263.010770976 367.164198103 234.436499361 367.164198103 234.436499361C367.164198103 234.436499361 377.33613313 235.307657762 377.33613313 235.307657762C379.554025926 235.502993337 381.622211466 235.848366617 382.754753686 236.254964087C384.340869697 236.819086842 385.652477691 237.659369238 386.689576517 238.775821208C388.042832691 240.217354805 388.976930978 241.967435641 389.491862597 244.02605263C390.006738791 246.084713523 390.11717514 248.381531273 389.823170493 250.916515812C389.572608787 253.076441752 389.098382141 254.961364972 388.400469535 256.571293098C387.702506112 258.181225397 386.8956814 259.486879031 385.979994246 260.488263934C385.064247494 261.489641923 384.101164606 262.249596655 383.090737954 262.76810711C382.080269266 263.286632822 380.893447168 263.630672944 379.530269357 263.80024734C378.167041881 263.969815976 377.016501836 264.022322012 375.29147538 263.870417878C375.29147538 263.870417878 365.343886955 263.010770976 365.343886955 263.010770976M446.915552965 326.692961064C446.915552965 326.692961064 449.857464438 355.173084319 449.857464438 355.173084319C449.857464438 355.173084319 438.927898398 355.872627176 438.927898398 355.872627176C436.702188274 355.931956731 434.728068235 355.84072921 433.554182113 355.57609361C431.910816006 355.210747289 430.199400343 354.534191306 429.056967175 353.52577942C427.56777555 352.225146878 426.465172444 350.576024581 425.749167691 348.578422689C425.03321375 346.580771626 424.696164002 344.306131841 424.738018611 341.754493336C424.773736362 339.580371903 425.059220645 337.657785108 425.59449162 335.986723282C426.129812751 334.315652278 426.803554754 332.936602434 427.615717794 331.849563751C428.427940824 330.762526052 429.311144703 329.911046957 430.2653391 329.295146626C431.219573818 328.679226955 432.043959141 328.178135851 433.376079891 327.842649392C434.708250639 327.507162559 435.964868798 327.309164799 437.695972718 327.262996353C437.695972718 327.262996353 446.915552965 326.692961064 446.915552965 326.692961064M268.698561555 389.821771621C268.698561555 389.821771621 292.249881214 373.54458101 292.249881214 373.54458101C292.249881214 373.54458101 295.574336737 376.758481379 295.574336737 376.758481379C297.408498298 378.020428688 296.931341728 377.716916829 297.872816278 378.466286082C299.193053282 379.510740531 299.25594641 380.192443826 299.98986644 381.527684122C300.951237596 383.255164466 300.990094126 384.909955267 301.1080589 387.028544747C301.225960976 389.147166905 300.783922797 391.349965098 300.139245607 393.819030911C299.589894968 395.922783199 298.857432953 397.723040181 297.941837686 399.219806479C297.026191519 400.716569822 295.646730771 401.722483317 294.558908676 402.533410441C293.471029356 403.344319553 291.764069334 403.661958034 290.657921113 403.918774627C289.551728411 404.175595782 287.30227596 403.786915857 285.95704845 403.508862243C284.611775769 403.230787196 281.727324254 401.859698909 280.259498174 400.941004515C280.259498174 400.941004515 268.698561555 389.821771621 268.698561555 389.821771621M452.294716991 425.195909277C452.294716991 425.195909277 480.603849197 420.922897577 480.603849197 420.922897577C480.603849197 420.922897577 479.579426123 436.949798627 479.579426123 436.949798627C478.938651284 439.081855001 476.319531074 444.080246285 475.45840415 444.920591173C474.257180454 446.099812291 470.616922683 449.289840868 469.094353415 449.349543539C467.11921517 449.437389783 464.193229711 449.657149936 462.436912568 448.466302599C460.680607458 447.275385588 458.911592475 445.688222326 457.565089226 443.520978759C456.417848973 441.674350619 455.439117111 440.054465772 454.885825879 438.389347072C454.332569736 436.72419138 453.76654918 435.422725615 453.72467771 434.066497434C453.682853778 432.710232652 452.57480908 432.499870271 452.786259999 431.3841012C452.997724696 430.268289589 451.659623697 431.268494867 452.103638123 429.968676018C452.547679459 428.668815037 451.528291141 430.817075815 452.026648269 429.158806223C452.026648269 429.158806223 452.294716991 425.195909277 452.294716991 425.195909277M349.621500711 512.61860734C349.621500711 512.61860734 354.383953727 484.386711266 354.383953727 484.386711266C354.383953727 484.386711266 363.265697035 485.552252252 363.265697035 485.552252252C365.480146976 485.783494491 366.889038263 486.021957576 368.033552853 486.393623081C369.636273025 486.908826273 370.775075208 487.660824505 371.862825313 488.728049119C373.281466255 490.10536448 374.295685972 491.810328028 374.905475179 493.842929097C375.515211053 495.875576593 375.731966452 498.164873511 375.555740685 500.710829828C375.405532178 502.88010683 375.019149121 504.785033492 374.396570872 506.425618408C373.773942053 508.066209847 373.028465565 509.407885629 372.160140719 510.450655731C371.291756016 511.493421689 370.364897146 512.297210553 369.379555514 512.862001681C368.394172597 513.426809997 367.013075087 513.81426834 365.655706844 514.025595291C364.29828878 514.236918008 362.480911303 514.258135155 360.758562241 514.078303633C360.758562241 514.078303633 349.621500711 512.61860734 349.621500711 512.61860734M368.214449708 607.281197306C368.214449708 607.281197306 377.940730462 580.354431166 377.940730462 580.354431166C377.940730462 580.354431166 383.706669552 581.317323697 383.706669552 581.317323697C385.928155954 581.465303801 387.153011565 581.649030058 388.314971775 581.961807568C389.941853617 582.394553969 390.712667262 583.076061532 391.884774041 584.049854591C393.412231357 585.305366609 394.563694691 586.920783086 395.339153908 588.896094157C396.114563807 590.871455898 396.519521481 593.135022254 396.554027067 595.686803224C396.583371979 597.861047707 396.355533373 599.791339669 395.870491385 601.477689377C395.385399537 603.16404976 394.753210094 604.562657379 393.97392319 605.673522233C393.194576294 606.784387898 392.069134391 607.675324671 391.119348009 608.298035319C390.169521444 608.920765594 388.694898512 609.398164282 387.350112199 609.678466461C386.005275917 609.958766954 383.999570673 610.031391034 382.271749692 609.916318899C382.271749692 609.916318899 368.214449708 607.281197306 368.214449708 607.281197306M369.070295952 259.930705977C369.070295952 259.930705977 375.159841057 260.466945333 375.159841057 260.466945333C377.04051087 260.632555268 378.234498603 260.563104119 379.342051205 260.337655861C380.449562923 260.112212928 381.356957041 259.719373186 382.064233561 259.159136636C383.060139521 258.370232112 383.894466037 257.251263817 384.567210804 255.802251617C385.239904754 254.353243589 385.700776996 252.555247404 385.949828681 250.408253128C386.294848543 247.433534105 386.071757129 245.090882373 385.280565523 243.380289151C384.489328425 241.669740987 383.426807724 240.461844158 382.093004572 239.756588733C381.129158093 239.25158703 379.225214902 238.865919518 376.981372369 238.668308873C376.981372369 238.668308873 370.989108098 238.140635971 370.989108098 238.140635971C370.989108098 238.140635971 369.070295952 259.930705977 369.070295952 259.930705977M443.802621894 330.33750373C443.802621894 330.33750373 438.215583865 330.629180223 438.215583865 330.629180223C436.328288239 330.679514293 435.059121172 330.896508388 433.98755447 331.256096787C432.916027693 331.615674887 432.063642953 332.116846325 431.430400251 332.7596111C430.538745581 333.664722111 430.01116398 334.864442412 429.485022966 336.372887809C428.958932108 337.881324027 428.678139727 339.716089038 428.642645659 341.877192839C428.593515454 344.871456244 429.047201154 347.180563843 430.003692597 348.80452547C430.960224854 350.428437761 432.37122904 351.483299762 433.781490583 352.019661735C434.800019473 352.402650823 436.644644674 352.553449546 438.896394813 352.493415501C438.896394813 352.493415501 445.419441865 352.152002243 445.419441865 352.152002243C445.419441865 352.152002243 443.802621894 330.33750373 443.802621894 330.33750373M274.976554063 392.285662328C274.976554063 392.285662328 281.293507902 397.584278839 281.293507902 397.584278839C282.84880407 398.654329168 285.771767242 400.026993065 286.892944653 400.169896496C288.014081641 400.312791815 289.718857383 400.540001655 290.541174885 400.168906152C291.699078986 399.646329745 292.780652435 398.764319617 293.78588816 397.522894471C294.791073587 396.281460998 295.675812023 394.650007801 296.440107002 392.628525527C297.499011928 389.827695103 297.853069802 387.501505711 297.502293513 385.649951533C297.151462135 383.798429973 297.155541483 382.665625575 296.119606051 381.568728384C295.369515758 380.780467836 295.466645571 380.785449918 293.61101888 379.508746646C293.61101888 379.508746646 290.65214567 377.031869567 290.65214567 377.031869567C290.65214567 377.031869567 274.976554063 392.285662328 274.976554063 392.285662328M455.751090402 426.930416834C455.751090402 426.930416834 455.385831868 429.719716886 455.385831868 429.719716886C454.842509646 431.527606586 455.581102719 430.220117902 455.299176208 431.314555103C455.017262799 432.408953217 455.516809493 432.526764833 455.615719831 433.423534507C455.755030869 434.686286146 456.897063793 435.195319953 457.558293284 436.649525761C458.219552708 438.103690295 459.283563329 439.624444389 460.750331933 441.211795386C462.782611051 443.41107697 464.904032631 444.593557004 466.739765423 445.019877936C468.575490604 445.446135296 471.381974798 443.684050375 472.599686507 442.793435697C473.475472551 442.147821542 475.712489541 438.078317784 476.360751385 435.921313867C476.360751385 435.921313867 477.623479263 426.743512791 477.623479263 426.743512791C477.623479263 426.743512791 455.751090402 426.930416834 455.751090402 426.930416834M354.318103878 509.924548304C354.318103878 509.924548304 360.682082703 510.673125604 360.682082703 510.673125604C362.55983355 510.869182721 364.261183376 510.829651544 365.361325666 510.57031923C366.461427252 510.310993493 367.506310274 509.896801168 368.186885377 509.30437559C369.145191442 508.470146202 369.926791961 507.313685992 370.531685554 505.835014911C371.136528577 504.356350353 371.513599403 502.538878616 371.662898723 500.382589722C371.869709018 497.394994978 371.538292479 495.065132473 370.668659774 493.392992923C369.798983712 491.72090049 368.834392591 490.578010586 367.479542516 489.913995487C366.500629182 489.438793228 365.096895819 489.140671757 362.856536253 488.906734333C362.856536253 488.906734333 357.17568178 488.237901469 357.17568178 488.237901469C357.17568178 488.237901469 354.318103878 509.924548304 354.318103878 509.924548304M374.413903754 605.47605963C374.413903754 605.47605963 382.067557306 606.516532753 382.067557306 606.516532753C383.951273786 606.64198746 385.794374736 606.557911141 386.879826811 606.242791385C387.965238573 605.927680274 389.072117337 605.450215903 389.716032838 604.818149494C390.622716447 603.928102615 391.489317262 602.731623724 391.97009855 601.208092877C392.450829978 599.684572704 392.676606247 597.842204707 392.647427222 595.680978886C392.606951257 592.686547848 392.209718358 590.4040781 391.241635481 588.786963389C390.273512143 587.169898304 389.328244844 586.099786965 387.941311807 585.50577917C386.939450659 585.081152901 385.671157076 584.834374808 383.423679112 584.684673699C383.423679112 584.684673699 379.062881026 584.102045879 379.062881026 584.102045879C379.062881026 584.102045879 374.413903754 605.47605963 374.413903754 605.47605963"
         style="fill:#ffffff"
         id="path22752" />
      <path
         d="M393.800561726 251.970613931C394.458012773 247.263772164 396.378332978 243.741426744 399.316852482 241.481413634C402.255344467 239.221446812 405.98604665 238.458522154 409.961307798 239.158444508C412.56442767 239.616825003 415.373494613 240.797825106 417.17627269 242.485884718C418.978991224 244.173982465 420.182257417 246.240537954 420.786092947 248.685545699C421.389859164 251.130589438 421.443763057 253.791088303 420.76520632 256.574056976C420.07733129 259.394987804 419.021782774 261.798443862 417.386516289 263.786046208C415.751198824 265.773647618 414.0178353 267.121037789 411.682437885 267.862652402C409.346999292 268.604269107 407.253461824 268.765884476 404.80421718 268.33462836C402.149762518 267.867239441 400.145891635 266.862132415 398.251397955 265.246384794C396.356874639 263.630632515 395.208113557 261.659429758 394.436517373 259.277200417C393.664899997 256.894978214 393.452920923 254.459453609 393.800561726 251.970613931C393.800561726 251.970613931 393.800561726 251.970613931 393.800561726 251.970613931M420.675263826 341.140957369C420.480208714 345.889456367 419.052562691 349.554582561 416.392315353 352.136345532C413.732090051 354.718059366 410.129413229 355.89418906 406.099862462 355.658526507C403.461186297 355.504157551 400.925130087 354.714114497 398.899336805 353.301353644C396.873596998 351.888546527 395.386997775 350.015396673 394.439518466 347.681912613C393.492102606 345.348383011 393.121674301 342.75308603 393.328235716 339.895991748C393.537676124 336.999913837 394.309417771 334.451301906 395.643482046 332.25013745C396.977596911 330.048966625 398.758541898 328.438205024 400.986337674 327.417844114C403.214174067 326.397476115 405.366716774 325.936353531 407.849412599 326.081568985C410.54012115 326.238951319 412.661087088 327.017835456 414.728200377 328.405901047C416.795343639 329.793967868 418.329084091 331.635776121 419.329431312 333.931336206C420.329798926 336.226887121 420.77840324 338.630090571 420.675263826 341.140957369C420.675263826 341.140957369 420.675263826 341.140957369 420.675263826 341.140957369M303.988155736 395.293845455C304.988156515 390.647986358 306.714016493 387.233505404 309.692918395 385.027238942C312.671791943 382.82101826 314.879595537 381.779382704 318.901027517 382.126374342C321.53438587 382.353645054 323.405755146 383.068039734 325.45683048 384.44358654C327.507853194 385.819180573 328.694746285 387.624282174 329.762318012 389.905243616C330.829828746 392.186253838 331.334769083 394.758687987 331.277138419 397.622576056C331.218660931 400.525543603 330.580582689 403.110780536 329.362883298 405.37830645C328.145133717 407.645841355 326.050471596 409.298633879 323.841757605 410.359346446C321.633003135 411.420066841 318.812021394 411.857000576 316.334328246 411.643192805C313.649041521 411.411471145 310.545541691 410.375624989 308.626843422 408.788802638C306.708115451 407.201976079 305.055886893 405.089470048 304.368685998 402.681646718C303.681463674 400.273829773 303.459384696 397.750439288 303.988155736 395.293845455C303.988155736 395.293845455 303.988155736 395.293845455 303.988155736 395.293845455M453.751028304 444.998915777C455.699012415 449.333187274 455.652742686 453.438334915 454.235215148 456.863305623C452.817688342 460.28822249 447.774424675 463.014787362 443.821677961 463.831832736C441.233282605 464.366811633 437.517570278 464.255312449 435.262837625 463.247739605C433.008148818 462.24011129 430.861171259 460.731777364 429.566019895 458.571901406C428.270924216 456.411970687 427.505660047 453.904633741 427.270224924 451.04986067C427.031637249 448.156126324 427.402093634 445.519207464 428.381612365 443.139082517C429.361180104 440.758943495 430.460411127 438.853871566 432.457112833 437.433767863C434.453853103 436.013649577 435.408280597 435.316871084 437.843660538 434.813489143C440.483088842 434.267931335 441.974571814 434.565025525 444.370585047 435.241921524C446.766627151 435.918809378 447.880397202 437.278611069 449.709200427 438.988751359C451.538018731 440.698875142 452.720991522 442.707080314 453.751028304 444.998915777C453.751028304 444.998915777 453.751028304 444.998915777 453.751028304 444.998915777M379.592151877 501.516415375C379.915258942 496.774851667 381.441291993 493.149536092 384.170261684 490.640459352C386.899208022 488.131431137 390.602731966 487.092411772 394.622521959 487.456632905C397.254804876 487.695186023 400.03210744 488.653148066 401.982611505 490.16805279C403.93305979 491.683000968 405.624892873 493.779099994 406.37354781 496.183624413C407.122135708 498.588188897 407.378315681 501.292124725 406.814864112 504.100459847C406.243664443 506.947105703 405.395021298 509.377968827 403.881348443 511.459548839C402.367624643 513.541130959 400.846221794 515.004945409 398.569019855 515.909510316C396.29177699 516.814080216 394.406042464 517.185737641 391.929361059 516.961314397C389.245170847 516.718087847 387.222445851 515.850795908 385.19351242 514.407445809C383.164549058 512.964093671 381.681043172 511.08155181 380.742985464 508.759809571C379.804907122 506.438075949 379.421302351 504.023614996 379.592151877 501.516415375C379.592151877 501.516415375 379.592151877 501.516415375 379.592151877 501.516415375M400.646061004 596.133487207C400.534948946 591.382205875 401.723650348 587.632697526 404.212174974 584.88495193C406.700680774 582.137256788 410.992597346 580.691635361 415.024639816 580.876648858C417.664948252 580.99785122 421.265148839 581.938930413 423.198474251 583.475279625C425.131743409 585.011671664 428.167570957 587.552379171 428.535816911 590.043547387C428.903990447 592.534744831 428.778509697 595.246433573 427.752362596 597.920459041C426.712156271 600.630952693 425.531193747 602.927693479 423.714264561 604.750389407C421.897284721 606.573079549 421.785981651 608.295374495 419.499098128 609.174455754C417.212173629 610.05354155 416.131087992 610.586153497 413.64685674 610.472144054C410.954484117 610.348582328 409.357999965 609.77907763 407.223367611 608.497334616C405.08870526 607.215591888 403.599467704 605.468020985 402.45336451 603.241602098C401.307241556 601.015193676 400.704813796 598.645825222 400.646061004 596.133487207C400.646061004 596.133487207 400.646061004 596.133487207 400.646061004 596.133487207M397.652168098 252.578078052C397.116522178 255.986733014 397.611046872 258.815863565 399.135752059 261.065471258C400.660445814 263.315087278 402.590153228 264.652787303 405.347198126 265.138240023C408.155493825 265.632716841 410.204689652 265.004554216 412.433688557 263.440324345C414.662646248 261.876095679 416.171571759 259.294289381 416.960474856 255.694907591C417.459428615 253.41827135 417.510246119 251.346661151 417.112931649 249.480057459C416.715569544 247.613484275 415.683584356 246.017571801 414.379904745 244.78579086C413.07618412 243.554063001 411.274299563 242.701508206 409.414935012 242.374096213C406.773309279 241.908986482 404.146080532 242.391898464 401.949954959 243.911808137C399.753803419 245.431754219 398.321214384 248.320511893 397.652168098 252.578078052C397.652168098 252.578078052 397.652168098 252.578078052 397.652168098 252.578078052M416.774781356 340.922088064C416.916397509 337.47452826 416.101021961 334.720692225 414.32864472 332.660579546C412.556277881 330.600457287 410.474296322 329.482785186 407.679596382 329.319320288C404.832945671 329.152816736 402.577162 330.016525365 400.594886989 331.883622816C398.612652595 333.750713179 397.488653851 336.521898334 397.222880784 340.197177561C397.054810387 342.521814722 397.300935066 344.579410141 397.961253377 346.369983766C398.621614469 348.16052038 399.673754482 349.587758553 401.117681948 350.651718954C402.561643663 351.715621675 404.386059159 352.290987044 406.270820802 352.401248742C408.948522862 352.557850278 411.490600491 351.785103165 413.498132822 350.023616829C415.505686777 348.262091348 416.597896295 345.228248153 416.774781356 340.922088064C416.774781356 340.922088064 416.774781356 340.922088064 416.774781356 340.922088064M307.827352523 396.091452974C307.230005117 399.489699401 307.889180504 402.368894045 309.447743843 404.595087614C311.00629588 406.821289681 313.804536784 408.170747364 316.593605353 408.411424679C319.434520011 408.656575952 322.203953048 407.790220456 324.151777802 405.887432019C326.099562077 403.98465141 327.172833904 401.19360994 327.37160327 397.514308148C327.497293412 395.187127285 327.21374483 393.134473183 326.520958603 391.356325871C325.828130279 389.578216341 324.75022769 388.170460529 323.287241932 387.133037926C321.824222983 386.095673614 320.521032065 385.53996377 318.640068806 385.377629584C315.96776181 385.147048059 314.174513085 385.848275673 312.001721403 387.401234089C309.828904309 388.954229303 308.573466792 391.846887551 307.827352523 396.091452974C307.827352523 396.091452974 307.827352523 396.091452974 307.827352523 396.091452974M450.157492164 446.410366393C449.078732356 443.133119618 447.637738594 440.817115352 445.313009145 439.409889457C442.988286604 438.002651224 441.260466173 437.41782013 438.519028375 437.984462836C435.726629898 438.561638881 434.50709404 439.687734099 432.910381222 441.893434218C431.313706968 444.099119754 430.729582635 447.031797579 431.157998291 450.691468855C431.429006033 453.006227748 432.056736085 454.981001635 433.041190774 456.615810379C434.025680538 458.250574746 435.625214232 459.447429158 437.26731246 460.168774153C438.909431451 460.890055362 441.293504471 461.023832459 443.142351013 460.641704722C445.769015514 460.098764713 448.558731271 458.468484798 449.919367312 456.170446241C451.28001174 453.87236376 451.504912571 450.503797709 450.157492164 446.410366393C450.157492164 446.410366393 450.157492164 446.410366393 450.157492164 446.410366393M383.485355196 501.840447663C383.250769292 505.282972228 383.991555597 508.057838234 385.707724087 510.165046362C387.423881921 512.272263787 389.414555484 513.478155035 392.202485162 513.730781885C395.042239759 513.988104824 397.113808901 513.232622892 399.189309954 511.469851705C401.26477008 509.707085511 402.400546321 507.048468461 402.973204341 503.408551015C403.335381512 501.10627766 403.26247333 499.03540216 402.754482904 497.195904761C402.24644675 495.356440658 401.018503085 493.836871332 399.631166417 492.700182455C398.243792584 491.563549421 396.227827861 490.877037593 394.347632762 490.706644576C391.676416892 490.46461377 389.060773159 491.123832625 387.00642071 492.830532733C384.952045588 494.537271387 383.778363734 497.540576817 383.485355196 501.840447663C383.485355196 501.840447663 383.485355196 501.840447663 383.485355196 501.840447663M404.552605408 596.10074582C404.633276261 599.550325685 405.532998014 602.260125349 407.407258925 604.22795085C409.281509933 606.195786447 410.979550297 607.104298944 413.775978623 607.232636124C416.624389849 607.363358968 418.073909189 606.481828077 420.168672523 604.742440369C422.263394882 603.003057198 423.229033957 600.362193733 424.032122566 596.766123308C424.540048769 594.491581399 424.441282219 592.38002868 423.981574224 590.527863642C423.521819645 588.675730694 421.741644621 587.012147168 420.310690795 585.931022622C418.879702034 584.849955337 416.780548774 584.222266688 414.894621247 584.135695327C412.21526341 584.012750912 409.274558043 584.984633428 407.358694203 586.845358661C405.442810746 588.706124081 404.451843818 591.792062581 404.552605408 596.10074582C404.552605408 596.10074582 404.552605408 596.10074582 404.552605408 596.10074582"
         style="fill:#ffffff"
         id="path22754" />
    </g>
  </g>
</svg>
