<?xml version="1.0" encoding="UTF-8" standalone="no"?>
<!-- Created with Inkscape (http://www.inkscape.org/) -->

<svg
   xmlns:dc="http://purl.org/dc/elements/1.1/"
   xmlns:cc="http://creativecommons.org/ns#"
   xmlns:rdf="http://www.w3.org/1999/02/22-rdf-syntax-ns#"
   xmlns:svg="http://www.w3.org/2000/svg"
   xmlns="http://www.w3.org/2000/svg"
   xmlns:sodipodi="http://sodipodi.sourceforge.net/DTD/sodipodi-0.dtd"
   xmlns:inkscape="http://www.inkscape.org/namespaces/inkscape"
   width="744.09448819"
   height="1052.3622047"
   id="svg11013"
   version="1.1"
   inkscape:version="0.48.5 r10040"
   sodipodi:docname="windy.svg"
   inkscape:export-filename="Z:\android\androidstudio\projects\What2wear\images\mine\windy.png"
   inkscape:export-xdpi="90"
   inkscape:export-ydpi="90">
  <defs
     id="defs11015">
    <filter
       inkscape:collect="always"
       id="filter11694"
       x="-0.36439292"
       width="1.7287858"
       y="-0.39305302"
       height="1.786106">
      <feGaussianBlur
         inkscape:collect="always"
         stdDeviation="20.822452"
         id="feGaussianBlur11696" />
    </filter>
    <filter
       inkscape:collect="always"
       id="filter11698"
       x="-0.31905317"
       width="1.6381063"
       y="-0.38682878"
       height="1.7736576">
      <feGaussianBlur
         inkscape:collect="always"
         stdDeviation="20.492715"
         id="feGaussianBlur11700" />
    </filter>
    <filter
       inkscape:collect="always"
       id="filter11702"
       x="-0.33953296"
       width="1.6790659"
       y="-0.36623778"
       height="1.7324756">
      <feGaussianBlur
         inkscape:collect="always"
         stdDeviation="19.401883"
         id="feGaussianBlur11704" />
    </filter>
    <filter
       inkscape:collect="always"
       id="filter11706"
       x="-0.35593471"
       width="1.7118694"
       y="-0.36780006"
       height="1.7356001">
      <feGaussianBlur
         inkscape:collect="always"
         stdDeviation="20.113831"
         id="feGaussianBlur11708" />
    </filter>
    <filter
       inkscape:collect="always"
       id="filter11710"
       x="-0.36896517"
       width="1.7379303"
       y="-0.39798488"
       height="1.7959698">
      <feGaussianBlur
         inkscape:collect="always"
         stdDeviation="21.083723"
         id="feGaussianBlur11712" />
    </filter>
    <filter
       inkscape:collect="always"
       id="filter11714"
       x="-0.30711202"
       width="1.614224"
       y="-0.34229956"
       height="1.6845991">
      <feGaussianBlur
         inkscape:collect="always"
         stdDeviation="18.133727"
         id="feGaussianBlur11716" />
    </filter>
    <filter
       inkscape:collect="always"
       id="filter11718"
       x="-0.22642136"
       width="1.4528427"
       y="-0.38469649"
       height="1.769393">
      <feGaussianBlur
         inkscape:collect="always"
         stdDeviation="23.585558"
         id="feGaussianBlur11720" />
    </filter>
    <filter
       color-interpolation-filters="sRGB"
       inkscape:collect="always"
       id="filter13923"
       x="-0.059949383"
       width="1.1198988"
       y="-0.21567155"
       height="1.4313431">
      <feGaussianBlur
         inkscape:collect="always"
         stdDeviation="10.526826"
         id="feGaussianBlur13925" />
    </filter>
  </defs>
  <sodipodi:namedview
     id="base"
     pagecolor="#ffffff"
     bordercolor="#666666"
     borderopacity="1.0"
     inkscape:pageopacity="0.0"
     inkscape:pageshadow="2"
     inkscape:zoom="0.7"
     inkscape:cx="9.6806057"
     inkscape:cy="641.41869"
     inkscape:document-units="px"
     inkscape:current-layer="layer21"
     showgrid="false"
     inkscape:window-width="1680"
     inkscape:window-height="988"
     inkscape:window-x="1592"
     inkscape:window-y="-8"
     inkscape:window-maximized="1" />
  <metadata
     id="metadata11018">
    <rdf:RDF>
      <cc:Work
         rdf:about="">
        <dc:format>image/svg+xml</dc:format>
        <dc:type
           rdf:resource="http://purl.org/dc/dcmitype/StillImage" />
        <dc:title></dc:title>
      </cc:Work>
    </rdf:RDF>
  </metadata>
  <g
     inkscape:groupmode="layer"
     id="layer21"
     inkscape:label="shadow">
    <path
       sodipodi:type="arc"
       style="opacity:0.71238942000000005;fill:#141414;fill-opacity:1;stroke:none;filter:url(#filter13923)"
       id="path13155"
       sodipodi:cx="335"
       sodipodi:cy="820.93359"
       sodipodi:rx="210.71428"
       sodipodi:ry="58.57143"
       d="m 545.71428,820.93359 a 210.71428,58.57143 0 1 1 -421.42856,0 210.71428,58.57143 0 1 1 421.42856,0 z"
       transform="matrix(0.77751048,0,0,0.75291841,121.31728,-15.733828)"
       inkscape:export-filename="Z:\android\androidstudio\projects\What2wear\images\mine\thunder.png"
       inkscape:export-xdpi="90"
       inkscape:export-ydpi="90" />
  </g>
  <g
     inkscape:label="Layer 1"
     inkscape:groupmode="layer"
     id="layer1">
    <path
       sodipodi:type="arc"
       style="fill:#ab80aa;fill-opacity:1;stroke:none"
       id="path11531"
       sodipodi:cx="175.71428"
       sodipodi:cy="227.36218"
       sodipodi:rx="68.571426"
       sodipodi:ry="63.57143"
       d="m 244.28571,227.36218 a 68.571426,63.57143 0 1 1 -137.14286,0 68.571426,63.57143 0 1 1 137.14286,0 z"
       transform="matrix(1.3125,0,0,0.97752809,17.946429,217.96641)" />
    <path
       transform="matrix(1.1789172,0,-0.39738781,1.1235955,178.91266,229.04191)"
       sodipodi:type="arc"
       style="fill:#ab80aa;fill-opacity:1;stroke:none"
       id="path11531-6"
       sodipodi:cx="175.71428"
       sodipodi:cy="227.36218"
       sodipodi:rx="68.571426"
       sodipodi:ry="63.57143"
       d="m 244.28571,227.36218 a 68.571426,63.57143 0 1 1 -137.14286,0 68.571426,63.57143 0 1 1 137.14286,0 z" />
    <path
       transform="matrix(1.2291667,0,0,1.2022472,189.73215,241.87378)"
       sodipodi:type="arc"
       style="fill:#ab80aa;fill-opacity:1;stroke:none"
       id="path11531-6-3"
       sodipodi:cx="175.71428"
       sodipodi:cy="227.36218"
       sodipodi:rx="68.571426"
       sodipodi:ry="63.57143"
       d="m 244.28571,227.36218 a 68.571426,63.57143 0 1 1 -137.14286,0 68.571426,63.57143 0 1 1 137.14286,0 z" />
    <path
       transform="matrix(1.3303638,0.34750129,-0.25272821,0.96753731,322.26834,191.31985)"
       sodipodi:type="arc"
       style="fill:#ab80aa;fill-opacity:1;stroke:none"
       id="path11531-6-8"
       sodipodi:cx="175.71428"
       sodipodi:cy="227.36218"
       sodipodi:rx="68.571426"
       sodipodi:ry="63.57143"
       d="m 244.28571,227.36218 a 68.571426,63.57143 0 1 1 -137.14286,0 68.571426,63.57143 0 1 1 137.14286,0 z" />
    <path
       transform="matrix(1.125,0,0,1.1123595,272.32143,112.31083)"
       sodipodi:type="arc"
       style="fill:#ab80aa;fill-opacity:1;stroke:none"
       id="path11531-6-32"
       sodipodi:cx="175.71428"
       sodipodi:cy="227.36218"
       sodipodi:rx="68.571426"
       sodipodi:ry="63.57143"
       d="m 244.28571,227.36218 a 68.571426,63.57143 0 1 1 -137.14286,0 68.571426,63.57143 0 1 1 137.14286,0 z" />
    <path
       transform="matrix(1.2979267,0,0.23333513,1.3033708,52.455593,11.024962)"
       sodipodi:type="arc"
       style="fill:#ab80aa;fill-opacity:1;stroke:none"
       id="path11531-6-86"
       sodipodi:cx="175.71428"
       sodipodi:cy="227.36218"
       sodipodi:rx="68.571426"
       sodipodi:ry="63.57143"
       d="m 244.28571,227.36218 a 68.571426,63.57143 0 1 1 -137.14286,0 68.571426,63.57143 0 1 1 137.14286,0 z" />
    <path
       style="fill:#ab80aa;fill-opacity:1;stroke:none"
       d="m 258.57142,313.19552 c 0,0 -36.84398,-1.7845 -49.63992,-13.15476 -30.77031,-27.34202 -45.44909,-114.82144 -45.44909,-114.82144 0,0 -8.06604,43.79074 -6.77324,65.80305 1.29631,22.07194 8.38396,47.86689 14.46855,64.73267 12.83726,35.5834 53.71635,83.75 53.71635,83.75 z"
       id="path11590"
       inkscape:connector-curvature="0"
       sodipodi:nodetypes="cacascc" />
    <path
       style="fill:#ab80aa;fill-opacity:1;stroke:none"
       d="m 363.26252,438.61256 c -5.36051,-6.62428 -18.0025,-16.94995 -22.49987,-18.37737 -1.31934,-0.41874 -3.90987,-3.98753 -5.75672,-7.93064 -6.88317,-14.69586 -24.32416,-27.28712 -44.32824,-32.00212 -11.62257,-2.73945 -29.52227,-2.78297 -40.63873,-0.0988 -4.71429,1.13831 -8.98143,2.09255 -9.48254,2.12054 -1.02552,0.0573 11.92622,-45.01184 13.34218,-46.42781 0.49988,-0.49988 1.70136,0.59262 2.66995,2.42777 4.01994,7.61638 15.09473,20.08399 24.48837,27.56814 31.54896,25.13584 74.38254,31.49161 105.60502,15.66999 l 6.745,-3.41796 1.6894,5.32966 c 3.38186,10.66898 11.42834,22.98632 20.42949,31.27292 l 9.06183,8.34246 -4.0276,3.29606 c -2.21519,1.81283 -5.10093,5.11306 -6.41279,7.33384 -2.19689,3.71904 -3.27374,4.1153 -13.64161,5.0197 -6.19105,0.54005 -15.73133,2.22196 -21.20064,3.73758 -5.4693,1.51562 -10.11303,2.7532 -10.31941,2.75017 -0.20637,-0.003 -2.78176,-2.97939 -5.72309,-6.61414 l 0,0 z"
       id="path11592"
       inkscape:connector-curvature="0" />
    <path
       sodipodi:type="arc"
       style="fill:#ab80aa;fill-opacity:1;stroke:none"
       id="path11594"
       sodipodi:cx="242.14285"
       sodipodi:cy="215.93361"
       sodipodi:rx="125"
       sodipodi:ry="73.571426"
       d="m 367.14285,215.93361 a 125,73.571426 0 1 1 -250,0 125,73.571426 0 1 1 250,0 z"
       transform="translate(104.28571,171.42857)" />
    <path
       sodipodi:type="arc"
       style="fill:#ab80aa;fill-opacity:1;stroke:none"
       id="path11598"
       sodipodi:cx="158.57143"
       sodipodi:cy="167.36218"
       sodipodi:rx="28.571428"
       sodipodi:ry="22.142857"
       d="m 187.14285,167.36218 a 28.571428,22.142857 0 1 1 -57.14285,0 28.571428,22.142857 0 1 1 57.14285,0 z"
       transform="translate(104.28571,171.42857)" />
    <path
       sodipodi:type="arc"
       style="opacity:0.96460176;fill:#cdb4cd;fill-opacity:1;stroke:none;filter:url(#filter11694)"
       id="path11531-2"
       sodipodi:cx="175.71428"
       sodipodi:cy="227.36218"
       sodipodi:rx="68.571426"
       sodipodi:ry="63.57143"
       d="m 244.28571,227.36218 a 68.571426,63.57143 0 1 1 -137.14286,0 68.571426,63.57143 0 1 1 137.14286,0 z"
       transform="matrix(1.0092299,0,0,0.75311502,111.22843,255.18177)" />
    <path
       transform="matrix(0.90651309,0,-0.3055662,0.86564944,235.00133,263.71464)"
       sodipodi:type="arc"
       style="opacity:0.96460176;fill:#cdb4cd;fill-opacity:1;stroke:none;filter:url(#filter11698)"
       id="path11531-6-6"
       sodipodi:cx="175.71428"
       sodipodi:cy="227.36218"
       sodipodi:rx="68.571426"
       sodipodi:ry="63.57143"
       d="m 244.28571,227.36218 a 68.571426,63.57143 0 1 1 -137.14286,0 68.571426,63.57143 0 1 1 137.14286,0 z" />
    <path
       transform="matrix(0.94515177,0,0,0.92624492,243.32083,273.60068)"
       sodipodi:type="arc"
       style="opacity:0.96460176;fill:#cdb4cd;fill-opacity:1;stroke:none;filter:url(#filter11702)"
       id="path11531-6-3-0"
       sodipodi:cx="175.71428"
       sodipodi:cy="227.36218"
       sodipodi:rx="68.571426"
       sodipodi:ry="63.57143"
       d="m 244.28571,227.36218 a 68.571426,63.57143 0 1 1 -137.14286,0 68.571426,63.57143 0 1 1 137.14286,0 z" />
    <path
       transform="matrix(1.022966,0.26772473,-0.19433208,0.74541784,345.23282,234.65251)"
       sodipodi:type="arc"
       style="opacity:0.96460176;fill:#cdb4cd;fill-opacity:1;stroke:none;filter:url(#filter11706)"
       id="path11531-6-8-5"
       sodipodi:cx="175.71428"
       sodipodi:cy="227.36218"
       sodipodi:rx="68.571426"
       sodipodi:ry="63.57143"
       d="m 244.28571,227.36218 a 68.571426,63.57143 0 1 1 -137.14286,0 68.571426,63.57143 0 1 1 137.14286,0 z" />
    <path
       transform="matrix(0.86505415,0,0,0.85699292,306.82679,173.78175)"
       sodipodi:type="arc"
       style="opacity:0.96460176;fill:#cdb4cd;fill-opacity:1;stroke:none;filter:url(#filter11710)"
       id="path11531-6-32-4"
       sodipodi:cx="175.71428"
       sodipodi:cy="227.36218"
       sodipodi:rx="68.571426"
       sodipodi:ry="63.57143"
       d="m 244.28571,227.36218 a 68.571426,63.57143 0 1 1 -137.14286,0 68.571426,63.57143 0 1 1 137.14286,0 z" />
    <path
       transform="matrix(0.99802387,0,0.17942002,1.0041534,137.76381,95.748295)"
       sodipodi:type="arc"
       style="opacity:0.96460176;fill:#cdb4cd;fill-opacity:1;stroke:none;filter:url(#filter11714)"
       id="path11531-6-86-6"
       sodipodi:cx="175.71428"
       sodipodi:cy="227.36218"
       sodipodi:rx="68.571426"
       sodipodi:ry="63.57143"
       d="m 244.28571,227.36218 a 68.571426,63.57143 0 1 1 -137.14286,0 68.571426,63.57143 0 1 1 137.14286,0 z" />
    <path
       sodipodi:type="arc"
       style="opacity:0.96460176;fill:#cdb4cd;fill-opacity:1;stroke:none;filter:url(#filter11718)"
       id="path11594-7"
       sodipodi:cx="242.14285"
       sodipodi:cy="215.93361"
       sodipodi:rx="125"
       sodipodi:ry="73.571426"
       d="m 367.14285,215.93361 a 125,73.571426 0 1 1 -250,0 125,73.571426 0 1 1 250,0 z"
       transform="matrix(0.76893703,0,0,0.77042801,177.6179,219.32771)" />
  </g>
  <g
     inkscape:groupmode="layer"
     id="layer8"
     inkscape:label="face">
    <path
       style="fill:none;stroke:#210021;stroke-width:2;stroke-linecap:butt;stroke-linejoin:miter;stroke-miterlimit:4;stroke-opacity:1;stroke-dasharray:none"
       d="m 475.79159,454.29882 6.78154,0.99802 c 0,0 -0.83875,-5.54122 1.01015,-7.00828 1.60746,-1.27548 4.87797,-1.09366 6.13322,0.52964 1.2304,1.59116 -0.0475,4.18292 -1.01015,5.94899 -0.68852,1.26319 -3.21208,1.37616 -3.18456,2.91307 0.0277,1.54449 2.74592,1.45356 3.30251,2.78065 0.99179,2.36476 1.35549,5.99945 -0.58973,7.67034 -1.79442,1.54136 -5.46775,1.20434 -7.0768,-0.52964 -1.58903,-1.7124 0,-7.00829 0,-7.00829 l -6.34303,-0.50508"
       id="path11600"
       inkscape:connector-curvature="0"
       sodipodi:nodetypes="ccaaaaaaacc" />
    <path
       style="fill:none;stroke:#666666;stroke-width:1.20871162000000010px;stroke-linecap:butt;stroke-linejoin:miter;stroke-opacity:1"
       d="m 502.85714,453.79075 81.39766,-8.57143"
       id="path11602"
       inkscape:connector-curvature="0" />
    <path
       style="fill:none;stroke:#666666;stroke-width:1.20871162000000010px;stroke-linecap:butt;stroke-linejoin:miter;stroke-opacity:1"
       d="m 509.11849,462.36218 112.70447,-1.42857"
       id="path11604"
       inkscape:connector-curvature="0" />
    <path
       style="fill:none;stroke:#666666;stroke-width:1.20871162000000010px;stroke-linecap:butt;stroke-linejoin:miter;stroke-opacity:1"
       d="m 507.03138,473.79075 77.22342,11.42857"
       id="path11608"
       inkscape:connector-curvature="0" />
    <path
       sodipodi:type="arc"
       style="fill:#ffffff;fill-opacity:1;stroke:none"
       id="path11610"
       sodipodi:cx="95.714287"
       sodipodi:cy="517.36218"
       sodipodi:rx="18.571428"
       sodipodi:ry="17.857143"
       d="m 114.28572,517.36218 a 18.571428,17.857143 0 1 1 -37.142861,0 18.571428,17.857143 0 1 1 37.142861,0 z"
       transform="translate(305.71428,-104.28572)" />
    <path
       sodipodi:type="arc"
       style="fill:#241c1c;fill-opacity:1;stroke:none"
       id="path11612"
       sodipodi:cx="161.42857"
       sodipodi:cy="522.36218"
       sodipodi:rx="15.714286"
       sodipodi:ry="12.857142"
       d="m 177.14286,522.36218 a 15.714286,12.857142 0 1 1 -31.42857,0 15.714286,12.857142 0 1 1 31.42857,0 z"
       transform="matrix(0.5,0,0,0.66666666,321.42857,65.549302)" />
    <path
       sodipodi:type="arc"
       style="fill:#ffffff;fill-opacity:1;stroke:none"
       id="path11610-0"
       sodipodi:cx="95.714287"
       sodipodi:cy="517.36218"
       sodipodi:rx="18.571428"
       sodipodi:ry="17.857143"
       d="m 114.28572,517.36218 a 18.571428,17.857143 0 1 1 -37.142861,0 18.571428,17.857143 0 1 1 37.142861,0 z"
       transform="translate(367.14285,-110.71429)" />
    <path
       sodipodi:type="arc"
       style="fill:#241c1c;fill-opacity:1;stroke:none"
       id="path11612-1"
       sodipodi:cx="161.42857"
       sodipodi:cy="522.36218"
       sodipodi:rx="15.714286"
       sodipodi:ry="12.857142"
       d="m 177.14286,522.36218 a 15.714286,12.857142 0 1 1 -31.42857,0 15.714286,12.857142 0 1 1 31.42857,0 z"
       transform="matrix(0.5,0,0,0.66666666,382.85714,59.120732)" />
    <path
       sodipodi:type="arc"
       style="fill:#800000;fill-opacity:1;stroke:none"
       id="path11635"
       sodipodi:cx="142.14285"
       sodipodi:cy="493.07648"
       sodipodi:rx="9.2857141"
       sodipodi:ry="7.8571429"
       d="m 151.42857,493.07648 a 9.2857141,7.8571429 0 1 1 -18.57143,0 9.2857141,7.8571429 0 1 1 18.57143,0 z"
       transform="translate(292.85714,-45.714288)" />
  </g>
</svg>
